G04 #@! TF.GenerationSoftware,KiCad,Pcbnew,(6.0.4-0)*
G04 #@! TF.CreationDate,2022-08-28T11:27:51+09:00*
G04 #@! TF.ProjectId,K68-VDG,4b36382d-5644-4472-9e6b-696361645f70,rev?*
G04 #@! TF.SameCoordinates,PX8583b00PY93d1cc0*
G04 #@! TF.FileFunction,Legend,Top*
G04 #@! TF.FilePolarity,Positive*
%FSLAX46Y46*%
G04 Gerber Fmt 4.6, Leading zero omitted, Abs format (unit mm)*
G04 Created by KiCad (PCBNEW (6.0.4-0)) date 2022-08-28 11:27:51*
%MOMM*%
%LPD*%
G01*
G04 APERTURE LIST*
%ADD10C,0.200000*%
%ADD11C,0.300000*%
%ADD12C,0.150000*%
%ADD13C,0.120000*%
G04 APERTURE END LIST*
D10*
X16837142Y46997143D02*
X17637142Y46997143D01*
X17122857Y45797143D01*
X18608571Y46597143D02*
X18608571Y45797143D01*
X18322857Y47054286D02*
X18037142Y46197143D01*
X18780000Y46197143D01*
X19808571Y45797143D02*
X19237142Y45797143D01*
X19237142Y46997143D01*
X20151428Y45854286D02*
X20322857Y45797143D01*
X20608571Y45797143D01*
X20722857Y45854286D01*
X20780000Y45911429D01*
X20837142Y46025715D01*
X20837142Y46140000D01*
X20780000Y46254286D01*
X20722857Y46311429D01*
X20608571Y46368572D01*
X20380000Y46425715D01*
X20265714Y46482858D01*
X20208571Y46540000D01*
X20151428Y46654286D01*
X20151428Y46768572D01*
X20208571Y46882858D01*
X20265714Y46940000D01*
X20380000Y46997143D01*
X20665714Y46997143D01*
X20837142Y46940000D01*
X21294285Y46882858D02*
X21351428Y46940000D01*
X21465714Y46997143D01*
X21751428Y46997143D01*
X21865714Y46940000D01*
X21922857Y46882858D01*
X21980000Y46768572D01*
X21980000Y46654286D01*
X21922857Y46482858D01*
X21237142Y45797143D01*
X21980000Y45797143D01*
X23008571Y46597143D02*
X23008571Y45797143D01*
X22722857Y47054286D02*
X22437142Y46197143D01*
X23180000Y46197143D01*
X24208571Y46997143D02*
X23637142Y46997143D01*
X23580000Y46425715D01*
X23637142Y46482858D01*
X23751428Y46540000D01*
X24037142Y46540000D01*
X24151428Y46482858D01*
X24208571Y46425715D01*
X24265714Y46311429D01*
X24265714Y46025715D01*
X24208571Y45911429D01*
X24151428Y45854286D01*
X24037142Y45797143D01*
X23751428Y45797143D01*
X23637142Y45854286D01*
X23580000Y45911429D01*
X14938571Y32017143D02*
X14710000Y32017143D01*
X14595714Y31960000D01*
X14538571Y31902858D01*
X14424285Y31731429D01*
X14367142Y31502858D01*
X14367142Y31045715D01*
X14424285Y30931429D01*
X14481428Y30874286D01*
X14595714Y30817143D01*
X14824285Y30817143D01*
X14938571Y30874286D01*
X14995714Y30931429D01*
X15052857Y31045715D01*
X15052857Y31331429D01*
X14995714Y31445715D01*
X14938571Y31502858D01*
X14824285Y31560000D01*
X14595714Y31560000D01*
X14481428Y31502858D01*
X14424285Y31445715D01*
X14367142Y31331429D01*
X15510000Y31902858D02*
X15567142Y31960000D01*
X15681428Y32017143D01*
X15967142Y32017143D01*
X16081428Y31960000D01*
X16138571Y31902858D01*
X16195714Y31788572D01*
X16195714Y31674286D01*
X16138571Y31502858D01*
X15452857Y30817143D01*
X16195714Y30817143D01*
X16652857Y31902858D02*
X16710000Y31960000D01*
X16824285Y32017143D01*
X17110000Y32017143D01*
X17224285Y31960000D01*
X17281428Y31902858D01*
X17338571Y31788572D01*
X17338571Y31674286D01*
X17281428Y31502858D01*
X16595714Y30817143D01*
X17338571Y30817143D01*
X18424285Y32017143D02*
X17852857Y32017143D01*
X17795714Y31445715D01*
X17852857Y31502858D01*
X17967142Y31560000D01*
X18252857Y31560000D01*
X18367142Y31502858D01*
X18424285Y31445715D01*
X18481428Y31331429D01*
X18481428Y31045715D01*
X18424285Y30931429D01*
X18367142Y30874286D01*
X18252857Y30817143D01*
X17967142Y30817143D01*
X17852857Y30874286D01*
X17795714Y30931429D01*
X19510000Y32017143D02*
X19281428Y32017143D01*
X19167142Y31960000D01*
X19110000Y31902858D01*
X18995714Y31731429D01*
X18938571Y31502858D01*
X18938571Y31045715D01*
X18995714Y30931429D01*
X19052857Y30874286D01*
X19167142Y30817143D01*
X19395714Y30817143D01*
X19510000Y30874286D01*
X19567142Y30931429D01*
X19624285Y31045715D01*
X19624285Y31331429D01*
X19567142Y31445715D01*
X19510000Y31502858D01*
X19395714Y31560000D01*
X19167142Y31560000D01*
X19052857Y31502858D01*
X18995714Y31445715D01*
X18938571Y31331429D01*
X21395714Y30360000D02*
X21338571Y30417143D01*
X21224285Y30588572D01*
X21167142Y30702858D01*
X21110000Y30874286D01*
X21052857Y31160000D01*
X21052857Y31388572D01*
X21110000Y31674286D01*
X21167142Y31845715D01*
X21224285Y31960000D01*
X21338571Y32131429D01*
X21395714Y32188572D01*
X21738571Y32017143D02*
X22481428Y32017143D01*
X22081428Y31560000D01*
X22252857Y31560000D01*
X22367142Y31502858D01*
X22424285Y31445715D01*
X22481428Y31331429D01*
X22481428Y31045715D01*
X22424285Y30931429D01*
X22367142Y30874286D01*
X22252857Y30817143D01*
X21910000Y30817143D01*
X21795714Y30874286D01*
X21738571Y30931429D01*
X22938571Y31902858D02*
X22995714Y31960000D01*
X23110000Y32017143D01*
X23395714Y32017143D01*
X23510000Y31960000D01*
X23567142Y31902858D01*
X23624285Y31788572D01*
X23624285Y31674286D01*
X23567142Y31502858D01*
X22881428Y30817143D01*
X23624285Y30817143D01*
X24138571Y30817143D02*
X24138571Y32017143D01*
X24252857Y31274286D02*
X24595714Y30817143D01*
X24595714Y31617143D02*
X24138571Y31160000D01*
X25510000Y31445715D02*
X25681428Y31388572D01*
X25738571Y31331429D01*
X25795714Y31217143D01*
X25795714Y31045715D01*
X25738571Y30931429D01*
X25681428Y30874286D01*
X25567142Y30817143D01*
X25110000Y30817143D01*
X25110000Y32017143D01*
X25510000Y32017143D01*
X25624285Y31960000D01*
X25681428Y31902858D01*
X25738571Y31788572D01*
X25738571Y31674286D01*
X25681428Y31560000D01*
X25624285Y31502858D01*
X25510000Y31445715D01*
X25110000Y31445715D01*
X27167142Y30874286D02*
X27338571Y30817143D01*
X27624285Y30817143D01*
X27738571Y30874286D01*
X27795714Y30931429D01*
X27852857Y31045715D01*
X27852857Y31160000D01*
X27795714Y31274286D01*
X27738571Y31331429D01*
X27624285Y31388572D01*
X27395714Y31445715D01*
X27281428Y31502858D01*
X27224285Y31560000D01*
X27167142Y31674286D01*
X27167142Y31788572D01*
X27224285Y31902858D01*
X27281428Y31960000D01*
X27395714Y32017143D01*
X27681428Y32017143D01*
X27852857Y31960000D01*
X29052857Y30817143D02*
X28652857Y31388572D01*
X28367142Y30817143D02*
X28367142Y32017143D01*
X28824285Y32017143D01*
X28938571Y31960000D01*
X28995714Y31902858D01*
X29052857Y31788572D01*
X29052857Y31617143D01*
X28995714Y31502858D01*
X28938571Y31445715D01*
X28824285Y31388572D01*
X28367142Y31388572D01*
X29510000Y31160000D02*
X30081428Y31160000D01*
X29395714Y30817143D02*
X29795714Y32017143D01*
X30195714Y30817143D01*
X30595714Y30817143D02*
X30595714Y32017143D01*
X30995714Y31160000D01*
X31395714Y32017143D01*
X31395714Y30817143D01*
X31852857Y30360000D02*
X31910000Y30417143D01*
X32024285Y30588572D01*
X32081428Y30702858D01*
X32138571Y30874286D01*
X32195714Y31160000D01*
X32195714Y31388572D01*
X32138571Y31674286D01*
X32081428Y31845715D01*
X32024285Y31960000D01*
X31910000Y32131429D01*
X31852857Y32188572D01*
D11*
X4479452Y20230239D02*
X6179452Y20230239D01*
X4479452Y19258810D02*
X5450880Y19987381D01*
X6179452Y19258810D02*
X5208023Y20230239D01*
X6179452Y18530239D02*
X4803261Y18530239D01*
X4641357Y18449286D01*
X4560404Y18368334D01*
X4479452Y18206429D01*
X4479452Y17882620D01*
X4560404Y17720715D01*
X4641357Y17639762D01*
X4803261Y17558810D01*
X6179452Y17558810D01*
X4479452Y16749286D02*
X6179452Y16749286D01*
X4479452Y15777858D01*
X6179452Y15777858D01*
X4479452Y14968334D02*
X6179452Y14968334D01*
X5127071Y14158810D02*
X5127071Y12863572D01*
X4479452Y12054048D02*
X6179452Y12054048D01*
X4479452Y11082620D01*
X6179452Y11082620D01*
X5369928Y10273096D02*
X5369928Y9706429D01*
X4479452Y9463572D02*
X4479452Y10273096D01*
X6179452Y10273096D01*
X6179452Y9463572D01*
X6179452Y8977858D02*
X6179452Y8006429D01*
X4479452Y8492143D02*
X6179452Y8492143D01*
X3280547Y20311191D02*
X3361500Y20230239D01*
X3442452Y20068334D01*
X3442452Y19663572D01*
X3361500Y19501667D01*
X3280547Y19420715D01*
X3118642Y19339762D01*
X2956738Y19339762D01*
X2713880Y19420715D01*
X1742452Y20392143D01*
X1742452Y19339762D01*
X3442452Y18287381D02*
X3442452Y18125477D01*
X3361500Y17963572D01*
X3280547Y17882620D01*
X3118642Y17801667D01*
X2794833Y17720715D01*
X2390071Y17720715D01*
X2066261Y17801667D01*
X1904357Y17882620D01*
X1823404Y17963572D01*
X1742452Y18125477D01*
X1742452Y18287381D01*
X1823404Y18449286D01*
X1904357Y18530239D01*
X2066261Y18611191D01*
X2390071Y18692143D01*
X2794833Y18692143D01*
X3118642Y18611191D01*
X3280547Y18530239D01*
X3361500Y18449286D01*
X3442452Y18287381D01*
X3280547Y17073096D02*
X3361500Y16992143D01*
X3442452Y16830239D01*
X3442452Y16425477D01*
X3361500Y16263572D01*
X3280547Y16182620D01*
X3118642Y16101667D01*
X2956738Y16101667D01*
X2713880Y16182620D01*
X1742452Y17154048D01*
X1742452Y16101667D01*
X3280547Y15454048D02*
X3361500Y15373096D01*
X3442452Y15211191D01*
X3442452Y14806429D01*
X3361500Y14644524D01*
X3280547Y14563572D01*
X3118642Y14482620D01*
X2956738Y14482620D01*
X2713880Y14563572D01*
X1742452Y15535000D01*
X1742452Y14482620D01*
D10*
X46167142Y34787143D02*
X46967142Y34787143D01*
X46452857Y33587143D01*
X47938571Y34387143D02*
X47938571Y33587143D01*
X47652857Y34844286D02*
X47367142Y33987143D01*
X48110000Y33987143D01*
X49138571Y33587143D02*
X48567142Y33587143D01*
X48567142Y34787143D01*
X49481428Y33644286D02*
X49652857Y33587143D01*
X49938571Y33587143D01*
X50052857Y33644286D01*
X50110000Y33701429D01*
X50167142Y33815715D01*
X50167142Y33930000D01*
X50110000Y34044286D01*
X50052857Y34101429D01*
X49938571Y34158572D01*
X49710000Y34215715D01*
X49595714Y34272858D01*
X49538571Y34330000D01*
X49481428Y34444286D01*
X49481428Y34558572D01*
X49538571Y34672858D01*
X49595714Y34730000D01*
X49710000Y34787143D01*
X49995714Y34787143D01*
X50167142Y34730000D01*
X51310000Y33587143D02*
X50624285Y33587143D01*
X50967142Y33587143D02*
X50967142Y34787143D01*
X50852857Y34615715D01*
X50738571Y34501429D01*
X50624285Y34444286D01*
X51710000Y34787143D02*
X52452857Y34787143D01*
X52052857Y34330000D01*
X52224285Y34330000D01*
X52338571Y34272858D01*
X52395714Y34215715D01*
X52452857Y34101429D01*
X52452857Y33815715D01*
X52395714Y33701429D01*
X52338571Y33644286D01*
X52224285Y33587143D01*
X51881428Y33587143D01*
X51767142Y33644286D01*
X51710000Y33701429D01*
X53138571Y34272858D02*
X53024285Y34330000D01*
X52967142Y34387143D01*
X52910000Y34501429D01*
X52910000Y34558572D01*
X52967142Y34672858D01*
X53024285Y34730000D01*
X53138571Y34787143D01*
X53367142Y34787143D01*
X53481428Y34730000D01*
X53538571Y34672858D01*
X53595714Y34558572D01*
X53595714Y34501429D01*
X53538571Y34387143D01*
X53481428Y34330000D01*
X53367142Y34272858D01*
X53138571Y34272858D01*
X53024285Y34215715D01*
X52967142Y34158572D01*
X52910000Y34044286D01*
X52910000Y33815715D01*
X52967142Y33701429D01*
X53024285Y33644286D01*
X53138571Y33587143D01*
X53367142Y33587143D01*
X53481428Y33644286D01*
X53538571Y33701429D01*
X53595714Y33815715D01*
X53595714Y34044286D01*
X53538571Y34158572D01*
X53481428Y34215715D01*
X53367142Y34272858D01*
X29092857Y10427143D02*
X29092857Y11627143D01*
X29492857Y10770000D01*
X29892857Y11627143D01*
X29892857Y10427143D01*
X31150000Y10541429D02*
X31092857Y10484286D01*
X30921428Y10427143D01*
X30807142Y10427143D01*
X30635714Y10484286D01*
X30521428Y10598572D01*
X30464285Y10712858D01*
X30407142Y10941429D01*
X30407142Y11112858D01*
X30464285Y11341429D01*
X30521428Y11455715D01*
X30635714Y11570000D01*
X30807142Y11627143D01*
X30921428Y11627143D01*
X31092857Y11570000D01*
X31150000Y11512858D01*
X32178571Y11627143D02*
X31950000Y11627143D01*
X31835714Y11570000D01*
X31778571Y11512858D01*
X31664285Y11341429D01*
X31607142Y11112858D01*
X31607142Y10655715D01*
X31664285Y10541429D01*
X31721428Y10484286D01*
X31835714Y10427143D01*
X32064285Y10427143D01*
X32178571Y10484286D01*
X32235714Y10541429D01*
X32292857Y10655715D01*
X32292857Y10941429D01*
X32235714Y11055715D01*
X32178571Y11112858D01*
X32064285Y11170000D01*
X31835714Y11170000D01*
X31721428Y11112858D01*
X31664285Y11055715D01*
X31607142Y10941429D01*
X32978571Y11112858D02*
X32864285Y11170000D01*
X32807142Y11227143D01*
X32750000Y11341429D01*
X32750000Y11398572D01*
X32807142Y11512858D01*
X32864285Y11570000D01*
X32978571Y11627143D01*
X33207142Y11627143D01*
X33321428Y11570000D01*
X33378571Y11512858D01*
X33435714Y11398572D01*
X33435714Y11341429D01*
X33378571Y11227143D01*
X33321428Y11170000D01*
X33207142Y11112858D01*
X32978571Y11112858D01*
X32864285Y11055715D01*
X32807142Y10998572D01*
X32750000Y10884286D01*
X32750000Y10655715D01*
X32807142Y10541429D01*
X32864285Y10484286D01*
X32978571Y10427143D01*
X33207142Y10427143D01*
X33321428Y10484286D01*
X33378571Y10541429D01*
X33435714Y10655715D01*
X33435714Y10884286D01*
X33378571Y10998572D01*
X33321428Y11055715D01*
X33207142Y11112858D01*
X34464285Y11227143D02*
X34464285Y10427143D01*
X34178571Y11684286D02*
X33892857Y10827143D01*
X34635714Y10827143D01*
X34978571Y11627143D02*
X35778571Y11627143D01*
X35264285Y10427143D01*
X36978571Y11627143D02*
X37378571Y10427143D01*
X37778571Y11627143D01*
X38178571Y10427143D02*
X38178571Y11627143D01*
X38464285Y11627143D01*
X38635714Y11570000D01*
X38750000Y11455715D01*
X38807142Y11341429D01*
X38864285Y11112858D01*
X38864285Y10941429D01*
X38807142Y10712858D01*
X38750000Y10598572D01*
X38635714Y10484286D01*
X38464285Y10427143D01*
X38178571Y10427143D01*
X40007142Y11570000D02*
X39892857Y11627143D01*
X39721428Y11627143D01*
X39550000Y11570000D01*
X39435714Y11455715D01*
X39378571Y11341429D01*
X39321428Y11112858D01*
X39321428Y10941429D01*
X39378571Y10712858D01*
X39435714Y10598572D01*
X39550000Y10484286D01*
X39721428Y10427143D01*
X39835714Y10427143D01*
X40007142Y10484286D01*
X40064285Y10541429D01*
X40064285Y10941429D01*
X39835714Y10941429D01*
X42897142Y58007143D02*
X43697142Y58007143D01*
X43182857Y56807143D01*
X44668571Y57607143D02*
X44668571Y56807143D01*
X44382857Y58064286D02*
X44097142Y57207143D01*
X44840000Y57207143D01*
X45868571Y56807143D02*
X45297142Y56807143D01*
X45297142Y58007143D01*
X46211428Y56864286D02*
X46382857Y56807143D01*
X46668571Y56807143D01*
X46782857Y56864286D01*
X46840000Y56921429D01*
X46897142Y57035715D01*
X46897142Y57150000D01*
X46840000Y57264286D01*
X46782857Y57321429D01*
X46668571Y57378572D01*
X46440000Y57435715D01*
X46325714Y57492858D01*
X46268571Y57550000D01*
X46211428Y57664286D01*
X46211428Y57778572D01*
X46268571Y57892858D01*
X46325714Y57950000D01*
X46440000Y58007143D01*
X46725714Y58007143D01*
X46897142Y57950000D01*
X47354285Y57892858D02*
X47411428Y57950000D01*
X47525714Y58007143D01*
X47811428Y58007143D01*
X47925714Y57950000D01*
X47982857Y57892858D01*
X48040000Y57778572D01*
X48040000Y57664286D01*
X47982857Y57492858D01*
X47297142Y56807143D01*
X48040000Y56807143D01*
X49068571Y57607143D02*
X49068571Y56807143D01*
X48782857Y58064286D02*
X48497142Y57207143D01*
X49240000Y57207143D01*
X50211428Y57607143D02*
X50211428Y56807143D01*
X49925714Y58064286D02*
X49640000Y57207143D01*
X50382857Y57207143D01*
D11*
X2394285Y64419286D02*
X2394285Y64824048D01*
X4822857Y64824048D01*
X4822857Y64419286D01*
X2960952Y63771667D02*
X4660952Y63771667D01*
X2960952Y62800239D02*
X3932380Y63528810D01*
X4660952Y62800239D02*
X3689523Y63771667D01*
X4660952Y61343096D02*
X4660952Y61666905D01*
X4580000Y61828810D01*
X4499047Y61909762D01*
X4256190Y62071667D01*
X3932380Y62152620D01*
X3284761Y62152620D01*
X3122857Y62071667D01*
X3041904Y61990715D01*
X2960952Y61828810D01*
X2960952Y61505000D01*
X3041904Y61343096D01*
X3122857Y61262143D01*
X3284761Y61181191D01*
X3689523Y61181191D01*
X3851428Y61262143D01*
X3932380Y61343096D01*
X4013333Y61505000D01*
X4013333Y61828810D01*
X3932380Y61990715D01*
X3851428Y62071667D01*
X3689523Y62152620D01*
X3932380Y60209762D02*
X4013333Y60371667D01*
X4094285Y60452620D01*
X4256190Y60533572D01*
X4337142Y60533572D01*
X4499047Y60452620D01*
X4580000Y60371667D01*
X4660952Y60209762D01*
X4660952Y59885953D01*
X4580000Y59724048D01*
X4499047Y59643096D01*
X4337142Y59562143D01*
X4256190Y59562143D01*
X4094285Y59643096D01*
X4013333Y59724048D01*
X3932380Y59885953D01*
X3932380Y60209762D01*
X3851428Y60371667D01*
X3770476Y60452620D01*
X3608571Y60533572D01*
X3284761Y60533572D01*
X3122857Y60452620D01*
X3041904Y60371667D01*
X2960952Y60209762D01*
X2960952Y59885953D01*
X3041904Y59724048D01*
X3122857Y59643096D01*
X3284761Y59562143D01*
X3608571Y59562143D01*
X3770476Y59643096D01*
X3851428Y59724048D01*
X3932380Y59885953D01*
X3608571Y58833572D02*
X3608571Y57538334D01*
X4660952Y56971667D02*
X2960952Y56405000D01*
X4660952Y55838334D01*
X2960952Y55271667D02*
X4660952Y55271667D01*
X4660952Y54866905D01*
X4580000Y54624048D01*
X4418095Y54462143D01*
X4256190Y54381191D01*
X3932380Y54300239D01*
X3689523Y54300239D01*
X3365714Y54381191D01*
X3203809Y54462143D01*
X3041904Y54624048D01*
X2960952Y54866905D01*
X2960952Y55271667D01*
X4580000Y52681191D02*
X4660952Y52843096D01*
X4660952Y53085953D01*
X4580000Y53328810D01*
X4418095Y53490715D01*
X4256190Y53571667D01*
X3932380Y53652620D01*
X3689523Y53652620D01*
X3365714Y53571667D01*
X3203809Y53490715D01*
X3041904Y53328810D01*
X2960952Y53085953D01*
X2960952Y52924048D01*
X3041904Y52681191D01*
X3122857Y52600239D01*
X3689523Y52600239D01*
X3689523Y52924048D01*
X2394285Y52033572D02*
X2394285Y51628810D01*
X4822857Y51628810D01*
X4822857Y52033572D01*
X2960952Y48471667D02*
X3770476Y49038334D01*
X2960952Y49443096D02*
X4660952Y49443096D01*
X4660952Y48795477D01*
X4580000Y48633572D01*
X4499047Y48552620D01*
X4337142Y48471667D01*
X4094285Y48471667D01*
X3932380Y48552620D01*
X3851428Y48633572D01*
X3770476Y48795477D01*
X3770476Y49443096D01*
X3851428Y47743096D02*
X3851428Y47176429D01*
X2960952Y46933572D02*
X2960952Y47743096D01*
X4660952Y47743096D01*
X4660952Y46933572D01*
X4660952Y46447858D02*
X2960952Y45881191D01*
X4660952Y45314524D01*
X2960952Y43857381D02*
X2960952Y44828810D01*
X2960952Y44343096D02*
X4660952Y44343096D01*
X4418095Y44505000D01*
X4256190Y44666905D01*
X4175238Y44828810D01*
X3122857Y43128810D02*
X3041904Y43047858D01*
X2960952Y43128810D01*
X3041904Y43209762D01*
X3122857Y43128810D01*
X2960952Y43128810D01*
X2960952Y41428810D02*
X2960952Y42400239D01*
X2960952Y41914524D02*
X4660952Y41914524D01*
X4418095Y42076429D01*
X4256190Y42238334D01*
X4175238Y42400239D01*
D12*
X63744761Y13572381D02*
X63792380Y13620000D01*
X63887619Y13667620D01*
X64125714Y13667620D01*
X64220952Y13620000D01*
X64268571Y13572381D01*
X64316190Y13477143D01*
X64316190Y13381905D01*
X64268571Y13239048D01*
X63697142Y12667620D01*
X64316190Y12667620D01*
X64697142Y12715239D02*
X64840000Y12667620D01*
X65078095Y12667620D01*
X65173333Y12715239D01*
X65220952Y12762858D01*
X65268571Y12858096D01*
X65268571Y12953334D01*
X65220952Y13048572D01*
X65173333Y13096191D01*
X65078095Y13143810D01*
X64887619Y13191429D01*
X64792380Y13239048D01*
X64744761Y13286667D01*
X64697142Y13381905D01*
X64697142Y13477143D01*
X64744761Y13572381D01*
X64792380Y13620000D01*
X64887619Y13667620D01*
X65125714Y13667620D01*
X65268571Y13620000D01*
X65649523Y12953334D02*
X66125714Y12953334D01*
X65554285Y12667620D02*
X65887619Y13667620D01*
X66220952Y12667620D01*
X67078095Y12667620D02*
X66506666Y12667620D01*
X66792380Y12667620D02*
X66792380Y13667620D01*
X66697142Y13524762D01*
X66601904Y13429524D01*
X66506666Y13381905D01*
X67697142Y13667620D02*
X67792380Y13667620D01*
X67887619Y13620000D01*
X67935238Y13572381D01*
X67982857Y13477143D01*
X68030476Y13286667D01*
X68030476Y13048572D01*
X67982857Y12858096D01*
X67935238Y12762858D01*
X67887619Y12715239D01*
X67792380Y12667620D01*
X67697142Y12667620D01*
X67601904Y12715239D01*
X67554285Y12762858D01*
X67506666Y12858096D01*
X67459047Y13048572D01*
X67459047Y13286667D01*
X67506666Y13477143D01*
X67554285Y13572381D01*
X67601904Y13620000D01*
X67697142Y13667620D01*
X68982857Y12667620D02*
X68411428Y12667620D01*
X68697142Y12667620D02*
X68697142Y13667620D01*
X68601904Y13524762D01*
X68506666Y13429524D01*
X68411428Y13381905D01*
X69887619Y13667620D02*
X69411428Y13667620D01*
X69363809Y13191429D01*
X69411428Y13239048D01*
X69506666Y13286667D01*
X69744761Y13286667D01*
X69840000Y13239048D01*
X69887619Y13191429D01*
X69935238Y13096191D01*
X69935238Y12858096D01*
X69887619Y12762858D01*
X69840000Y12715239D01*
X69744761Y12667620D01*
X69506666Y12667620D01*
X69411428Y12715239D01*
X69363809Y12762858D01*
D10*
X71788571Y46497143D02*
X72588571Y46497143D01*
X72074285Y45297143D01*
X73560000Y46097143D02*
X73560000Y45297143D01*
X73274285Y46554286D02*
X72988571Y45697143D01*
X73731428Y45697143D01*
X74760000Y45297143D02*
X74188571Y45297143D01*
X74188571Y46497143D01*
X75102857Y45354286D02*
X75274285Y45297143D01*
X75560000Y45297143D01*
X75674285Y45354286D01*
X75731428Y45411429D01*
X75788571Y45525715D01*
X75788571Y45640000D01*
X75731428Y45754286D01*
X75674285Y45811429D01*
X75560000Y45868572D01*
X75331428Y45925715D01*
X75217142Y45982858D01*
X75160000Y46040000D01*
X75102857Y46154286D01*
X75102857Y46268572D01*
X75160000Y46382858D01*
X75217142Y46440000D01*
X75331428Y46497143D01*
X75617142Y46497143D01*
X75788571Y46440000D01*
X76188571Y46497143D02*
X76931428Y46497143D01*
X76531428Y46040000D01*
X76702857Y46040000D01*
X76817142Y45982858D01*
X76874285Y45925715D01*
X76931428Y45811429D01*
X76931428Y45525715D01*
X76874285Y45411429D01*
X76817142Y45354286D01*
X76702857Y45297143D01*
X76360000Y45297143D01*
X76245714Y45354286D01*
X76188571Y45411429D01*
X77388571Y46382858D02*
X77445714Y46440000D01*
X77560000Y46497143D01*
X77845714Y46497143D01*
X77960000Y46440000D01*
X78017142Y46382858D01*
X78074285Y46268572D01*
X78074285Y46154286D01*
X78017142Y45982858D01*
X77331428Y45297143D01*
X78074285Y45297143D01*
X70904285Y33647143D02*
X70904285Y34847143D01*
X71304285Y33990000D01*
X71704285Y34847143D01*
X71704285Y33647143D01*
X72961428Y33761429D02*
X72904285Y33704286D01*
X72732857Y33647143D01*
X72618571Y33647143D01*
X72447142Y33704286D01*
X72332857Y33818572D01*
X72275714Y33932858D01*
X72218571Y34161429D01*
X72218571Y34332858D01*
X72275714Y34561429D01*
X72332857Y34675715D01*
X72447142Y34790000D01*
X72618571Y34847143D01*
X72732857Y34847143D01*
X72904285Y34790000D01*
X72961428Y34732858D01*
X74104285Y33647143D02*
X73418571Y33647143D01*
X73761428Y33647143D02*
X73761428Y34847143D01*
X73647142Y34675715D01*
X73532857Y34561429D01*
X73418571Y34504286D01*
X74504285Y34847143D02*
X75247142Y34847143D01*
X74847142Y34390000D01*
X75018571Y34390000D01*
X75132857Y34332858D01*
X75190000Y34275715D01*
X75247142Y34161429D01*
X75247142Y33875715D01*
X75190000Y33761429D01*
X75132857Y33704286D01*
X75018571Y33647143D01*
X74675714Y33647143D01*
X74561428Y33704286D01*
X74504285Y33761429D01*
X75647142Y34847143D02*
X76447142Y34847143D01*
X75932857Y33647143D01*
X76847142Y34732858D02*
X76904285Y34790000D01*
X77018571Y34847143D01*
X77304285Y34847143D01*
X77418571Y34790000D01*
X77475714Y34732858D01*
X77532857Y34618572D01*
X77532857Y34504286D01*
X77475714Y34332858D01*
X76790000Y33647143D01*
X77532857Y33647143D01*
X16397142Y58007143D02*
X17197142Y58007143D01*
X16682857Y56807143D01*
X18168571Y57607143D02*
X18168571Y56807143D01*
X17882857Y58064286D02*
X17597142Y57207143D01*
X18340000Y57207143D01*
X19368571Y56807143D02*
X18797142Y56807143D01*
X18797142Y58007143D01*
X19711428Y56864286D02*
X19882857Y56807143D01*
X20168571Y56807143D01*
X20282857Y56864286D01*
X20340000Y56921429D01*
X20397142Y57035715D01*
X20397142Y57150000D01*
X20340000Y57264286D01*
X20282857Y57321429D01*
X20168571Y57378572D01*
X19940000Y57435715D01*
X19825714Y57492858D01*
X19768571Y57550000D01*
X19711428Y57664286D01*
X19711428Y57778572D01*
X19768571Y57892858D01*
X19825714Y57950000D01*
X19940000Y58007143D01*
X20225714Y58007143D01*
X20397142Y57950000D01*
X20854285Y57892858D02*
X20911428Y57950000D01*
X21025714Y58007143D01*
X21311428Y58007143D01*
X21425714Y57950000D01*
X21482857Y57892858D01*
X21540000Y57778572D01*
X21540000Y57664286D01*
X21482857Y57492858D01*
X20797142Y56807143D01*
X21540000Y56807143D01*
X22568571Y57607143D02*
X22568571Y56807143D01*
X22282857Y58064286D02*
X21997142Y57207143D01*
X22740000Y57207143D01*
X23711428Y57607143D02*
X23711428Y56807143D01*
X23425714Y58064286D02*
X23140000Y57207143D01*
X23882857Y57207143D01*
X71078571Y57987143D02*
X71878571Y57987143D01*
X71364285Y56787143D01*
X72850000Y57587143D02*
X72850000Y56787143D01*
X72564285Y58044286D02*
X72278571Y57187143D01*
X73021428Y57187143D01*
X74050000Y56787143D02*
X73478571Y56787143D01*
X73478571Y57987143D01*
X74392857Y56844286D02*
X74564285Y56787143D01*
X74850000Y56787143D01*
X74964285Y56844286D01*
X75021428Y56901429D01*
X75078571Y57015715D01*
X75078571Y57130000D01*
X75021428Y57244286D01*
X74964285Y57301429D01*
X74850000Y57358572D01*
X74621428Y57415715D01*
X74507142Y57472858D01*
X74450000Y57530000D01*
X74392857Y57644286D01*
X74392857Y57758572D01*
X74450000Y57872858D01*
X74507142Y57930000D01*
X74621428Y57987143D01*
X74907142Y57987143D01*
X75078571Y57930000D01*
X75821428Y57987143D02*
X75935714Y57987143D01*
X76050000Y57930000D01*
X76107142Y57872858D01*
X76164285Y57758572D01*
X76221428Y57530000D01*
X76221428Y57244286D01*
X76164285Y57015715D01*
X76107142Y56901429D01*
X76050000Y56844286D01*
X75935714Y56787143D01*
X75821428Y56787143D01*
X75707142Y56844286D01*
X75650000Y56901429D01*
X75592857Y57015715D01*
X75535714Y57244286D01*
X75535714Y57530000D01*
X75592857Y57758572D01*
X75650000Y57872858D01*
X75707142Y57930000D01*
X75821428Y57987143D01*
X76678571Y57872858D02*
X76735714Y57930000D01*
X76850000Y57987143D01*
X77135714Y57987143D01*
X77250000Y57930000D01*
X77307142Y57872858D01*
X77364285Y57758572D01*
X77364285Y57644286D01*
X77307142Y57472858D01*
X76621428Y56787143D01*
X77364285Y56787143D01*
D12*
X71153333Y13822381D02*
X71200952Y13870000D01*
X71296190Y13917620D01*
X71534285Y13917620D01*
X71629523Y13870000D01*
X71677142Y13822381D01*
X71724761Y13727143D01*
X71724761Y13631905D01*
X71677142Y13489048D01*
X71105714Y12917620D01*
X71724761Y12917620D01*
X72105714Y12965239D02*
X72248571Y12917620D01*
X72486666Y12917620D01*
X72581904Y12965239D01*
X72629523Y13012858D01*
X72677142Y13108096D01*
X72677142Y13203334D01*
X72629523Y13298572D01*
X72581904Y13346191D01*
X72486666Y13393810D01*
X72296190Y13441429D01*
X72200952Y13489048D01*
X72153333Y13536667D01*
X72105714Y13631905D01*
X72105714Y13727143D01*
X72153333Y13822381D01*
X72200952Y13870000D01*
X72296190Y13917620D01*
X72534285Y13917620D01*
X72677142Y13870000D01*
X73677142Y13012858D02*
X73629523Y12965239D01*
X73486666Y12917620D01*
X73391428Y12917620D01*
X73248571Y12965239D01*
X73153333Y13060477D01*
X73105714Y13155715D01*
X73058095Y13346191D01*
X73058095Y13489048D01*
X73105714Y13679524D01*
X73153333Y13774762D01*
X73248571Y13870000D01*
X73391428Y13917620D01*
X73486666Y13917620D01*
X73629523Y13870000D01*
X73677142Y13822381D01*
X74629523Y12917620D02*
X74058095Y12917620D01*
X74343809Y12917620D02*
X74343809Y13917620D01*
X74248571Y13774762D01*
X74153333Y13679524D01*
X74058095Y13631905D01*
X75200952Y13489048D02*
X75105714Y13536667D01*
X75058095Y13584286D01*
X75010476Y13679524D01*
X75010476Y13727143D01*
X75058095Y13822381D01*
X75105714Y13870000D01*
X75200952Y13917620D01*
X75391428Y13917620D01*
X75486666Y13870000D01*
X75534285Y13822381D01*
X75581904Y13727143D01*
X75581904Y13679524D01*
X75534285Y13584286D01*
X75486666Y13536667D01*
X75391428Y13489048D01*
X75200952Y13489048D01*
X75105714Y13441429D01*
X75058095Y13393810D01*
X75010476Y13298572D01*
X75010476Y13108096D01*
X75058095Y13012858D01*
X75105714Y12965239D01*
X75200952Y12917620D01*
X75391428Y12917620D01*
X75486666Y12965239D01*
X75534285Y13012858D01*
X75581904Y13108096D01*
X75581904Y13298572D01*
X75534285Y13393810D01*
X75486666Y13441429D01*
X75391428Y13489048D01*
X76534285Y12917620D02*
X75962857Y12917620D01*
X76248571Y12917620D02*
X76248571Y13917620D01*
X76153333Y13774762D01*
X76058095Y13679524D01*
X75962857Y13631905D01*
X77439047Y13917620D02*
X76962857Y13917620D01*
X76915238Y13441429D01*
X76962857Y13489048D01*
X77058095Y13536667D01*
X77296190Y13536667D01*
X77391428Y13489048D01*
X77439047Y13441429D01*
X77486666Y13346191D01*
X77486666Y13108096D01*
X77439047Y13012858D01*
X77391428Y12965239D01*
X77296190Y12917620D01*
X77058095Y12917620D01*
X76962857Y12965239D01*
X76915238Y13012858D01*
D10*
X42967142Y46837143D02*
X43767142Y46837143D01*
X43252857Y45637143D01*
X44738571Y46437143D02*
X44738571Y45637143D01*
X44452857Y46894286D02*
X44167142Y46037143D01*
X44910000Y46037143D01*
X45938571Y45637143D02*
X45367142Y45637143D01*
X45367142Y46837143D01*
X46281428Y45694286D02*
X46452857Y45637143D01*
X46738571Y45637143D01*
X46852857Y45694286D01*
X46910000Y45751429D01*
X46967142Y45865715D01*
X46967142Y45980000D01*
X46910000Y46094286D01*
X46852857Y46151429D01*
X46738571Y46208572D01*
X46510000Y46265715D01*
X46395714Y46322858D01*
X46338571Y46380000D01*
X46281428Y46494286D01*
X46281428Y46608572D01*
X46338571Y46722858D01*
X46395714Y46780000D01*
X46510000Y46837143D01*
X46795714Y46837143D01*
X46967142Y46780000D01*
X48052857Y46837143D02*
X47481428Y46837143D01*
X47424285Y46265715D01*
X47481428Y46322858D01*
X47595714Y46380000D01*
X47881428Y46380000D01*
X47995714Y46322858D01*
X48052857Y46265715D01*
X48110000Y46151429D01*
X48110000Y45865715D01*
X48052857Y45751429D01*
X47995714Y45694286D01*
X47881428Y45637143D01*
X47595714Y45637143D01*
X47481428Y45694286D01*
X47424285Y45751429D01*
X48510000Y46837143D02*
X49310000Y46837143D01*
X48795714Y45637143D01*
X49652857Y46837143D02*
X50395714Y46837143D01*
X49995714Y46380000D01*
X50167142Y46380000D01*
X50281428Y46322858D01*
X50338571Y46265715D01*
X50395714Y46151429D01*
X50395714Y45865715D01*
X50338571Y45751429D01*
X50281428Y45694286D01*
X50167142Y45637143D01*
X49824285Y45637143D01*
X49710000Y45694286D01*
X49652857Y45751429D01*
D12*
X22783333Y11502858D02*
X22735714Y11455239D01*
X22592857Y11407620D01*
X22497619Y11407620D01*
X22354761Y11455239D01*
X22259523Y11550477D01*
X22211904Y11645715D01*
X22164285Y11836191D01*
X22164285Y11979048D01*
X22211904Y12169524D01*
X22259523Y12264762D01*
X22354761Y12360000D01*
X22497619Y12407620D01*
X22592857Y12407620D01*
X22735714Y12360000D01*
X22783333Y12312381D01*
X23735714Y11407620D02*
X23164285Y11407620D01*
X23450000Y11407620D02*
X23450000Y12407620D01*
X23354761Y12264762D01*
X23259523Y12169524D01*
X23164285Y12121905D01*
X85073333Y27882858D02*
X85025714Y27835239D01*
X84882857Y27787620D01*
X84787619Y27787620D01*
X84644761Y27835239D01*
X84549523Y27930477D01*
X84501904Y28025715D01*
X84454285Y28216191D01*
X84454285Y28359048D01*
X84501904Y28549524D01*
X84549523Y28644762D01*
X84644761Y28740000D01*
X84787619Y28787620D01*
X84882857Y28787620D01*
X85025714Y28740000D01*
X85073333Y28692381D01*
X85454285Y28692381D02*
X85501904Y28740000D01*
X85597142Y28787620D01*
X85835238Y28787620D01*
X85930476Y28740000D01*
X85978095Y28692381D01*
X86025714Y28597143D01*
X86025714Y28501905D01*
X85978095Y28359048D01*
X85406666Y27787620D01*
X86025714Y27787620D01*
X96893333Y28302858D02*
X96845714Y28255239D01*
X96702857Y28207620D01*
X96607619Y28207620D01*
X96464761Y28255239D01*
X96369523Y28350477D01*
X96321904Y28445715D01*
X96274285Y28636191D01*
X96274285Y28779048D01*
X96321904Y28969524D01*
X96369523Y29064762D01*
X96464761Y29160000D01*
X96607619Y29207620D01*
X96702857Y29207620D01*
X96845714Y29160000D01*
X96893333Y29112381D01*
X97226666Y29207620D02*
X97845714Y29207620D01*
X97512380Y28826667D01*
X97655238Y28826667D01*
X97750476Y28779048D01*
X97798095Y28731429D01*
X97845714Y28636191D01*
X97845714Y28398096D01*
X97798095Y28302858D01*
X97750476Y28255239D01*
X97655238Y28207620D01*
X97369523Y28207620D01*
X97274285Y28255239D01*
X97226666Y28302858D01*
X80853333Y26712858D02*
X80805714Y26665239D01*
X80662857Y26617620D01*
X80567619Y26617620D01*
X80424761Y26665239D01*
X80329523Y26760477D01*
X80281904Y26855715D01*
X80234285Y27046191D01*
X80234285Y27189048D01*
X80281904Y27379524D01*
X80329523Y27474762D01*
X80424761Y27570000D01*
X80567619Y27617620D01*
X80662857Y27617620D01*
X80805714Y27570000D01*
X80853333Y27522381D01*
X81710476Y27284286D02*
X81710476Y26617620D01*
X81472380Y27665239D02*
X81234285Y26950953D01*
X81853333Y26950953D01*
X63093333Y46122858D02*
X63045714Y46075239D01*
X62902857Y46027620D01*
X62807619Y46027620D01*
X62664761Y46075239D01*
X62569523Y46170477D01*
X62521904Y46265715D01*
X62474285Y46456191D01*
X62474285Y46599048D01*
X62521904Y46789524D01*
X62569523Y46884762D01*
X62664761Y46980000D01*
X62807619Y47027620D01*
X62902857Y47027620D01*
X63045714Y46980000D01*
X63093333Y46932381D01*
X63998095Y47027620D02*
X63521904Y47027620D01*
X63474285Y46551429D01*
X63521904Y46599048D01*
X63617142Y46646667D01*
X63855238Y46646667D01*
X63950476Y46599048D01*
X63998095Y46551429D01*
X64045714Y46456191D01*
X64045714Y46218096D01*
X63998095Y46122858D01*
X63950476Y46075239D01*
X63855238Y46027620D01*
X63617142Y46027620D01*
X63521904Y46075239D01*
X63474285Y46122858D01*
X61763333Y24972858D02*
X61715714Y24925239D01*
X61572857Y24877620D01*
X61477619Y24877620D01*
X61334761Y24925239D01*
X61239523Y25020477D01*
X61191904Y25115715D01*
X61144285Y25306191D01*
X61144285Y25449048D01*
X61191904Y25639524D01*
X61239523Y25734762D01*
X61334761Y25830000D01*
X61477619Y25877620D01*
X61572857Y25877620D01*
X61715714Y25830000D01*
X61763333Y25782381D01*
X62620476Y25877620D02*
X62430000Y25877620D01*
X62334761Y25830000D01*
X62287142Y25782381D01*
X62191904Y25639524D01*
X62144285Y25449048D01*
X62144285Y25068096D01*
X62191904Y24972858D01*
X62239523Y24925239D01*
X62334761Y24877620D01*
X62525238Y24877620D01*
X62620476Y24925239D01*
X62668095Y24972858D01*
X62715714Y25068096D01*
X62715714Y25306191D01*
X62668095Y25401429D01*
X62620476Y25449048D01*
X62525238Y25496667D01*
X62334761Y25496667D01*
X62239523Y25449048D01*
X62191904Y25401429D01*
X62144285Y25306191D01*
X34383333Y57062858D02*
X34335714Y57015239D01*
X34192857Y56967620D01*
X34097619Y56967620D01*
X33954761Y57015239D01*
X33859523Y57110477D01*
X33811904Y57205715D01*
X33764285Y57396191D01*
X33764285Y57539048D01*
X33811904Y57729524D01*
X33859523Y57824762D01*
X33954761Y57920000D01*
X34097619Y57967620D01*
X34192857Y57967620D01*
X34335714Y57920000D01*
X34383333Y57872381D01*
X34716666Y57967620D02*
X35383333Y57967620D01*
X34954761Y56967620D01*
X34313333Y46022858D02*
X34265714Y45975239D01*
X34122857Y45927620D01*
X34027619Y45927620D01*
X33884761Y45975239D01*
X33789523Y46070477D01*
X33741904Y46165715D01*
X33694285Y46356191D01*
X33694285Y46499048D01*
X33741904Y46689524D01*
X33789523Y46784762D01*
X33884761Y46880000D01*
X34027619Y46927620D01*
X34122857Y46927620D01*
X34265714Y46880000D01*
X34313333Y46832381D01*
X34884761Y46499048D02*
X34789523Y46546667D01*
X34741904Y46594286D01*
X34694285Y46689524D01*
X34694285Y46737143D01*
X34741904Y46832381D01*
X34789523Y46880000D01*
X34884761Y46927620D01*
X35075238Y46927620D01*
X35170476Y46880000D01*
X35218095Y46832381D01*
X35265714Y46737143D01*
X35265714Y46689524D01*
X35218095Y46594286D01*
X35170476Y46546667D01*
X35075238Y46499048D01*
X34884761Y46499048D01*
X34789523Y46451429D01*
X34741904Y46403810D01*
X34694285Y46308572D01*
X34694285Y46118096D01*
X34741904Y46022858D01*
X34789523Y45975239D01*
X34884761Y45927620D01*
X35075238Y45927620D01*
X35170476Y45975239D01*
X35218095Y46022858D01*
X35265714Y46118096D01*
X35265714Y46308572D01*
X35218095Y46403810D01*
X35170476Y46451429D01*
X35075238Y46499048D01*
X42673333Y23802858D02*
X42625714Y23755239D01*
X42482857Y23707620D01*
X42387619Y23707620D01*
X42244761Y23755239D01*
X42149523Y23850477D01*
X42101904Y23945715D01*
X42054285Y24136191D01*
X42054285Y24279048D01*
X42101904Y24469524D01*
X42149523Y24564762D01*
X42244761Y24660000D01*
X42387619Y24707620D01*
X42482857Y24707620D01*
X42625714Y24660000D01*
X42673333Y24612381D01*
X43149523Y23707620D02*
X43340000Y23707620D01*
X43435238Y23755239D01*
X43482857Y23802858D01*
X43578095Y23945715D01*
X43625714Y24136191D01*
X43625714Y24517143D01*
X43578095Y24612381D01*
X43530476Y24660000D01*
X43435238Y24707620D01*
X43244761Y24707620D01*
X43149523Y24660000D01*
X43101904Y24612381D01*
X43054285Y24517143D01*
X43054285Y24279048D01*
X43101904Y24183810D01*
X43149523Y24136191D01*
X43244761Y24088572D01*
X43435238Y24088572D01*
X43530476Y24136191D01*
X43578095Y24183810D01*
X43625714Y24279048D01*
X62367142Y57892858D02*
X62319523Y57845239D01*
X62176666Y57797620D01*
X62081428Y57797620D01*
X61938571Y57845239D01*
X61843333Y57940477D01*
X61795714Y58035715D01*
X61748095Y58226191D01*
X61748095Y58369048D01*
X61795714Y58559524D01*
X61843333Y58654762D01*
X61938571Y58750000D01*
X62081428Y58797620D01*
X62176666Y58797620D01*
X62319523Y58750000D01*
X62367142Y58702381D01*
X63319523Y57797620D02*
X62748095Y57797620D01*
X63033809Y57797620D02*
X63033809Y58797620D01*
X62938571Y58654762D01*
X62843333Y58559524D01*
X62748095Y58511905D01*
X63938571Y58797620D02*
X64033809Y58797620D01*
X64129047Y58750000D01*
X64176666Y58702381D01*
X64224285Y58607143D01*
X64271904Y58416667D01*
X64271904Y58178572D01*
X64224285Y57988096D01*
X64176666Y57892858D01*
X64129047Y57845239D01*
X64033809Y57797620D01*
X63938571Y57797620D01*
X63843333Y57845239D01*
X63795714Y57892858D01*
X63748095Y57988096D01*
X63700476Y58178572D01*
X63700476Y58416667D01*
X63748095Y58607143D01*
X63795714Y58702381D01*
X63843333Y58750000D01*
X63938571Y58797620D01*
X84857142Y45642858D02*
X84809523Y45595239D01*
X84666666Y45547620D01*
X84571428Y45547620D01*
X84428571Y45595239D01*
X84333333Y45690477D01*
X84285714Y45785715D01*
X84238095Y45976191D01*
X84238095Y46119048D01*
X84285714Y46309524D01*
X84333333Y46404762D01*
X84428571Y46500000D01*
X84571428Y46547620D01*
X84666666Y46547620D01*
X84809523Y46500000D01*
X84857142Y46452381D01*
X85809523Y45547620D02*
X85238095Y45547620D01*
X85523809Y45547620D02*
X85523809Y46547620D01*
X85428571Y46404762D01*
X85333333Y46309524D01*
X85238095Y46261905D01*
X86761904Y45547620D02*
X86190476Y45547620D01*
X86476190Y45547620D02*
X86476190Y46547620D01*
X86380952Y46404762D01*
X86285714Y46309524D01*
X86190476Y46261905D01*
X84807142Y57272858D02*
X84759523Y57225239D01*
X84616666Y57177620D01*
X84521428Y57177620D01*
X84378571Y57225239D01*
X84283333Y57320477D01*
X84235714Y57415715D01*
X84188095Y57606191D01*
X84188095Y57749048D01*
X84235714Y57939524D01*
X84283333Y58034762D01*
X84378571Y58130000D01*
X84521428Y58177620D01*
X84616666Y58177620D01*
X84759523Y58130000D01*
X84807142Y58082381D01*
X85759523Y57177620D02*
X85188095Y57177620D01*
X85473809Y57177620D02*
X85473809Y58177620D01*
X85378571Y58034762D01*
X85283333Y57939524D01*
X85188095Y57891905D01*
X86140476Y58082381D02*
X86188095Y58130000D01*
X86283333Y58177620D01*
X86521428Y58177620D01*
X86616666Y58130000D01*
X86664285Y58082381D01*
X86711904Y57987143D01*
X86711904Y57891905D01*
X86664285Y57749048D01*
X86092857Y57177620D01*
X86711904Y57177620D01*
X80976666Y19717620D02*
X80976666Y19003334D01*
X80929047Y18860477D01*
X80833809Y18765239D01*
X80690952Y18717620D01*
X80595714Y18717620D01*
X81976666Y18717620D02*
X81405238Y18717620D01*
X81690952Y18717620D02*
X81690952Y19717620D01*
X81595714Y19574762D01*
X81500476Y19479524D01*
X81405238Y19431905D01*
X21956666Y71617620D02*
X21956666Y70903334D01*
X21909047Y70760477D01*
X21813809Y70665239D01*
X21670952Y70617620D01*
X21575714Y70617620D01*
X22385238Y71522381D02*
X22432857Y71570000D01*
X22528095Y71617620D01*
X22766190Y71617620D01*
X22861428Y71570000D01*
X22909047Y71522381D01*
X22956666Y71427143D01*
X22956666Y71331905D01*
X22909047Y71189048D01*
X22337619Y70617620D01*
X22956666Y70617620D01*
X74244761Y17342381D02*
X74149523Y17390000D01*
X74054285Y17485239D01*
X73911428Y17628096D01*
X73816190Y17675715D01*
X73720952Y17675715D01*
X73768571Y17437620D02*
X73673333Y17485239D01*
X73578095Y17580477D01*
X73530476Y17770953D01*
X73530476Y18104286D01*
X73578095Y18294762D01*
X73673333Y18390000D01*
X73768571Y18437620D01*
X73959047Y18437620D01*
X74054285Y18390000D01*
X74149523Y18294762D01*
X74197142Y18104286D01*
X74197142Y17770953D01*
X74149523Y17580477D01*
X74054285Y17485239D01*
X73959047Y17437620D01*
X73768571Y17437620D01*
X75149523Y17437620D02*
X74578095Y17437620D01*
X74863809Y17437620D02*
X74863809Y18437620D01*
X74768571Y18294762D01*
X74673333Y18199524D01*
X74578095Y18151905D01*
X66194761Y17572381D02*
X66099523Y17620000D01*
X66004285Y17715239D01*
X65861428Y17858096D01*
X65766190Y17905715D01*
X65670952Y17905715D01*
X65718571Y17667620D02*
X65623333Y17715239D01*
X65528095Y17810477D01*
X65480476Y18000953D01*
X65480476Y18334286D01*
X65528095Y18524762D01*
X65623333Y18620000D01*
X65718571Y18667620D01*
X65909047Y18667620D01*
X66004285Y18620000D01*
X66099523Y18524762D01*
X66147142Y18334286D01*
X66147142Y18000953D01*
X66099523Y17810477D01*
X66004285Y17715239D01*
X65909047Y17667620D01*
X65718571Y17667620D01*
X66528095Y18572381D02*
X66575714Y18620000D01*
X66670952Y18667620D01*
X66909047Y18667620D01*
X67004285Y18620000D01*
X67051904Y18572381D01*
X67099523Y18477143D01*
X67099523Y18381905D01*
X67051904Y18239048D01*
X66480476Y17667620D01*
X67099523Y17667620D01*
X89843333Y36747620D02*
X89510000Y37223810D01*
X89271904Y36747620D02*
X89271904Y37747620D01*
X89652857Y37747620D01*
X89748095Y37700000D01*
X89795714Y37652381D01*
X89843333Y37557143D01*
X89843333Y37414286D01*
X89795714Y37319048D01*
X89748095Y37271429D01*
X89652857Y37223810D01*
X89271904Y37223810D01*
X90795714Y36747620D02*
X90224285Y36747620D01*
X90510000Y36747620D02*
X90510000Y37747620D01*
X90414761Y37604762D01*
X90319523Y37509524D01*
X90224285Y37461905D01*
X91683333Y25117620D02*
X91350000Y25593810D01*
X91111904Y25117620D02*
X91111904Y26117620D01*
X91492857Y26117620D01*
X91588095Y26070000D01*
X91635714Y26022381D01*
X91683333Y25927143D01*
X91683333Y25784286D01*
X91635714Y25689048D01*
X91588095Y25641429D01*
X91492857Y25593810D01*
X91111904Y25593810D01*
X92064285Y26022381D02*
X92111904Y26070000D01*
X92207142Y26117620D01*
X92445238Y26117620D01*
X92540476Y26070000D01*
X92588095Y26022381D01*
X92635714Y25927143D01*
X92635714Y25831905D01*
X92588095Y25689048D01*
X92016666Y25117620D01*
X92635714Y25117620D01*
X69043333Y9737620D02*
X68710000Y10213810D01*
X68471904Y9737620D02*
X68471904Y10737620D01*
X68852857Y10737620D01*
X68948095Y10690000D01*
X68995714Y10642381D01*
X69043333Y10547143D01*
X69043333Y10404286D01*
X68995714Y10309048D01*
X68948095Y10261429D01*
X68852857Y10213810D01*
X68471904Y10213810D01*
X69376666Y10737620D02*
X69995714Y10737620D01*
X69662380Y10356667D01*
X69805238Y10356667D01*
X69900476Y10309048D01*
X69948095Y10261429D01*
X69995714Y10166191D01*
X69995714Y9928096D01*
X69948095Y9832858D01*
X69900476Y9785239D01*
X69805238Y9737620D01*
X69519523Y9737620D01*
X69424285Y9785239D01*
X69376666Y9832858D01*
X69213333Y6227620D02*
X68880000Y6703810D01*
X68641904Y6227620D02*
X68641904Y7227620D01*
X69022857Y7227620D01*
X69118095Y7180000D01*
X69165714Y7132381D01*
X69213333Y7037143D01*
X69213333Y6894286D01*
X69165714Y6799048D01*
X69118095Y6751429D01*
X69022857Y6703810D01*
X68641904Y6703810D01*
X70070476Y6894286D02*
X70070476Y6227620D01*
X69832380Y7275239D02*
X69594285Y6560953D01*
X70213333Y6560953D01*
X82463333Y6117620D02*
X82130000Y6593810D01*
X81891904Y6117620D02*
X81891904Y7117620D01*
X82272857Y7117620D01*
X82368095Y7070000D01*
X82415714Y7022381D01*
X82463333Y6927143D01*
X82463333Y6784286D01*
X82415714Y6689048D01*
X82368095Y6641429D01*
X82272857Y6593810D01*
X81891904Y6593810D01*
X83368095Y7117620D02*
X82891904Y7117620D01*
X82844285Y6641429D01*
X82891904Y6689048D01*
X82987142Y6736667D01*
X83225238Y6736667D01*
X83320476Y6689048D01*
X83368095Y6641429D01*
X83415714Y6546191D01*
X83415714Y6308096D01*
X83368095Y6212858D01*
X83320476Y6165239D01*
X83225238Y6117620D01*
X82987142Y6117620D01*
X82891904Y6165239D01*
X82844285Y6212858D01*
X69083333Y2577620D02*
X68750000Y3053810D01*
X68511904Y2577620D02*
X68511904Y3577620D01*
X68892857Y3577620D01*
X68988095Y3530000D01*
X69035714Y3482381D01*
X69083333Y3387143D01*
X69083333Y3244286D01*
X69035714Y3149048D01*
X68988095Y3101429D01*
X68892857Y3053810D01*
X68511904Y3053810D01*
X69940476Y3577620D02*
X69750000Y3577620D01*
X69654761Y3530000D01*
X69607142Y3482381D01*
X69511904Y3339524D01*
X69464285Y3149048D01*
X69464285Y2768096D01*
X69511904Y2672858D01*
X69559523Y2625239D01*
X69654761Y2577620D01*
X69845238Y2577620D01*
X69940476Y2625239D01*
X69988095Y2672858D01*
X70035714Y2768096D01*
X70035714Y3006191D01*
X69988095Y3101429D01*
X69940476Y3149048D01*
X69845238Y3196667D01*
X69654761Y3196667D01*
X69559523Y3149048D01*
X69511904Y3101429D01*
X69464285Y3006191D01*
X82503333Y2567620D02*
X82170000Y3043810D01*
X81931904Y2567620D02*
X81931904Y3567620D01*
X82312857Y3567620D01*
X82408095Y3520000D01*
X82455714Y3472381D01*
X82503333Y3377143D01*
X82503333Y3234286D01*
X82455714Y3139048D01*
X82408095Y3091429D01*
X82312857Y3043810D01*
X81931904Y3043810D01*
X82836666Y3567620D02*
X83503333Y3567620D01*
X83074761Y2567620D01*
X91872380Y47053334D02*
X91396190Y46720000D01*
X91872380Y46481905D02*
X90872380Y46481905D01*
X90872380Y46862858D01*
X90920000Y46958096D01*
X90967619Y47005715D01*
X91062857Y47053334D01*
X91205714Y47053334D01*
X91300952Y47005715D01*
X91348571Y46958096D01*
X91396190Y46862858D01*
X91396190Y46481905D01*
X91300952Y47624762D02*
X91253333Y47529524D01*
X91205714Y47481905D01*
X91110476Y47434286D01*
X91062857Y47434286D01*
X90967619Y47481905D01*
X90920000Y47529524D01*
X90872380Y47624762D01*
X90872380Y47815239D01*
X90920000Y47910477D01*
X90967619Y47958096D01*
X91062857Y48005715D01*
X91110476Y48005715D01*
X91205714Y47958096D01*
X91253333Y47910477D01*
X91300952Y47815239D01*
X91300952Y47624762D01*
X91348571Y47529524D01*
X91396190Y47481905D01*
X91491428Y47434286D01*
X91681904Y47434286D01*
X91777142Y47481905D01*
X91824761Y47529524D01*
X91872380Y47624762D01*
X91872380Y47815239D01*
X91824761Y47910477D01*
X91777142Y47958096D01*
X91681904Y48005715D01*
X91491428Y48005715D01*
X91396190Y47958096D01*
X91348571Y47910477D01*
X91300952Y47815239D01*
X95772380Y46973334D02*
X95296190Y46640000D01*
X95772380Y46401905D02*
X94772380Y46401905D01*
X94772380Y46782858D01*
X94820000Y46878096D01*
X94867619Y46925715D01*
X94962857Y46973334D01*
X95105714Y46973334D01*
X95200952Y46925715D01*
X95248571Y46878096D01*
X95296190Y46782858D01*
X95296190Y46401905D01*
X95772380Y47449524D02*
X95772380Y47640000D01*
X95724761Y47735239D01*
X95677142Y47782858D01*
X95534285Y47878096D01*
X95343809Y47925715D01*
X94962857Y47925715D01*
X94867619Y47878096D01*
X94820000Y47830477D01*
X94772380Y47735239D01*
X94772380Y47544762D01*
X94820000Y47449524D01*
X94867619Y47401905D01*
X94962857Y47354286D01*
X95200952Y47354286D01*
X95296190Y47401905D01*
X95343809Y47449524D01*
X95391428Y47544762D01*
X95391428Y47735239D01*
X95343809Y47830477D01*
X95296190Y47878096D01*
X95200952Y47925715D01*
X59098095Y22107620D02*
X59098095Y21298096D01*
X59145714Y21202858D01*
X59193333Y21155239D01*
X59288571Y21107620D01*
X59479047Y21107620D01*
X59574285Y21155239D01*
X59621904Y21202858D01*
X59669523Y21298096D01*
X59669523Y22107620D01*
X60669523Y21107620D02*
X60098095Y21107620D01*
X60383809Y21107620D02*
X60383809Y22107620D01*
X60288571Y21964762D01*
X60193333Y21869524D01*
X60098095Y21821905D01*
X84198095Y39477620D02*
X84198095Y38668096D01*
X84245714Y38572858D01*
X84293333Y38525239D01*
X84388571Y38477620D01*
X84579047Y38477620D01*
X84674285Y38525239D01*
X84721904Y38572858D01*
X84769523Y38668096D01*
X84769523Y39477620D01*
X85198095Y39382381D02*
X85245714Y39430000D01*
X85340952Y39477620D01*
X85579047Y39477620D01*
X85674285Y39430000D01*
X85721904Y39382381D01*
X85769523Y39287143D01*
X85769523Y39191905D01*
X85721904Y39049048D01*
X85150476Y38477620D01*
X85769523Y38477620D01*
X83653095Y50687620D02*
X83653095Y49878096D01*
X83700714Y49782858D01*
X83748333Y49735239D01*
X83843571Y49687620D01*
X84034047Y49687620D01*
X84129285Y49735239D01*
X84176904Y49782858D01*
X84224523Y49878096D01*
X84224523Y50687620D01*
X84605476Y50687620D02*
X85224523Y50687620D01*
X84891190Y50306667D01*
X85034047Y50306667D01*
X85129285Y50259048D01*
X85176904Y50211429D01*
X85224523Y50116191D01*
X85224523Y49878096D01*
X85176904Y49782858D01*
X85129285Y49735239D01*
X85034047Y49687620D01*
X84748333Y49687620D01*
X84653095Y49735239D01*
X84605476Y49782858D01*
X62238095Y51047620D02*
X62238095Y50238096D01*
X62285714Y50142858D01*
X62333333Y50095239D01*
X62428571Y50047620D01*
X62619047Y50047620D01*
X62714285Y50095239D01*
X62761904Y50142858D01*
X62809523Y50238096D01*
X62809523Y51047620D01*
X63714285Y50714286D02*
X63714285Y50047620D01*
X63476190Y51095239D02*
X63238095Y50380953D01*
X63857142Y50380953D01*
X83708095Y62257620D02*
X83708095Y61448096D01*
X83755714Y61352858D01*
X83803333Y61305239D01*
X83898571Y61257620D01*
X84089047Y61257620D01*
X84184285Y61305239D01*
X84231904Y61352858D01*
X84279523Y61448096D01*
X84279523Y62257620D01*
X85231904Y62257620D02*
X84755714Y62257620D01*
X84708095Y61781429D01*
X84755714Y61829048D01*
X84850952Y61876667D01*
X85089047Y61876667D01*
X85184285Y61829048D01*
X85231904Y61781429D01*
X85279523Y61686191D01*
X85279523Y61448096D01*
X85231904Y61352858D01*
X85184285Y61305239D01*
X85089047Y61257620D01*
X84850952Y61257620D01*
X84755714Y61305239D01*
X84708095Y61352858D01*
X33238095Y62547620D02*
X33238095Y61738096D01*
X33285714Y61642858D01*
X33333333Y61595239D01*
X33428571Y61547620D01*
X33619047Y61547620D01*
X33714285Y61595239D01*
X33761904Y61642858D01*
X33809523Y61738096D01*
X33809523Y62547620D01*
X34714285Y62547620D02*
X34523809Y62547620D01*
X34428571Y62500000D01*
X34380952Y62452381D01*
X34285714Y62309524D01*
X34238095Y62119048D01*
X34238095Y61738096D01*
X34285714Y61642858D01*
X34333333Y61595239D01*
X34428571Y61547620D01*
X34619047Y61547620D01*
X34714285Y61595239D01*
X34761904Y61642858D01*
X34809523Y61738096D01*
X34809523Y61976191D01*
X34761904Y62071429D01*
X34714285Y62119048D01*
X34619047Y62166667D01*
X34428571Y62166667D01*
X34333333Y62119048D01*
X34285714Y62071429D01*
X34238095Y61976191D01*
X33238095Y51047620D02*
X33238095Y50238096D01*
X33285714Y50142858D01*
X33333333Y50095239D01*
X33428571Y50047620D01*
X33619047Y50047620D01*
X33714285Y50095239D01*
X33761904Y50142858D01*
X33809523Y50238096D01*
X33809523Y51047620D01*
X34190476Y51047620D02*
X34857142Y51047620D01*
X34428571Y50047620D01*
X38918095Y28157620D02*
X38918095Y27348096D01*
X38965714Y27252858D01*
X39013333Y27205239D01*
X39108571Y27157620D01*
X39299047Y27157620D01*
X39394285Y27205239D01*
X39441904Y27252858D01*
X39489523Y27348096D01*
X39489523Y28157620D01*
X40108571Y27729048D02*
X40013333Y27776667D01*
X39965714Y27824286D01*
X39918095Y27919524D01*
X39918095Y27967143D01*
X39965714Y28062381D01*
X40013333Y28110000D01*
X40108571Y28157620D01*
X40299047Y28157620D01*
X40394285Y28110000D01*
X40441904Y28062381D01*
X40489523Y27967143D01*
X40489523Y27919524D01*
X40441904Y27824286D01*
X40394285Y27776667D01*
X40299047Y27729048D01*
X40108571Y27729048D01*
X40013333Y27681429D01*
X39965714Y27633810D01*
X39918095Y27538572D01*
X39918095Y27348096D01*
X39965714Y27252858D01*
X40013333Y27205239D01*
X40108571Y27157620D01*
X40299047Y27157620D01*
X40394285Y27205239D01*
X40441904Y27252858D01*
X40489523Y27348096D01*
X40489523Y27538572D01*
X40441904Y27633810D01*
X40394285Y27681429D01*
X40299047Y27729048D01*
X61738095Y62547620D02*
X61738095Y61738096D01*
X61785714Y61642858D01*
X61833333Y61595239D01*
X61928571Y61547620D01*
X62119047Y61547620D01*
X62214285Y61595239D01*
X62261904Y61642858D01*
X62309523Y61738096D01*
X62309523Y62547620D01*
X62833333Y61547620D02*
X63023809Y61547620D01*
X63119047Y61595239D01*
X63166666Y61642858D01*
X63261904Y61785715D01*
X63309523Y61976191D01*
X63309523Y62357143D01*
X63261904Y62452381D01*
X63214285Y62500000D01*
X63119047Y62547620D01*
X62928571Y62547620D01*
X62833333Y62500000D01*
X62785714Y62452381D01*
X62738095Y62357143D01*
X62738095Y62119048D01*
X62785714Y62023810D01*
X62833333Y61976191D01*
X62928571Y61928572D01*
X63119047Y61928572D01*
X63214285Y61976191D01*
X63261904Y62023810D01*
X63309523Y62119048D01*
X91713809Y33733810D02*
X91713809Y33257620D01*
X91380476Y34257620D02*
X91713809Y33733810D01*
X92047142Y34257620D01*
X92904285Y33257620D02*
X92332857Y33257620D01*
X92618571Y33257620D02*
X92618571Y34257620D01*
X92523333Y34114762D01*
X92428095Y34019524D01*
X92332857Y33971905D01*
X62807142Y34352858D02*
X62759523Y34305239D01*
X62616666Y34257620D01*
X62521428Y34257620D01*
X62378571Y34305239D01*
X62283333Y34400477D01*
X62235714Y34495715D01*
X62188095Y34686191D01*
X62188095Y34829048D01*
X62235714Y35019524D01*
X62283333Y35114762D01*
X62378571Y35210000D01*
X62521428Y35257620D01*
X62616666Y35257620D01*
X62759523Y35210000D01*
X62807142Y35162381D01*
X63759523Y34257620D02*
X63188095Y34257620D01*
X63473809Y34257620D02*
X63473809Y35257620D01*
X63378571Y35114762D01*
X63283333Y35019524D01*
X63188095Y34971905D01*
X64092857Y35257620D02*
X64711904Y35257620D01*
X64378571Y34876667D01*
X64521428Y34876667D01*
X64616666Y34829048D01*
X64664285Y34781429D01*
X64711904Y34686191D01*
X64711904Y34448096D01*
X64664285Y34352858D01*
X64616666Y34305239D01*
X64521428Y34257620D01*
X64235714Y34257620D01*
X64140476Y34305239D01*
X64092857Y34352858D01*
X60971904Y39407620D02*
X60971904Y38598096D01*
X61019523Y38502858D01*
X61067142Y38455239D01*
X61162380Y38407620D01*
X61352857Y38407620D01*
X61448095Y38455239D01*
X61495714Y38502858D01*
X61543333Y38598096D01*
X61543333Y39407620D01*
X62543333Y38407620D02*
X61971904Y38407620D01*
X62257619Y38407620D02*
X62257619Y39407620D01*
X62162380Y39264762D01*
X62067142Y39169524D01*
X61971904Y39121905D01*
X63162380Y39407620D02*
X63257619Y39407620D01*
X63352857Y39360000D01*
X63400476Y39312381D01*
X63448095Y39217143D01*
X63495714Y39026667D01*
X63495714Y38788572D01*
X63448095Y38598096D01*
X63400476Y38502858D01*
X63352857Y38455239D01*
X63257619Y38407620D01*
X63162380Y38407620D01*
X63067142Y38455239D01*
X63019523Y38502858D01*
X62971904Y38598096D01*
X62924285Y38788572D01*
X62924285Y39026667D01*
X62971904Y39217143D01*
X63019523Y39312381D01*
X63067142Y39360000D01*
X63162380Y39407620D01*
X91111904Y22117620D02*
X91111904Y23117620D01*
X91350000Y23117620D01*
X91492857Y23070000D01*
X91588095Y22974762D01*
X91635714Y22879524D01*
X91683333Y22689048D01*
X91683333Y22546191D01*
X91635714Y22355715D01*
X91588095Y22260477D01*
X91492857Y22165239D01*
X91350000Y22117620D01*
X91111904Y22117620D01*
X92016666Y23117620D02*
X92635714Y23117620D01*
X92302380Y22736667D01*
X92445238Y22736667D01*
X92540476Y22689048D01*
X92588095Y22641429D01*
X92635714Y22546191D01*
X92635714Y22308096D01*
X92588095Y22212858D01*
X92540476Y22165239D01*
X92445238Y22117620D01*
X92159523Y22117620D01*
X92064285Y22165239D01*
X92016666Y22212858D01*
X84418095Y21947620D02*
X84418095Y22947620D01*
X84989523Y21947620D02*
X84560952Y22519048D01*
X84989523Y22947620D02*
X84418095Y22376191D01*
X92076904Y59727620D02*
X92076904Y60727620D01*
X92315000Y60727620D01*
X92457857Y60680000D01*
X92553095Y60584762D01*
X92600714Y60489524D01*
X92648333Y60299048D01*
X92648333Y60156191D01*
X92600714Y59965715D01*
X92553095Y59870477D01*
X92457857Y59775239D01*
X92315000Y59727620D01*
X92076904Y59727620D01*
X93029285Y60632381D02*
X93076904Y60680000D01*
X93172142Y60727620D01*
X93410238Y60727620D01*
X93505476Y60680000D01*
X93553095Y60632381D01*
X93600714Y60537143D01*
X93600714Y60441905D01*
X93553095Y60299048D01*
X92981666Y59727620D01*
X93600714Y59727620D01*
X92076904Y65727620D02*
X92076904Y66727620D01*
X92315000Y66727620D01*
X92457857Y66680000D01*
X92553095Y66584762D01*
X92600714Y66489524D01*
X92648333Y66299048D01*
X92648333Y66156191D01*
X92600714Y65965715D01*
X92553095Y65870477D01*
X92457857Y65775239D01*
X92315000Y65727620D01*
X92076904Y65727620D01*
X93600714Y65727620D02*
X93029285Y65727620D01*
X93315000Y65727620D02*
X93315000Y66727620D01*
X93219761Y66584762D01*
X93124523Y66489524D01*
X93029285Y66441905D01*
X68919761Y19182620D02*
X68586428Y19658810D01*
X68348333Y19182620D02*
X68348333Y20182620D01*
X68729285Y20182620D01*
X68824523Y20135000D01*
X68872142Y20087381D01*
X68919761Y19992143D01*
X68919761Y19849286D01*
X68872142Y19754048D01*
X68824523Y19706429D01*
X68729285Y19658810D01*
X68348333Y19658810D01*
X69205476Y20182620D02*
X69538809Y19182620D01*
X69872142Y20182620D01*
X70729285Y19182620D02*
X70157857Y19182620D01*
X70443571Y19182620D02*
X70443571Y20182620D01*
X70348333Y20039762D01*
X70253095Y19944524D01*
X70157857Y19896905D01*
D13*
X21320000Y12439000D02*
X21320000Y11181000D01*
X19480000Y12439000D02*
X19480000Y11181000D01*
X89159000Y28220000D02*
X87901000Y28220000D01*
X89159000Y30060000D02*
X87901000Y30060000D01*
X93181000Y28310000D02*
X94439000Y28310000D01*
X93181000Y30150000D02*
X94439000Y30150000D01*
X77141000Y26150000D02*
X78399000Y26150000D01*
X77141000Y27990000D02*
X78399000Y27990000D01*
X64260000Y42411000D02*
X64260000Y43669000D01*
X62420000Y42411000D02*
X62420000Y43669000D01*
X64900000Y24701000D02*
X64900000Y25959000D01*
X63060000Y24701000D02*
X63060000Y25959000D01*
X33540000Y53871000D02*
X33540000Y55129000D01*
X35380000Y53871000D02*
X35380000Y55129000D01*
X33580000Y42481000D02*
X33580000Y43739000D01*
X35420000Y42481000D02*
X35420000Y43739000D01*
X39500000Y23391000D02*
X39500000Y24649000D01*
X41340000Y23391000D02*
X41340000Y24649000D01*
X62090000Y53871000D02*
X62090000Y55129000D01*
X63930000Y53871000D02*
X63930000Y55129000D01*
X85880000Y42211000D02*
X85880000Y43469000D01*
X84040000Y42211000D02*
X84040000Y43469000D01*
X83950000Y53501000D02*
X83950000Y54759000D01*
X85790000Y53501000D02*
X85790000Y54759000D01*
D12*
X90580000Y19840000D02*
X82580000Y19840000D01*
X102080000Y18990000D02*
X93130000Y18990000D01*
X102080000Y18990000D02*
X102080000Y10690000D01*
X82580000Y13840000D02*
X82580000Y9840000D01*
X82580000Y19840000D02*
X82580000Y15840000D01*
X102080000Y10690000D02*
X93080000Y10690000D01*
X92580000Y17840000D02*
X92580000Y11840000D01*
X90580000Y9840000D02*
X82580000Y9840000D01*
D13*
X51020000Y78140000D02*
X51780000Y78140000D01*
X61180000Y72140000D02*
X61180000Y78140000D01*
X66260000Y72140000D02*
X66260000Y78140000D01*
X58640000Y66542929D02*
X58640000Y66997071D01*
X33240000Y78140000D02*
X34000000Y78140000D01*
X59400000Y78140000D02*
X59400000Y72140000D01*
X41620000Y66542929D02*
X41620000Y66997071D01*
X40860000Y66542929D02*
X40860000Y66997071D01*
X62830000Y69480000D02*
X62830000Y72140000D01*
X56100000Y66542929D02*
X56100000Y66997071D01*
X59400000Y69082929D02*
X59400000Y69480000D01*
X51020000Y69082929D02*
X51020000Y69480000D01*
X26160000Y72140000D02*
X26160000Y78140000D01*
X63720000Y66542929D02*
X63720000Y66997071D01*
X63720000Y78140000D02*
X64480000Y78140000D01*
X35780000Y72140000D02*
X35780000Y78140000D01*
X56100000Y78140000D02*
X56860000Y78140000D01*
X74640000Y78140000D02*
X74640000Y72140000D01*
X66260000Y69082929D02*
X66260000Y69480000D01*
X44160000Y78140000D02*
X44160000Y72140000D01*
X33240000Y72140000D02*
X33240000Y78140000D01*
X33240000Y69082929D02*
X33240000Y69480000D01*
X67910000Y69480000D02*
X67910000Y72140000D01*
X34000000Y66542929D02*
X34000000Y66997071D01*
X45940000Y72140000D02*
X45940000Y78140000D01*
X49240000Y78140000D02*
X49240000Y72140000D01*
X48480000Y66542929D02*
X48480000Y66997071D01*
X51020000Y66542929D02*
X51020000Y66997071D01*
X45940000Y69082929D02*
X45940000Y69480000D01*
X26280000Y72140000D02*
X26280000Y78140000D01*
X43400000Y72140000D02*
X43400000Y78140000D01*
X68800000Y69082929D02*
X68800000Y69480000D01*
X36540000Y78140000D02*
X36540000Y72140000D01*
X52670000Y69480000D02*
X52670000Y72140000D01*
X26040000Y72140000D02*
X26040000Y78140000D01*
X75590000Y72140000D02*
X24670000Y72140000D01*
X71340000Y78140000D02*
X72100000Y78140000D01*
X63720000Y69082929D02*
X63720000Y69480000D01*
X54320000Y66542929D02*
X54320000Y66997071D01*
X25620000Y72140000D02*
X25620000Y78140000D01*
X61940000Y66542929D02*
X61940000Y66997071D01*
X59400000Y66542929D02*
X59400000Y66997071D01*
X56100000Y69082929D02*
X56100000Y69480000D01*
X56860000Y78140000D02*
X56860000Y72140000D01*
X43400000Y69082929D02*
X43400000Y69480000D01*
X69560000Y78140000D02*
X69560000Y72140000D01*
X70450000Y69480000D02*
X70450000Y72140000D01*
X49240000Y66542929D02*
X49240000Y66997071D01*
X35780000Y66542929D02*
X35780000Y66997071D01*
X39080000Y66542929D02*
X39080000Y66997071D01*
X51780000Y66542929D02*
X51780000Y66997071D01*
X36540000Y69082929D02*
X36540000Y69480000D01*
X58640000Y69082929D02*
X58640000Y69480000D01*
X57750000Y69480000D02*
X57750000Y72140000D01*
X56100000Y72140000D02*
X56100000Y78140000D01*
X25680000Y72140000D02*
X25680000Y78140000D01*
X40860000Y69082929D02*
X40860000Y69480000D01*
X72100000Y78140000D02*
X72100000Y72140000D01*
X50130000Y69480000D02*
X50130000Y72140000D01*
X60290000Y69480000D02*
X60290000Y72140000D01*
X39970000Y69480000D02*
X39970000Y72140000D01*
X31460000Y69082929D02*
X31460000Y69480000D01*
X25800000Y72140000D02*
X25800000Y78140000D01*
X48480000Y69082929D02*
X48480000Y69480000D01*
X28920000Y78140000D02*
X28920000Y72140000D01*
X69560000Y66542929D02*
X69560000Y66997071D01*
X48480000Y72140000D02*
X48480000Y78140000D01*
X29810000Y69480000D02*
X29810000Y72140000D01*
X48480000Y78140000D02*
X49240000Y78140000D01*
X64480000Y78140000D02*
X64480000Y72140000D01*
X58640000Y78140000D02*
X59400000Y78140000D01*
X33240000Y66542929D02*
X33240000Y66997071D01*
X44160000Y66542929D02*
X44160000Y66997071D01*
X72990000Y69480000D02*
X72990000Y72140000D01*
X74640000Y66542929D02*
X74640000Y66997071D01*
X39080000Y78140000D02*
X39080000Y72140000D01*
X56860000Y66542929D02*
X56860000Y66997071D01*
X43400000Y66542929D02*
X43400000Y66997071D01*
X43400000Y78140000D02*
X44160000Y78140000D01*
X40860000Y72140000D02*
X40860000Y78140000D01*
X54320000Y78140000D02*
X54320000Y72140000D01*
X26380000Y69082929D02*
X26380000Y69480000D01*
X69560000Y69082929D02*
X69560000Y69480000D01*
X61940000Y69082929D02*
X61940000Y69480000D01*
X72100000Y69082929D02*
X72100000Y69480000D01*
X25620000Y69082929D02*
X25620000Y69480000D01*
X67020000Y66542929D02*
X67020000Y66997071D01*
X38320000Y69082929D02*
X38320000Y69480000D01*
X53560000Y78140000D02*
X54320000Y78140000D01*
X71340000Y72140000D02*
X71340000Y78140000D01*
X74640000Y69082929D02*
X74640000Y69480000D01*
X28920000Y66542929D02*
X28920000Y66997071D01*
X28160000Y78140000D02*
X28920000Y78140000D01*
X41620000Y78140000D02*
X41620000Y72140000D01*
X34890000Y69480000D02*
X34890000Y72140000D01*
X45940000Y66542929D02*
X45940000Y66997071D01*
X71340000Y69082929D02*
X71340000Y69480000D01*
X37430000Y69480000D02*
X37430000Y72140000D01*
X63720000Y72140000D02*
X63720000Y78140000D01*
X28160000Y66542929D02*
X28160000Y66997071D01*
X24670000Y69480000D02*
X75590000Y69480000D01*
X73880000Y69082929D02*
X73880000Y69480000D01*
X32350000Y69480000D02*
X32350000Y72140000D01*
X45050000Y69480000D02*
X45050000Y72140000D01*
X28920000Y69082929D02*
X28920000Y69480000D01*
X25620000Y66610000D02*
X25620000Y66997071D01*
X73880000Y78140000D02*
X74640000Y78140000D01*
X38320000Y78140000D02*
X39080000Y78140000D01*
X46700000Y78140000D02*
X46700000Y72140000D01*
X46700000Y69082929D02*
X46700000Y69480000D01*
X35780000Y78140000D02*
X36540000Y78140000D01*
X47590000Y69480000D02*
X47590000Y72140000D01*
X25920000Y72140000D02*
X25920000Y78140000D01*
X40860000Y78140000D02*
X41620000Y78140000D01*
X24670000Y72140000D02*
X24670000Y69480000D01*
X73880000Y72140000D02*
X73880000Y78140000D01*
X38320000Y66542929D02*
X38320000Y66997071D01*
X61940000Y78140000D02*
X61940000Y72140000D01*
X66260000Y78140000D02*
X67020000Y78140000D01*
X67020000Y78140000D02*
X67020000Y72140000D01*
X36540000Y66542929D02*
X36540000Y66997071D01*
X64480000Y66542929D02*
X64480000Y66997071D01*
X53560000Y72140000D02*
X53560000Y78140000D01*
X64480000Y69082929D02*
X64480000Y69480000D01*
X49240000Y69082929D02*
X49240000Y69480000D01*
X67020000Y69082929D02*
X67020000Y69480000D01*
X28160000Y69082929D02*
X28160000Y69480000D01*
X38320000Y72140000D02*
X38320000Y78140000D01*
X75590000Y69480000D02*
X75590000Y72140000D01*
X30700000Y78140000D02*
X31460000Y78140000D01*
X27270000Y69480000D02*
X27270000Y72140000D01*
X53560000Y69082929D02*
X53560000Y69480000D01*
X68800000Y66542929D02*
X68800000Y66997071D01*
X61180000Y69082929D02*
X61180000Y69480000D01*
X54320000Y69082929D02*
X54320000Y69480000D01*
X35780000Y69082929D02*
X35780000Y69480000D01*
X26380000Y66610000D02*
X26380000Y66997071D01*
X34000000Y69082929D02*
X34000000Y69480000D01*
X31460000Y66542929D02*
X31460000Y66997071D01*
X58640000Y72140000D02*
X58640000Y78140000D01*
X51780000Y69082929D02*
X51780000Y69480000D01*
X42510000Y69480000D02*
X42510000Y72140000D01*
X34000000Y78140000D02*
X34000000Y72140000D01*
X56860000Y69082929D02*
X56860000Y69480000D01*
X51780000Y78140000D02*
X51780000Y72140000D01*
X65370000Y69480000D02*
X65370000Y72140000D01*
X30700000Y66542929D02*
X30700000Y66997071D01*
X71340000Y66542929D02*
X71340000Y66997071D01*
X61180000Y78140000D02*
X61940000Y78140000D01*
X73880000Y66542929D02*
X73880000Y66997071D01*
X68800000Y78140000D02*
X69560000Y78140000D01*
X26380000Y78140000D02*
X26380000Y72140000D01*
X46700000Y66542929D02*
X46700000Y66997071D01*
X51020000Y72140000D02*
X51020000Y78140000D01*
X66260000Y66542929D02*
X66260000Y66997071D01*
X31460000Y78140000D02*
X31460000Y72140000D01*
X25620000Y78140000D02*
X26380000Y78140000D01*
X45940000Y78140000D02*
X46700000Y78140000D01*
X44160000Y69082929D02*
X44160000Y69480000D01*
X39080000Y69082929D02*
X39080000Y69480000D01*
X24730000Y64230000D02*
X24730000Y65500000D01*
X72100000Y66542929D02*
X72100000Y66997071D01*
X30700000Y69082929D02*
X30700000Y69480000D01*
X68800000Y72140000D02*
X68800000Y78140000D01*
X26000000Y64230000D02*
X24730000Y64230000D01*
X53560000Y66542929D02*
X53560000Y66997071D01*
X41620000Y69082929D02*
X41620000Y69480000D01*
X61180000Y66542929D02*
X61180000Y66997071D01*
X28160000Y72140000D02*
X28160000Y78140000D01*
X30700000Y72140000D02*
X30700000Y78140000D01*
X55210000Y69480000D02*
X55210000Y72140000D01*
X72540000Y14500000D02*
X76140000Y14500000D01*
X76140000Y14500000D02*
G75*
G03*
X76664184Y15227205I-1800000J1850000D01*
G01*
X74340000Y18950000D02*
G75*
G03*
X71983600Y17448807I0J-2600000D01*
G01*
X76696400Y17448807D02*
G75*
G03*
X74340000Y18950000I-2356400J-1098807D01*
G01*
X72015816Y15227205D02*
G75*
G03*
X72540000Y14500000I2324184J1122795D01*
G01*
X64490000Y14530000D02*
X68090000Y14530000D01*
X68646400Y17478807D02*
G75*
G03*
X66290000Y18980000I-2356400J-1098807D01*
G01*
X63965816Y15257205D02*
G75*
G03*
X64490000Y14530000I2324184J1122795D01*
G01*
X68090000Y14530000D02*
G75*
G03*
X68614184Y15257205I-1800000J1850000D01*
G01*
X66290000Y18980000D02*
G75*
G03*
X63933600Y17478807I0J-2600000D01*
G01*
X91180000Y38200000D02*
X88570000Y38200000D01*
X93920000Y38200000D02*
G75*
G03*
X93920000Y38200000I-1370000J0D01*
G01*
X95120000Y26940000D02*
X88580000Y26940000D01*
X95120000Y24200000D02*
X95120000Y26940000D01*
X87810000Y25570000D02*
X88580000Y25570000D01*
X88580000Y26940000D02*
X88580000Y24200000D01*
X88580000Y24200000D02*
X95120000Y24200000D01*
X95890000Y25570000D02*
X95120000Y25570000D01*
X72560000Y11560000D02*
X66020000Y11560000D01*
X65250000Y10190000D02*
X66020000Y10190000D01*
X66020000Y8820000D02*
X72560000Y8820000D01*
X66020000Y11560000D02*
X66020000Y8820000D01*
X72560000Y8820000D02*
X72560000Y11560000D01*
X73330000Y10190000D02*
X72560000Y10190000D01*
X66110000Y8050000D02*
X66110000Y5310000D01*
X65340000Y6680000D02*
X66110000Y6680000D01*
X72650000Y8050000D02*
X66110000Y8050000D01*
X66110000Y5310000D02*
X72650000Y5310000D01*
X72650000Y5310000D02*
X72650000Y8050000D01*
X73420000Y6680000D02*
X72650000Y6680000D01*
X86590000Y6570000D02*
X85820000Y6570000D01*
X85820000Y7940000D02*
X79280000Y7940000D01*
X85820000Y5200000D02*
X85820000Y7940000D01*
X79280000Y7940000D02*
X79280000Y5200000D01*
X79280000Y5200000D02*
X85820000Y5200000D01*
X78510000Y6570000D02*
X79280000Y6570000D01*
X72600000Y4400000D02*
X66060000Y4400000D01*
X72600000Y1660000D02*
X72600000Y4400000D01*
X66060000Y1660000D02*
X72600000Y1660000D01*
X73370000Y3030000D02*
X72600000Y3030000D01*
X66060000Y4400000D02*
X66060000Y1660000D01*
X65290000Y3030000D02*
X66060000Y3030000D01*
X78630000Y3020000D02*
X79400000Y3020000D01*
X85940000Y4390000D02*
X79400000Y4390000D01*
X79400000Y1650000D02*
X85940000Y1650000D01*
X85940000Y1650000D02*
X85940000Y4390000D01*
X79400000Y4390000D02*
X79400000Y1650000D01*
X86710000Y3020000D02*
X85940000Y3020000D01*
X89950000Y44030000D02*
X92690000Y44030000D01*
X91320000Y51340000D02*
X91320000Y50570000D01*
X92690000Y44030000D02*
X92690000Y50570000D01*
X92690000Y50570000D02*
X89950000Y50570000D01*
X91320000Y43260000D02*
X91320000Y44030000D01*
X89950000Y50570000D02*
X89950000Y44030000D01*
X95320000Y43180000D02*
X95320000Y43950000D01*
X93950000Y43950000D02*
X96690000Y43950000D01*
X96690000Y50490000D02*
X93950000Y50490000D01*
X95320000Y51260000D02*
X95320000Y50490000D01*
X93950000Y50490000D02*
X93950000Y43950000D01*
X96690000Y43950000D02*
X96690000Y50490000D01*
X61050000Y20380000D02*
X10010000Y20380000D01*
X61050000Y2260000D02*
X61050000Y20380000D01*
X60990000Y5260000D02*
X60990000Y10320000D01*
X60990000Y12320000D02*
X60990000Y17380000D01*
X60990000Y17380000D02*
X10070000Y17380000D01*
X10010000Y2260000D02*
X61050000Y2260000D01*
X10070000Y5260000D02*
X60990000Y5260000D01*
X10010000Y20380000D02*
X10010000Y2260000D01*
X10070000Y17380000D02*
X10070000Y5260000D01*
X60990000Y12320000D02*
G75*
G03*
X60990000Y10320000I0J-1000000D01*
G01*
X83565000Y32120000D02*
X83565000Y33370000D01*
X65665000Y32120000D02*
X83565000Y32120000D01*
X65605000Y39620000D02*
X65605000Y29120000D01*
X83565000Y36620000D02*
X65665000Y36620000D01*
X65605000Y29120000D02*
X83625000Y29120000D01*
X65665000Y36620000D02*
X65665000Y32120000D01*
X83565000Y35370000D02*
X83565000Y36620000D01*
X83625000Y39620000D02*
X65605000Y39620000D01*
X83625000Y29120000D02*
X83625000Y39620000D01*
X83565000Y35370000D02*
G75*
G03*
X83565000Y33370000I0J-1000000D01*
G01*
X65455000Y40580000D02*
X83475000Y40580000D01*
X83475000Y40580000D02*
X83475000Y51080000D01*
X83475000Y51080000D02*
X65455000Y51080000D01*
X65515000Y48080000D02*
X65515000Y43580000D01*
X65515000Y43580000D02*
X83415000Y43580000D01*
X83415000Y48080000D02*
X65515000Y48080000D01*
X65455000Y51080000D02*
X65455000Y40580000D01*
X83415000Y46830000D02*
X83415000Y48080000D01*
X83415000Y43580000D02*
X83415000Y44830000D01*
X83415000Y46830000D02*
G75*
G03*
X83415000Y44830000I0J-1000000D01*
G01*
X36145000Y51420000D02*
X36145000Y40920000D01*
X61725000Y47170000D02*
X61725000Y48420000D01*
X61785000Y40920000D02*
X61785000Y51420000D01*
X61785000Y51420000D02*
X36145000Y51420000D01*
X36205000Y43920000D02*
X61725000Y43920000D01*
X36205000Y48420000D02*
X36205000Y43920000D01*
X61725000Y48420000D02*
X36205000Y48420000D01*
X61725000Y43920000D02*
X61725000Y45170000D01*
X36145000Y40920000D02*
X61785000Y40920000D01*
X61725000Y47170000D02*
G75*
G03*
X61725000Y45170000I0J-1000000D01*
G01*
X83200000Y58320000D02*
X83200000Y59570000D01*
X83260000Y52070000D02*
X83260000Y62570000D01*
X83260000Y62570000D02*
X65240000Y62570000D01*
X65300000Y55070000D02*
X83200000Y55070000D01*
X65240000Y62570000D02*
X65240000Y52070000D01*
X65300000Y59570000D02*
X65300000Y55070000D01*
X83200000Y55070000D02*
X83200000Y56320000D01*
X65240000Y52070000D02*
X83260000Y52070000D01*
X83200000Y59570000D02*
X65300000Y59570000D01*
X83200000Y58320000D02*
G75*
G03*
X83200000Y56320000I0J-1000000D01*
G01*
X32970000Y59790000D02*
X7450000Y59790000D01*
X33030000Y62790000D02*
X7390000Y62790000D01*
X7450000Y55290000D02*
X32970000Y55290000D01*
X33030000Y52290000D02*
X33030000Y62790000D01*
X32970000Y58540000D02*
X32970000Y59790000D01*
X32970000Y55290000D02*
X32970000Y56540000D01*
X7450000Y59790000D02*
X7450000Y55290000D01*
X7390000Y62790000D02*
X7390000Y52290000D01*
X7390000Y52290000D02*
X33030000Y52290000D01*
X32970000Y58540000D02*
G75*
G03*
X32970000Y56540000I0J-1000000D01*
G01*
X7405000Y51400000D02*
X7405000Y40900000D01*
X7465000Y48400000D02*
X7465000Y43900000D01*
X33045000Y40900000D02*
X33045000Y51400000D01*
X7405000Y40900000D02*
X33045000Y40900000D01*
X32985000Y48400000D02*
X7465000Y48400000D01*
X32985000Y43900000D02*
X32985000Y45150000D01*
X33045000Y51400000D02*
X7405000Y51400000D01*
X32985000Y47150000D02*
X32985000Y48400000D01*
X7465000Y43900000D02*
X32985000Y43900000D01*
X32985000Y47150000D02*
G75*
G03*
X32985000Y45150000I0J-1000000D01*
G01*
X2675000Y21735000D02*
X38475000Y21735000D01*
X2675000Y39855000D02*
X2675000Y21735000D01*
X2735000Y24735000D02*
X38415000Y24735000D01*
X38415000Y31795000D02*
X38415000Y36855000D01*
X38415000Y24735000D02*
X38415000Y29795000D01*
X38475000Y39855000D02*
X2675000Y39855000D01*
X38475000Y21735000D02*
X38475000Y39855000D01*
X2735000Y36855000D02*
X2735000Y24735000D01*
X38415000Y36855000D02*
X2735000Y36855000D01*
X38415000Y31795000D02*
G75*
G03*
X38415000Y29795000I0J-1000000D01*
G01*
X61530000Y62790000D02*
X35890000Y62790000D01*
X61470000Y59790000D02*
X35950000Y59790000D01*
X61470000Y58540000D02*
X61470000Y59790000D01*
X35890000Y62790000D02*
X35890000Y52290000D01*
X61530000Y52290000D02*
X61530000Y62790000D01*
X35950000Y55290000D02*
X61470000Y55290000D01*
X35950000Y59790000D02*
X35950000Y55290000D01*
X61470000Y55290000D02*
X61470000Y56540000D01*
X35890000Y52290000D02*
X61530000Y52290000D01*
X61470000Y58540000D02*
G75*
G03*
X61470000Y56540000I0J-1000000D01*
G01*
X88865000Y36025000D02*
X95115000Y36025000D01*
X88865000Y30975000D02*
X95115000Y30975000D01*
X88865000Y36025000D02*
G75*
G03*
X88865000Y30975000I0J-2525000D01*
G01*
X95115000Y30975000D02*
G75*
G03*
X95115000Y36025000I0J2525000D01*
G01*
X63570000Y32259000D02*
X63570000Y31001000D01*
X61730000Y32259000D02*
X61730000Y31001000D01*
X60500000Y29000000D02*
X60500000Y39500000D01*
X40000000Y36500000D02*
X40000000Y32000000D01*
X39940000Y39500000D02*
X39940000Y29000000D01*
X39940000Y29000000D02*
X60500000Y29000000D01*
X60500000Y39500000D02*
X39940000Y39500000D01*
X60440000Y35250000D02*
X60440000Y36500000D01*
X60440000Y32000000D02*
X60440000Y33250000D01*
X60440000Y36500000D02*
X40000000Y36500000D01*
X40000000Y32000000D02*
X60440000Y32000000D01*
X60440000Y35250000D02*
G75*
G03*
X60440000Y33250000I0J-1000000D01*
G01*
X90786000Y23490000D02*
X90786000Y21650000D01*
X90210000Y23490000D02*
X90210000Y21650000D01*
X95940000Y22570000D02*
X93490000Y22570000D01*
X87760000Y22570000D02*
X90210000Y22570000D01*
X90906000Y23490000D02*
X90906000Y21650000D01*
X90666000Y23490000D02*
X90666000Y21650000D01*
X93490000Y23490000D02*
X90210000Y23490000D01*
X90210000Y21650000D02*
X93490000Y21650000D01*
X93490000Y21650000D02*
X93490000Y23490000D01*
X91255000Y56140000D02*
X91255000Y55984000D01*
X91255000Y58456000D02*
X91255000Y58300000D01*
X91255000Y55984484D02*
G75*
G03*
X94487335Y56141392I1560000J1235516D01*
G01*
X93856130Y58299837D02*
G75*
G03*
X91774039Y58300000I-1041130J-1079837D01*
G01*
X94487335Y58298608D02*
G75*
G03*
X91255000Y58455516I-1672335J-1078608D01*
G01*
X91774039Y56140000D02*
G75*
G03*
X93856130Y56140163I1040961J1080000D01*
G01*
X91255000Y64456000D02*
X91255000Y64300000D01*
X91255000Y62140000D02*
X91255000Y61984000D01*
X91255000Y61984484D02*
G75*
G03*
X94487335Y62141392I1560000J1235516D01*
G01*
X94487335Y64298608D02*
G75*
G03*
X91255000Y64455516I-1672335J-1078608D01*
G01*
X91774039Y62140000D02*
G75*
G03*
X93856130Y62140163I1040961J1080000D01*
G01*
X93856130Y64299837D02*
G75*
G03*
X91774039Y64300000I-1041130J-1079837D01*
G01*
X73135000Y20765000D02*
X70105000Y20765000D01*
X65895000Y20765000D02*
X65895000Y27605000D01*
X68805000Y27605000D02*
X65895000Y27605000D01*
X73135000Y20765000D02*
X73135000Y27605000D01*
X68805000Y20765000D02*
X65895000Y20765000D01*
X73135000Y27605000D02*
X70105000Y27605000D01*
M02*
