G04 #@! TF.GenerationSoftware,KiCad,Pcbnew,(5.1.10-1-10_14)*
G04 #@! TF.CreationDate,2021-12-18T16:06:10+09:00*
G04 #@! TF.ProjectId,K68-VDG,4b36382d-5644-4472-9e6b-696361645f70,rev?*
G04 #@! TF.SameCoordinates,PX8583b00PY93d1cc0*
G04 #@! TF.FileFunction,Soldermask,Bot*
G04 #@! TF.FilePolarity,Negative*
%FSLAX46Y46*%
G04 Gerber Fmt 4.6, Leading zero omitted, Abs format (unit mm)*
G04 Created by KiCad (PCBNEW (5.1.10-1-10_14)) date 2021-12-18 16:06:10*
%MOMM*%
%LPD*%
G01*
G04 APERTURE LIST*
%ADD10C,0.100000*%
%ADD11R,1.000000X1.500000*%
%ADD12O,1.600000X1.600000*%
%ADD13C,1.600000*%
%ADD14O,2.400000X1.600000*%
%ADD15R,2.400000X1.600000*%
%ADD16O,1.600000X2.400000*%
%ADD17R,1.600000X2.400000*%
%ADD18C,3.200000*%
%ADD19C,1.500000*%
%ADD20C,1.440000*%
%ADD21R,1.050000X1.500000*%
%ADD22O,1.050000X1.500000*%
%ADD23O,1.700000X1.700000*%
%ADD24R,1.700000X1.700000*%
%ADD25C,2.100000*%
%ADD26O,3.500000X2.300000*%
%ADD27O,2.300000X3.500000*%
%ADD28C,1.800000*%
%ADD29R,1.800000X1.800000*%
%ADD30O,1.500000X1.500000*%
%ADD31R,1.500000X1.500000*%
G04 APERTURE END LIST*
D10*
G36*
X95750000Y49250000D02*
G01*
X95200000Y49250000D01*
X95200000Y49250602D01*
X95175466Y49250602D01*
X95126635Y49255412D01*
X95078510Y49264984D01*
X95031555Y49279228D01*
X94986222Y49298005D01*
X94942949Y49321136D01*
X94902150Y49348396D01*
X94864221Y49379524D01*
X94829524Y49414221D01*
X94798396Y49452150D01*
X94771136Y49492949D01*
X94748005Y49536222D01*
X94729228Y49581555D01*
X94714984Y49628510D01*
X94705412Y49676635D01*
X94700602Y49725466D01*
X94700602Y49750000D01*
X94700000Y49750000D01*
X94700000Y50250000D01*
X94700602Y50250000D01*
X94700602Y50274534D01*
X94705412Y50323365D01*
X94714984Y50371490D01*
X94729228Y50418445D01*
X94748005Y50463778D01*
X94771136Y50507051D01*
X94798396Y50547850D01*
X94829524Y50585779D01*
X94864221Y50620476D01*
X94902150Y50651604D01*
X94942949Y50678864D01*
X94986222Y50701995D01*
X95031555Y50720772D01*
X95078510Y50735016D01*
X95126635Y50744588D01*
X95175466Y50749398D01*
X95200000Y50749398D01*
X95200000Y50750000D01*
X95750000Y50750000D01*
X95750000Y49250000D01*
G37*
D11*
X96500000Y50000000D03*
D10*
G36*
X97800000Y50749398D02*
G01*
X97824534Y50749398D01*
X97873365Y50744588D01*
X97921490Y50735016D01*
X97968445Y50720772D01*
X98013778Y50701995D01*
X98057051Y50678864D01*
X98097850Y50651604D01*
X98135779Y50620476D01*
X98170476Y50585779D01*
X98201604Y50547850D01*
X98228864Y50507051D01*
X98251995Y50463778D01*
X98270772Y50418445D01*
X98285016Y50371490D01*
X98294588Y50323365D01*
X98299398Y50274534D01*
X98299398Y50250000D01*
X98300000Y50250000D01*
X98300000Y49750000D01*
X98299398Y49750000D01*
X98299398Y49725466D01*
X98294588Y49676635D01*
X98285016Y49628510D01*
X98270772Y49581555D01*
X98251995Y49536222D01*
X98228864Y49492949D01*
X98201604Y49452150D01*
X98170476Y49414221D01*
X98135779Y49379524D01*
X98097850Y49348396D01*
X98057051Y49321136D01*
X98013778Y49298005D01*
X97968445Y49279228D01*
X97921490Y49264984D01*
X97873365Y49255412D01*
X97824534Y49250602D01*
X97800000Y49250602D01*
X97800000Y49250000D01*
X97250000Y49250000D01*
X97250000Y50750000D01*
X97800000Y50750000D01*
X97800000Y50749398D01*
G37*
D12*
X8580000Y64500000D03*
D13*
X3500000Y64500000D03*
D14*
X97420000Y29000000D03*
X89800000Y11220000D03*
X97420000Y26460000D03*
X89800000Y13760000D03*
X97420000Y23920000D03*
X89800000Y16300000D03*
X97420000Y21380000D03*
X89800000Y18840000D03*
X97420000Y18840000D03*
X89800000Y21380000D03*
X97420000Y16300000D03*
X89800000Y23920000D03*
X97420000Y13760000D03*
X89800000Y26460000D03*
X97420000Y11220000D03*
D15*
X89800000Y29000000D03*
D10*
G36*
X97300000Y37549398D02*
G01*
X97324534Y37549398D01*
X97373365Y37544588D01*
X97421490Y37535016D01*
X97468445Y37520772D01*
X97513778Y37501995D01*
X97557051Y37478864D01*
X97597850Y37451604D01*
X97635779Y37420476D01*
X97670476Y37385779D01*
X97701604Y37347850D01*
X97728864Y37307051D01*
X97751995Y37263778D01*
X97770772Y37218445D01*
X97785016Y37171490D01*
X97794588Y37123365D01*
X97799398Y37074534D01*
X97799398Y37050000D01*
X97800000Y37050000D01*
X97800000Y36550000D01*
X97799398Y36550000D01*
X97799398Y36525466D01*
X97794588Y36476635D01*
X97785016Y36428510D01*
X97770772Y36381555D01*
X97751995Y36336222D01*
X97728864Y36292949D01*
X97701604Y36252150D01*
X97670476Y36214221D01*
X97635779Y36179524D01*
X97597850Y36148396D01*
X97557051Y36121136D01*
X97513778Y36098005D01*
X97468445Y36079228D01*
X97421490Y36064984D01*
X97373365Y36055412D01*
X97324534Y36050602D01*
X97300000Y36050602D01*
X97300000Y36050000D01*
X96800000Y36050000D01*
X96800000Y37550000D01*
X97300000Y37550000D01*
X97300000Y37549398D01*
G37*
G36*
X96500000Y36050000D02*
G01*
X96000000Y36050000D01*
X96000000Y36050602D01*
X95975466Y36050602D01*
X95926635Y36055412D01*
X95878510Y36064984D01*
X95831555Y36079228D01*
X95786222Y36098005D01*
X95742949Y36121136D01*
X95702150Y36148396D01*
X95664221Y36179524D01*
X95629524Y36214221D01*
X95598396Y36252150D01*
X95571136Y36292949D01*
X95548005Y36336222D01*
X95529228Y36381555D01*
X95514984Y36428510D01*
X95505412Y36476635D01*
X95500602Y36525466D01*
X95500602Y36550000D01*
X95500000Y36550000D01*
X95500000Y37050000D01*
X95500602Y37050000D01*
X95500602Y37074534D01*
X95505412Y37123365D01*
X95514984Y37171490D01*
X95529228Y37218445D01*
X95548005Y37263778D01*
X95571136Y37307051D01*
X95598396Y37347850D01*
X95629524Y37385779D01*
X95664221Y37420476D01*
X95702150Y37451604D01*
X95742949Y37478864D01*
X95786222Y37501995D01*
X95831555Y37520772D01*
X95878510Y37535016D01*
X95926635Y37544588D01*
X95975466Y37549398D01*
X96000000Y37549398D01*
X96000000Y37550000D01*
X96500000Y37550000D01*
X96500000Y36050000D01*
G37*
G36*
X97300000Y43749398D02*
G01*
X97324534Y43749398D01*
X97373365Y43744588D01*
X97421490Y43735016D01*
X97468445Y43720772D01*
X97513778Y43701995D01*
X97557051Y43678864D01*
X97597850Y43651604D01*
X97635779Y43620476D01*
X97670476Y43585779D01*
X97701604Y43547850D01*
X97728864Y43507051D01*
X97751995Y43463778D01*
X97770772Y43418445D01*
X97785016Y43371490D01*
X97794588Y43323365D01*
X97799398Y43274534D01*
X97799398Y43250000D01*
X97800000Y43250000D01*
X97800000Y42750000D01*
X97799398Y42750000D01*
X97799398Y42725466D01*
X97794588Y42676635D01*
X97785016Y42628510D01*
X97770772Y42581555D01*
X97751995Y42536222D01*
X97728864Y42492949D01*
X97701604Y42452150D01*
X97670476Y42414221D01*
X97635779Y42379524D01*
X97597850Y42348396D01*
X97557051Y42321136D01*
X97513778Y42298005D01*
X97468445Y42279228D01*
X97421490Y42264984D01*
X97373365Y42255412D01*
X97324534Y42250602D01*
X97300000Y42250602D01*
X97300000Y42250000D01*
X96800000Y42250000D01*
X96800000Y43750000D01*
X97300000Y43750000D01*
X97300000Y43749398D01*
G37*
G36*
X96500000Y42250000D02*
G01*
X96000000Y42250000D01*
X96000000Y42250602D01*
X95975466Y42250602D01*
X95926635Y42255412D01*
X95878510Y42264984D01*
X95831555Y42279228D01*
X95786222Y42298005D01*
X95742949Y42321136D01*
X95702150Y42348396D01*
X95664221Y42379524D01*
X95629524Y42414221D01*
X95598396Y42452150D01*
X95571136Y42492949D01*
X95548005Y42536222D01*
X95529228Y42581555D01*
X95514984Y42628510D01*
X95505412Y42676635D01*
X95500602Y42725466D01*
X95500602Y42750000D01*
X95500000Y42750000D01*
X95500000Y43250000D01*
X95500602Y43250000D01*
X95500602Y43274534D01*
X95505412Y43323365D01*
X95514984Y43371490D01*
X95529228Y43418445D01*
X95548005Y43463778D01*
X95571136Y43507051D01*
X95598396Y43547850D01*
X95629524Y43585779D01*
X95664221Y43620476D01*
X95702150Y43651604D01*
X95742949Y43678864D01*
X95786222Y43701995D01*
X95831555Y43720772D01*
X95878510Y43735016D01*
X95926635Y43744588D01*
X95975466Y43749398D01*
X96000000Y43749398D01*
X96000000Y43750000D01*
X96500000Y43750000D01*
X96500000Y42250000D01*
G37*
D13*
X97400000Y32000000D03*
X94900000Y32000000D03*
D16*
X41500000Y18240000D03*
X74520000Y3000000D03*
X44040000Y18240000D03*
X71980000Y3000000D03*
X46580000Y18240000D03*
X69440000Y3000000D03*
X49120000Y18240000D03*
X66900000Y3000000D03*
X51660000Y18240000D03*
X64360000Y3000000D03*
X54200000Y18240000D03*
X61820000Y3000000D03*
X56740000Y18240000D03*
X59280000Y3000000D03*
X59280000Y18240000D03*
X56740000Y3000000D03*
X61820000Y18240000D03*
X54200000Y3000000D03*
X64360000Y18240000D03*
X51660000Y3000000D03*
X66900000Y18240000D03*
X49120000Y3000000D03*
X69440000Y18240000D03*
X46580000Y3000000D03*
X71980000Y18240000D03*
X44040000Y3000000D03*
X74520000Y18240000D03*
D17*
X41500000Y3000000D03*
D18*
X94500000Y4500000D03*
X5500000Y4500000D03*
X94500000Y70500000D03*
X5500000Y70500000D03*
D19*
X3500000Y58380000D03*
X3500000Y53500000D03*
D16*
X55000000Y49620000D03*
X77860000Y42000000D03*
X57540000Y49620000D03*
X75320000Y42000000D03*
X60080000Y49620000D03*
X72780000Y42000000D03*
X62620000Y49620000D03*
X70240000Y42000000D03*
X65160000Y49620000D03*
X67700000Y42000000D03*
X67700000Y49620000D03*
X65160000Y42000000D03*
X70240000Y49620000D03*
X62620000Y42000000D03*
X72780000Y49620000D03*
X60080000Y42000000D03*
X75320000Y49620000D03*
X57540000Y42000000D03*
X77860000Y49620000D03*
D17*
X55000000Y42000000D03*
D14*
X86020000Y32400000D03*
X78400000Y9540000D03*
X86020000Y29860000D03*
X78400000Y12080000D03*
X86020000Y27320000D03*
X78400000Y14620000D03*
X86020000Y24780000D03*
X78400000Y17160000D03*
X86020000Y22240000D03*
X78400000Y19700000D03*
X86020000Y19700000D03*
X78400000Y22240000D03*
X86020000Y17160000D03*
X78400000Y24780000D03*
X86020000Y14620000D03*
X78400000Y27320000D03*
X86020000Y12080000D03*
X78400000Y29860000D03*
X86020000Y9540000D03*
D15*
X78400000Y32400000D03*
D16*
X26000000Y49620000D03*
X48860000Y42000000D03*
X28540000Y49620000D03*
X46320000Y42000000D03*
X31080000Y49620000D03*
X43780000Y42000000D03*
X33620000Y49620000D03*
X41240000Y42000000D03*
X36160000Y49620000D03*
X38700000Y42000000D03*
X38700000Y49620000D03*
X36160000Y42000000D03*
X41240000Y49620000D03*
X33620000Y42000000D03*
X43780000Y49620000D03*
X31080000Y42000000D03*
X46320000Y49620000D03*
X28540000Y42000000D03*
X48860000Y49620000D03*
D17*
X26000000Y42000000D03*
D16*
X38500000Y61620000D03*
X53740000Y54000000D03*
X41040000Y61620000D03*
X51200000Y54000000D03*
X43580000Y61620000D03*
X48660000Y54000000D03*
X46120000Y61620000D03*
X46120000Y54000000D03*
X48660000Y61620000D03*
X43580000Y54000000D03*
X51200000Y61620000D03*
X41040000Y54000000D03*
X53740000Y61620000D03*
D17*
X38500000Y54000000D03*
D14*
X90620000Y62000000D03*
X83000000Y39140000D03*
X90620000Y59460000D03*
X83000000Y41680000D03*
X90620000Y56920000D03*
X83000000Y44220000D03*
X90620000Y54380000D03*
X83000000Y46760000D03*
X90620000Y51840000D03*
X83000000Y49300000D03*
X90620000Y49300000D03*
X83000000Y51840000D03*
X90620000Y46760000D03*
X83000000Y54380000D03*
X90620000Y44220000D03*
X83000000Y56920000D03*
X90620000Y41680000D03*
X83000000Y59460000D03*
X90620000Y39140000D03*
D15*
X83000000Y62000000D03*
D16*
X59500000Y61620000D03*
X74740000Y54000000D03*
X62040000Y61620000D03*
X72200000Y54000000D03*
X64580000Y61620000D03*
X69660000Y54000000D03*
X67120000Y61620000D03*
X67120000Y54000000D03*
X69660000Y61620000D03*
X64580000Y54000000D03*
X72200000Y61620000D03*
X62040000Y54000000D03*
X74740000Y61620000D03*
D17*
X59500000Y54000000D03*
D14*
X20120000Y64500000D03*
X12500000Y49260000D03*
X20120000Y61960000D03*
X12500000Y51800000D03*
X20120000Y59420000D03*
X12500000Y54340000D03*
X20120000Y56880000D03*
X12500000Y56880000D03*
X20120000Y54340000D03*
X12500000Y59420000D03*
X20120000Y51800000D03*
X12500000Y61960000D03*
X20120000Y49260000D03*
D15*
X12500000Y64500000D03*
D16*
X26000000Y37740000D03*
X74260000Y22500000D03*
X28540000Y37740000D03*
X71720000Y22500000D03*
X31080000Y37740000D03*
X69180000Y22500000D03*
X33620000Y37740000D03*
X66640000Y22500000D03*
X36160000Y37740000D03*
X64100000Y22500000D03*
X38700000Y37740000D03*
X61560000Y22500000D03*
X41240000Y37740000D03*
X59020000Y22500000D03*
X43780000Y37740000D03*
X56480000Y22500000D03*
X46320000Y37740000D03*
X53940000Y22500000D03*
X48860000Y37740000D03*
X51400000Y22500000D03*
X51400000Y37740000D03*
X48860000Y22500000D03*
X53940000Y37740000D03*
X46320000Y22500000D03*
X56480000Y37740000D03*
X43780000Y22500000D03*
X59020000Y37740000D03*
X41240000Y22500000D03*
X61560000Y37740000D03*
X38700000Y22500000D03*
X64100000Y37740000D03*
X36160000Y22500000D03*
X66640000Y37740000D03*
X33620000Y22500000D03*
X69180000Y37740000D03*
X31080000Y22500000D03*
X71720000Y37740000D03*
X28540000Y22500000D03*
X74260000Y37740000D03*
D17*
X26000000Y22500000D03*
D20*
X5500000Y42000000D03*
X8040000Y44540000D03*
X5500000Y47080000D03*
D12*
X22640000Y12100000D03*
D13*
X32800000Y12100000D03*
D12*
X22640000Y16100000D03*
D13*
X32800000Y16100000D03*
D12*
X12160000Y26000000D03*
D13*
X2000000Y26000000D03*
D12*
X19660000Y29500000D03*
D13*
X9500000Y29500000D03*
D12*
X1840000Y22500000D03*
D13*
X12000000Y22500000D03*
D12*
X19660000Y33500000D03*
D13*
X9500000Y33500000D03*
D12*
X19660000Y37000000D03*
D13*
X9500000Y37000000D03*
D12*
X33160000Y61500000D03*
D13*
X23000000Y61500000D03*
D21*
X3100000Y30800000D03*
D22*
X5640000Y30800000D03*
X4370000Y30800000D03*
D21*
X3000000Y36500000D03*
D22*
X5540000Y36500000D03*
X4270000Y36500000D03*
D23*
X74260000Y68040000D03*
X74260000Y65500000D03*
X71720000Y68040000D03*
X71720000Y65500000D03*
X69180000Y68040000D03*
X69180000Y65500000D03*
X66640000Y68040000D03*
X66640000Y65500000D03*
X64100000Y68040000D03*
X64100000Y65500000D03*
X61560000Y68040000D03*
X61560000Y65500000D03*
X59020000Y68040000D03*
X59020000Y65500000D03*
X56480000Y68040000D03*
X56480000Y65500000D03*
X53940000Y68040000D03*
X53940000Y65500000D03*
X51400000Y68040000D03*
X51400000Y65500000D03*
X48860000Y68040000D03*
X48860000Y65500000D03*
X46320000Y68040000D03*
X46320000Y65500000D03*
X43780000Y68040000D03*
X43780000Y65500000D03*
X41240000Y68040000D03*
X41240000Y65500000D03*
X38700000Y68040000D03*
X38700000Y65500000D03*
X36160000Y68040000D03*
X36160000Y65500000D03*
X33620000Y68040000D03*
X33620000Y65500000D03*
X31080000Y68040000D03*
X31080000Y65500000D03*
X28540000Y68040000D03*
X28540000Y65500000D03*
X26000000Y68040000D03*
D24*
X26000000Y65500000D03*
D25*
X7350000Y18750000D03*
D26*
X15000000Y14500000D03*
D27*
X10500000Y14500000D03*
D25*
X7350000Y10250000D03*
D28*
X26040000Y6200000D03*
D29*
X23500000Y6200000D03*
D28*
X32040000Y6200000D03*
D29*
X29500000Y6200000D03*
D30*
X30620000Y58500000D03*
D31*
X23000000Y58500000D03*
D13*
X35600000Y59600000D03*
X35600000Y62100000D03*
X56700000Y59600000D03*
X56700000Y62100000D03*
X52000000Y47500000D03*
X52000000Y50000000D03*
X38000000Y16500000D03*
X38000000Y19000000D03*
X86400000Y35400000D03*
X83900000Y35400000D03*
X28500000Y53000000D03*
X26000000Y53000000D03*
X14500000Y42000000D03*
X12000000Y42000000D03*
X91000000Y65000000D03*
X88500000Y65000000D03*
X23000000Y53000000D03*
X23000000Y55500000D03*
X8500000Y60000000D03*
X8500000Y57500000D03*
X8500000Y51000000D03*
X8500000Y53500000D03*
X66500000Y32000000D03*
X66500000Y29500000D03*
M02*
