M48
; DRILL file {KiCad (6.0.4-0)} date 
; FORMAT={-:-/ absolute / metric / decimal}
; #@! TF.CreationDate,2023-01-21T11:19:47+09:00
; #@! TF.GenerationSoftware,Kicad,Pcbnew,(6.0.4-0)
; #@! TF.FileFunction,MixedPlating,1,2
FMAT,2
METRIC
; #@! TA.AperFunction,Plated,PTH,ViaDrill
T1C0.400
; #@! TA.AperFunction,Plated,PTH,ComponentDrill
T2C0.750
; #@! TA.AperFunction,Plated,PTH,ComponentDrill
T3C0.800
; #@! TA.AperFunction,Plated,PTH,ComponentDrill
T4C0.900
; #@! TA.AperFunction,Plated,PTH,ComponentDrill
T5C1.000
; #@! TA.AperFunction,Plated,PTH,ComponentDrill
T6C1.200
; #@! TA.AperFunction,NonPlated,NPTH,ComponentDrill
T7C2.100
; #@! TA.AperFunction,NonPlated,NPTH,ComponentDrill
T8C3.200
%
G90
G05
T1
X2.787Y48.053
X4.297Y51.972
X4.362Y41.983
X4.592Y54.134
X4.717Y49.943
X4.752Y36.034
X7.084Y33.675
X8.634Y26.399
X9.516Y12.225
X10.349Y34.524
X12.076Y13.921
X12.271Y10.386
X12.766Y64.901
X13.124Y45.762
X13.502Y46.778
X14.538Y27.521
X14.93Y17.447
X16.429Y65.256
X16.73Y9.659
X17.488Y65.231
X17.588Y44.019
X18.438Y64.568
X18.469Y13.53
X18.911Y45.353
X18.94Y56.64
X20.299Y65.928
X24.24Y34.012
X25.622Y48.479
X26.06Y46.578
X26.525Y57.13
X27.197Y58.638
X27.364Y48.227
X27.751Y26.039
X28.192Y22.018
X29.613Y25.114
X30.229Y58.763
X30.24Y48.673
X30.362Y55.555
X31.367Y32.129
X32.358Y70.284
X32.662Y57.786
X33.91Y57.224
X36.34Y58.944
X37.496Y25.27
X38.072Y26.235
X40.538Y55.767
X41.475Y12.742
X41.902Y10.76
X42.479Y57.224
X42.606Y25.978
X43.242Y5.329
X43.389Y58.831
X43.619Y54.856
X44.964Y29.144
X45.237Y35.99
X46.742Y57.327
X50.655Y70.016
X51.864Y21.202
X52.455Y70.567
X52.687Y40.094
X53.077Y35.99
X54.224Y47.951
X56.372Y52.575
X57.541Y14.54
X59.067Y63.673
X59.651Y33.963
X60.29Y67.239
X62.309Y63.938
X62.309Y58.522
X64.897Y56.416
X65.309Y64.007
X68.692Y45.498
X70.054Y51.937
X77.809Y71.281
X78.06Y62.655
X81.86Y66.413
X83.463Y72.016
X86.13Y62.451
T2
X86.77Y22.57
X96.93Y22.57
T3
X4.065Y38.415
X4.065Y23.175
X6.605Y38.415
X6.605Y23.175
X8.78Y61.35
X8.78Y53.73
X8.795Y49.96
X8.795Y42.34
X9.145Y38.415
X9.145Y23.175
X11.32Y61.35
X11.32Y53.73
X11.335Y49.96
X11.335Y42.34
X11.4Y18.94
X11.4Y3.7
X11.685Y38.415
X11.685Y23.175
X13.86Y61.35
X13.86Y53.73
X13.875Y49.96
X13.875Y42.34
X13.94Y18.94
X13.94Y3.7
X14.225Y38.415
X14.225Y23.175
X16.4Y61.35
X16.4Y53.73
X16.415Y49.96
X16.415Y42.34
X16.48Y18.94
X16.48Y3.7
X16.765Y38.415
X16.765Y23.175
X18.94Y61.35
X18.94Y53.73
X18.955Y49.96
X18.955Y42.34
X19.02Y18.94
X19.02Y3.7
X19.305Y38.415
X19.305Y23.175
X20.4Y13.06
X20.4Y10.56
X21.48Y61.35
X21.48Y53.73
X21.495Y49.96
X21.495Y42.34
X21.56Y18.94
X21.56Y3.7
X21.845Y38.415
X21.845Y23.175
X24.02Y61.35
X24.02Y53.73
X24.035Y49.96
X24.035Y42.34
X24.1Y18.94
X24.1Y3.7
X24.385Y38.415
X24.385Y23.175
X26.56Y61.35
X26.56Y53.73
X26.575Y49.96
X26.575Y42.34
X26.64Y18.94
X26.64Y3.7
X26.925Y38.415
X26.925Y23.175
X29.1Y61.35
X29.1Y53.73
X29.115Y49.96
X29.115Y42.34
X29.18Y18.94
X29.18Y3.7
X29.465Y38.415
X29.465Y23.175
X31.64Y61.35
X31.64Y53.73
X31.655Y49.96
X31.655Y42.34
X31.72Y18.94
X31.72Y3.7
X32.005Y38.415
X32.005Y23.175
X34.26Y18.94
X34.26Y3.7
X34.46Y55.75
X34.46Y53.25
X34.5Y44.36
X34.5Y41.86
X34.545Y38.415
X34.545Y23.175
X36.8Y18.94
X36.8Y3.7
X37.085Y38.415
X37.085Y23.175
X37.28Y61.35
X37.28Y53.73
X37.535Y49.98
X37.535Y42.36
X39.34Y18.94
X39.34Y3.7
X39.82Y61.35
X39.82Y53.73
X40.075Y49.98
X40.075Y42.36
X40.42Y25.27
X40.42Y22.77
X41.33Y38.06
X41.33Y30.44
X41.88Y18.94
X41.88Y3.7
X42.36Y61.35
X42.36Y53.73
X42.615Y49.98
X42.615Y42.36
X43.87Y38.06
X43.87Y30.44
X44.42Y18.94
X44.42Y3.7
X44.9Y61.35
X44.9Y53.73
X45.155Y49.98
X45.155Y42.36
X46.41Y38.06
X46.41Y30.44
X46.96Y18.94
X46.96Y3.7
X47.44Y61.35
X47.44Y53.73
X47.695Y49.98
X47.695Y42.36
X48.95Y38.06
X48.95Y30.44
X49.5Y18.94
X49.5Y3.7
X49.98Y61.35
X49.98Y53.73
X50.235Y49.98
X50.235Y42.36
X51.49Y38.06
X51.49Y30.44
X52.04Y18.94
X52.04Y3.7
X52.52Y61.35
X52.52Y53.73
X52.775Y49.98
X52.775Y42.36
X54.03Y38.06
X54.03Y30.44
X54.58Y18.94
X54.58Y3.7
X55.06Y61.35
X55.06Y53.73
X55.315Y49.98
X55.315Y42.36
X56.57Y38.06
X56.57Y30.44
X57.12Y18.94
X57.12Y3.7
X57.6Y61.35
X57.6Y53.73
X57.855Y49.98
X57.855Y42.36
X59.11Y38.06
X59.11Y30.44
X59.66Y18.94
X59.66Y3.7
X60.14Y61.35
X60.14Y53.73
X60.395Y49.98
X60.395Y42.36
X62.65Y32.88
X62.65Y30.38
X63.01Y55.75
X63.01Y53.25
X63.34Y44.29
X63.34Y41.79
X63.75Y16.38
X63.98Y26.58
X63.98Y24.08
X64.21Y10.19
X64.25Y3.03
X64.3Y6.68
X66.29Y16.38
X66.63Y61.13
X66.63Y53.51
X66.845Y49.64
X66.845Y42.02
X66.915Y24.185
X66.995Y38.18
X66.995Y30.56
X68.83Y16.38
X69.17Y61.13
X69.17Y53.51
X69.385Y49.64
X69.385Y42.02
X69.455Y26.725
X69.455Y21.645
X69.535Y38.18
X69.535Y30.56
X71.71Y61.13
X71.71Y53.51
X71.8Y16.35
X71.925Y49.64
X71.925Y42.02
X72.075Y38.18
X72.075Y30.56
X74.25Y61.13
X74.25Y53.51
X74.34Y16.35
X74.37Y10.19
X74.41Y3.03
X74.46Y6.68
X74.465Y49.64
X74.465Y42.02
X74.615Y38.18
X74.615Y30.56
X76.52Y27.07
X76.79Y61.13
X76.79Y53.51
X76.88Y16.35
X77.005Y49.64
X77.005Y42.02
X77.155Y38.18
X77.155Y30.56
X77.47Y6.57
X77.59Y3.02
X79.02Y27.07
X79.33Y61.13
X79.33Y53.51
X79.545Y49.64
X79.545Y42.02
X79.695Y38.18
X79.695Y30.56
X81.87Y61.13
X81.87Y53.51
X82.085Y49.64
X82.085Y42.02
X82.235Y38.18
X82.235Y30.56
X84.87Y55.38
X84.87Y52.88
X84.96Y44.09
X84.96Y41.59
X86.77Y25.57
X87.28Y29.14
X87.47Y38.2
X87.63Y6.57
X87.75Y3.02
X89.55Y33.5
X89.78Y29.14
X91.32Y52.38
X91.32Y42.22
X92.55Y38.2
X92.56Y29.23
X94.43Y33.5
X95.06Y29.23
X95.32Y52.3
X95.32Y42.14
X96.93Y25.57
T4
X91.545Y63.22
X91.545Y57.22
X94.085Y63.22
X94.085Y57.22
T5
X26.0Y68.04
X26.0Y65.5
X28.54Y68.04
X28.54Y65.5
X31.08Y68.04
X31.08Y65.5
X33.62Y68.04
X33.62Y65.5
X36.16Y68.04
X36.16Y65.5
X38.7Y68.04
X38.7Y65.5
X41.24Y68.04
X41.24Y65.5
X43.78Y68.04
X43.78Y65.5
X46.32Y68.04
X46.32Y65.5
X48.86Y68.04
X48.86Y65.5
X51.4Y68.04
X51.4Y65.5
X53.94Y68.04
X53.94Y65.5
X56.48Y68.04
X56.48Y65.5
X59.02Y68.04
X59.02Y65.5
X61.56Y68.04
X61.56Y65.5
X64.1Y68.04
X64.1Y65.5
X66.64Y68.04
X66.64Y65.5
X69.18Y68.04
X69.18Y65.5
X71.72Y68.04
X71.72Y65.5
X74.26Y68.04
X74.26Y65.5
T7
X91.73Y19.09
X91.73Y10.59
T8
X5.5Y70.5
X5.5Y4.5
X94.5Y70.5
X94.5Y4.5
T6
G00X83.33Y14.84
M15
G01X84.83Y14.84
M16
G05
G00X88.58Y15.59
M15
G01X88.58Y14.09
M16
G05
T0
M30
