M48
; DRILL file {KiCad (5.1.10-1-10_14)} date Saturday, December 18, 2021 at 04:06:15 PM
; FORMAT={-:-/ absolute / metric / decimal}
; #@! TF.CreationDate,2021-12-18T16:06:15+09:00
; #@! TF.GenerationSoftware,Kicad,Pcbnew,(5.1.10-1-10_14)
FMAT,2
METRIC
T1C0.400
T2C0.750
T3C0.800
T4C0.900
T5C1.000
T6C1.200
T7C2.100
T8C3.200
%
G90
G05
T1
X9.5Y26.5
X9.723Y44.078
X12.0Y70.5
X16.0Y22.5
X16.557Y49.672
X17.053Y61.729
X17.053Y50.666
X18.888Y20.074
X24.149Y50.334
X24.875Y39.072
X27.302Y69.249
X27.314Y54.185
X27.66Y46.222
X29.881Y54.913
X30.439Y55.781
X32.975Y57.71
X33.62Y54.709
X34.745Y40.139
X35.27Y12.538
X37.454Y56.477
X37.523Y27.471
X38.887Y9.312
X39.103Y47.61
X39.589Y69.215
X40.066Y29.41
X41.603Y56.005
X42.45Y44.623
X42.626Y30.78
X43.943Y45.942
X45.518Y56.484
X45.713Y28.079
X46.861Y20.472
X47.101Y34.312
X47.133Y35.316
X48.079Y44.74
X48.86Y31.73
X50.245Y31.505
X50.707Y48.188
X51.006Y30.054
X52.737Y32.906
X52.815Y21.228
X53.527Y45.027
X53.94Y70.391
X54.46Y58.188
X54.878Y46.112
X56.057Y28.075
X58.236Y46.838
X58.481Y58.961
X59.233Y27.497
X61.09Y40.459
X61.274Y12.538
X63.89Y48.46
X64.002Y35.933
X64.981Y44.992
X66.445Y46.447
X66.498Y48.418
X70.34Y33.088
X70.851Y60.206
X74.829Y29.574
X75.103Y27.519
X75.103Y43.993
X75.749Y31.778
X75.944Y64.226
X76.475Y66.721
X76.554Y44.444
X77.33Y51.659
X77.578Y35.963
X77.926Y33.952
X78.276Y37.09
X78.764Y55.027
X78.904Y43.526
X79.2Y58.089
X80.728Y44.497
X82.264Y69.858
X82.676Y36.334
X83.886Y69.856
X85.477Y65.792
X85.544Y69.411
X85.555Y39.608
X86.212Y44.898
X86.362Y62.763
X86.601Y51.84
X86.989Y54.38
X87.087Y56.92
X87.475Y36.364
X87.939Y47.092
X88.122Y31.236
X89.209Y34.79
X89.875Y66.721
X90.593Y30.711
X91.245Y36.442
X92.173Y45.773
X92.584Y30.315
X92.692Y58.228
X92.784Y37.648
X93.546Y44.394
X93.799Y42.299
X94.297Y51.593
X94.899Y36.437
X95.738Y47.921
X96.569Y39.13
X97.0Y66.0
X97.974Y51.404
X98.7Y44.97
T2
X3.0Y36.5
X3.1Y30.8
X4.27Y36.5
X4.37Y30.8
X5.54Y36.5
X5.64Y30.8
X23.0Y58.5
X30.62Y58.5
T3
X1.84Y22.5
X2.0Y26.0
X3.5Y64.5
X3.5Y58.38
X3.5Y53.5
X5.5Y47.08
X5.5Y42.0
X8.04Y44.54
X8.5Y60.0
X8.5Y57.5
X8.5Y53.5
X8.5Y51.0
X8.58Y64.5
X9.5Y37.0
X9.5Y33.5
X9.5Y29.5
X12.0Y42.0
X12.0Y22.5
X12.16Y26.0
X12.5Y64.5
X12.5Y61.96
X12.5Y59.42
X12.5Y56.88
X12.5Y54.34
X12.5Y51.8
X12.5Y49.26
X14.5Y42.0
X19.66Y37.0
X19.66Y33.5
X19.66Y29.5
X20.12Y64.5
X20.12Y61.96
X20.12Y59.42
X20.12Y56.88
X20.12Y54.34
X20.12Y51.8
X20.12Y49.26
X22.64Y16.1
X22.64Y12.1
X23.0Y61.5
X23.0Y55.5
X23.0Y53.0
X26.0Y53.0
X26.0Y49.62
X26.0Y42.0
X26.0Y37.74
X26.0Y22.5
X28.5Y53.0
X28.54Y49.62
X28.54Y42.0
X28.54Y37.74
X28.54Y22.5
X31.08Y49.62
X31.08Y42.0
X31.08Y37.74
X31.08Y22.5
X32.8Y16.1
X32.8Y12.1
X33.16Y61.5
X33.62Y49.62
X33.62Y42.0
X33.62Y37.74
X33.62Y22.5
X35.6Y62.1
X35.6Y59.6
X36.16Y49.62
X36.16Y42.0
X36.16Y37.74
X36.16Y22.5
X38.0Y19.0
X38.0Y16.5
X38.5Y61.62
X38.5Y54.0
X38.7Y49.62
X38.7Y42.0
X38.7Y37.74
X38.7Y22.5
X41.04Y61.62
X41.04Y54.0
X41.24Y49.62
X41.24Y42.0
X41.24Y37.74
X41.24Y22.5
X41.5Y18.24
X41.5Y3.0
X43.58Y61.62
X43.58Y54.0
X43.78Y49.62
X43.78Y42.0
X43.78Y37.74
X43.78Y22.5
X44.04Y18.24
X44.04Y3.0
X46.12Y61.62
X46.12Y54.0
X46.32Y49.62
X46.32Y42.0
X46.32Y37.74
X46.32Y22.5
X46.58Y18.24
X46.58Y3.0
X48.66Y61.62
X48.66Y54.0
X48.86Y49.62
X48.86Y42.0
X48.86Y37.74
X48.86Y22.5
X49.12Y18.24
X49.12Y3.0
X51.2Y61.62
X51.2Y54.0
X51.4Y37.74
X51.4Y22.5
X51.66Y18.24
X51.66Y3.0
X52.0Y50.0
X52.0Y47.5
X53.74Y61.62
X53.74Y54.0
X53.94Y37.74
X53.94Y22.5
X54.2Y18.24
X54.2Y3.0
X55.0Y49.62
X55.0Y42.0
X56.48Y37.74
X56.48Y22.5
X56.7Y62.1
X56.7Y59.6
X56.74Y18.24
X56.74Y3.0
X57.54Y49.62
X57.54Y42.0
X59.02Y37.74
X59.02Y22.5
X59.28Y18.24
X59.28Y3.0
X59.5Y61.62
X59.5Y54.0
X60.08Y49.62
X60.08Y42.0
X61.56Y37.74
X61.56Y22.5
X61.82Y18.24
X61.82Y3.0
X62.04Y61.62
X62.04Y54.0
X62.62Y49.62
X62.62Y42.0
X64.1Y37.74
X64.1Y22.5
X64.36Y18.24
X64.36Y3.0
X64.58Y61.62
X64.58Y54.0
X65.16Y49.62
X65.16Y42.0
X66.5Y32.0
X66.5Y29.5
X66.64Y37.74
X66.64Y22.5
X66.9Y18.24
X66.9Y3.0
X67.12Y61.62
X67.12Y54.0
X67.7Y49.62
X67.7Y42.0
X69.18Y37.74
X69.18Y22.5
X69.44Y18.24
X69.44Y3.0
X69.66Y61.62
X69.66Y54.0
X70.24Y49.62
X70.24Y42.0
X71.72Y37.74
X71.72Y22.5
X71.98Y18.24
X71.98Y3.0
X72.2Y61.62
X72.2Y54.0
X72.78Y49.62
X72.78Y42.0
X74.26Y37.74
X74.26Y22.5
X74.52Y18.24
X74.52Y3.0
X74.74Y61.62
X74.74Y54.0
X75.32Y49.62
X75.32Y42.0
X77.86Y49.62
X77.86Y42.0
X78.4Y32.4
X78.4Y29.86
X78.4Y27.32
X78.4Y24.78
X78.4Y22.24
X78.4Y19.7
X78.4Y17.16
X78.4Y14.62
X78.4Y12.08
X78.4Y9.54
X83.0Y62.0
X83.0Y59.46
X83.0Y56.92
X83.0Y54.38
X83.0Y51.84
X83.0Y49.3
X83.0Y46.76
X83.0Y44.22
X83.0Y41.68
X83.0Y39.14
X83.9Y35.4
X86.02Y32.4
X86.02Y29.86
X86.02Y27.32
X86.02Y24.78
X86.02Y22.24
X86.02Y19.7
X86.02Y17.16
X86.02Y14.62
X86.02Y12.08
X86.02Y9.54
X86.4Y35.4
X88.5Y65.0
X89.8Y29.0
X89.8Y26.46
X89.8Y23.92
X89.8Y21.38
X89.8Y18.84
X89.8Y16.3
X89.8Y13.76
X89.8Y11.22
X90.62Y62.0
X90.62Y59.46
X90.62Y56.92
X90.62Y54.38
X90.62Y51.84
X90.62Y49.3
X90.62Y46.76
X90.62Y44.22
X90.62Y41.68
X90.62Y39.14
X91.0Y65.0
X94.9Y32.0
X97.4Y32.0
X97.42Y29.0
X97.42Y26.46
X97.42Y23.92
X97.42Y21.38
X97.42Y18.84
X97.42Y16.3
X97.42Y13.76
X97.42Y11.22
T4
X23.5Y6.2
X26.04Y6.2
X29.5Y6.2
X32.04Y6.2
T5
X26.0Y68.04
X26.0Y65.5
X28.54Y68.04
X28.54Y65.5
X31.08Y68.04
X31.08Y65.5
X33.62Y68.04
X33.62Y65.5
X36.16Y68.04
X36.16Y65.5
X38.7Y68.04
X38.7Y65.5
X41.24Y68.04
X41.24Y65.5
X43.78Y68.04
X43.78Y65.5
X46.32Y68.04
X46.32Y65.5
X48.86Y68.04
X48.86Y65.5
X51.4Y68.04
X51.4Y65.5
X53.94Y68.04
X53.94Y65.5
X56.48Y68.04
X56.48Y65.5
X59.02Y68.04
X59.02Y65.5
X61.56Y68.04
X61.56Y65.5
X64.1Y68.04
X64.1Y65.5
X66.64Y68.04
X66.64Y65.5
X69.18Y68.04
X69.18Y65.5
X71.72Y68.04
X71.72Y65.5
X74.26Y68.04
X74.26Y65.5
T7
X7.35Y18.75
X7.35Y10.25
T8
X5.5Y70.5
X5.5Y4.5
X94.5Y70.5
X94.5Y4.5
T6
G00X10.5Y13.75
M15
G01X10.5Y15.25
M16
G05
G00X15.75Y14.5
M15
G01X14.25Y14.5
M16
G05
T0
M30
