G04 #@! TF.GenerationSoftware,KiCad,Pcbnew,(5.1.10-1-10_14)*
G04 #@! TF.CreationDate,2021-12-18T16:06:10+09:00*
G04 #@! TF.ProjectId,K68-VDG,4b36382d-5644-4472-9e6b-696361645f70,rev?*
G04 #@! TF.SameCoordinates,PX8583b00PY93d1cc0*
G04 #@! TF.FileFunction,Legend,Top*
G04 #@! TF.FilePolarity,Positive*
%FSLAX46Y46*%
G04 Gerber Fmt 4.6, Leading zero omitted, Abs format (unit mm)*
G04 Created by KiCad (PCBNEW (5.1.10-1-10_14)) date 2021-12-18 16:06:10*
%MOMM*%
%LPD*%
G01*
G04 APERTURE LIST*
%ADD10C,0.200000*%
%ADD11C,0.300000*%
%ADD12C,0.150000*%
%ADD13C,0.120000*%
G04 APERTURE END LIST*
D10*
X94157142Y25842858D02*
X94157142Y25042858D01*
X92957142Y25557143D01*
X93757142Y24071429D02*
X92957142Y24071429D01*
X94214285Y24357143D02*
X93357142Y24642858D01*
X93357142Y23900000D01*
X92957142Y22871429D02*
X92957142Y23442858D01*
X94157142Y23442858D01*
X93014285Y22528572D02*
X92957142Y22357143D01*
X92957142Y22071429D01*
X93014285Y21957143D01*
X93071428Y21900000D01*
X93185714Y21842858D01*
X93300000Y21842858D01*
X93414285Y21900000D01*
X93471428Y21957143D01*
X93528571Y22071429D01*
X93585714Y22300000D01*
X93642857Y22414286D01*
X93700000Y22471429D01*
X93814285Y22528572D01*
X93928571Y22528572D01*
X94042857Y22471429D01*
X94100000Y22414286D01*
X94157142Y22300000D01*
X94157142Y22014286D01*
X94100000Y21842858D01*
X92957142Y20700000D02*
X92957142Y21385715D01*
X92957142Y21042858D02*
X94157142Y21042858D01*
X93985714Y21157143D01*
X93871428Y21271429D01*
X93814285Y21385715D01*
X94157142Y20300000D02*
X94157142Y19557143D01*
X93700000Y19957143D01*
X93700000Y19785715D01*
X93642857Y19671429D01*
X93585714Y19614286D01*
X93471428Y19557143D01*
X93185714Y19557143D01*
X93071428Y19614286D01*
X93014285Y19671429D01*
X92957142Y19785715D01*
X92957142Y20128572D01*
X93014285Y20242858D01*
X93071428Y20300000D01*
X93642857Y18871429D02*
X93700000Y18985715D01*
X93757142Y19042858D01*
X93871428Y19100000D01*
X93928571Y19100000D01*
X94042857Y19042858D01*
X94100000Y18985715D01*
X94157142Y18871429D01*
X94157142Y18642858D01*
X94100000Y18528572D01*
X94042857Y18471429D01*
X93928571Y18414286D01*
X93871428Y18414286D01*
X93757142Y18471429D01*
X93700000Y18528572D01*
X93642857Y18642858D01*
X93642857Y18871429D01*
X93585714Y18985715D01*
X93528571Y19042858D01*
X93414285Y19100000D01*
X93185714Y19100000D01*
X93071428Y19042858D01*
X93014285Y18985715D01*
X92957142Y18871429D01*
X92957142Y18642858D01*
X93014285Y18528572D01*
X93071428Y18471429D01*
X93185714Y18414286D01*
X93414285Y18414286D01*
X93528571Y18471429D01*
X93585714Y18528572D01*
X93642857Y18642858D01*
D11*
X78399761Y5655953D02*
X78399761Y7355953D01*
X79371190Y5655953D02*
X78642619Y6627381D01*
X79371190Y7355953D02*
X78399761Y6384524D01*
X80099761Y7355953D02*
X80099761Y5979762D01*
X80180714Y5817858D01*
X80261666Y5736905D01*
X80423571Y5655953D01*
X80747380Y5655953D01*
X80909285Y5736905D01*
X80990238Y5817858D01*
X81071190Y5979762D01*
X81071190Y7355953D01*
X81880714Y5655953D02*
X81880714Y7355953D01*
X82852142Y5655953D01*
X82852142Y7355953D01*
X83661666Y5655953D02*
X83661666Y7355953D01*
X84471190Y6303572D02*
X85766428Y6303572D01*
X86575952Y5655953D02*
X86575952Y7355953D01*
X87547380Y5655953D01*
X87547380Y7355953D01*
X88356904Y6546429D02*
X88923571Y6546429D01*
X89166428Y5655953D02*
X88356904Y5655953D01*
X88356904Y7355953D01*
X89166428Y7355953D01*
X89652142Y7355953D02*
X90623571Y7355953D01*
X90137857Y5655953D02*
X90137857Y7355953D01*
X78318809Y4344048D02*
X78399761Y4425000D01*
X78561666Y4505953D01*
X78966428Y4505953D01*
X79128333Y4425000D01*
X79209285Y4344048D01*
X79290238Y4182143D01*
X79290238Y4020239D01*
X79209285Y3777381D01*
X78237857Y2805953D01*
X79290238Y2805953D01*
X80342619Y4505953D02*
X80504523Y4505953D01*
X80666428Y4425000D01*
X80747380Y4344048D01*
X80828333Y4182143D01*
X80909285Y3858334D01*
X80909285Y3453572D01*
X80828333Y3129762D01*
X80747380Y2967858D01*
X80666428Y2886905D01*
X80504523Y2805953D01*
X80342619Y2805953D01*
X80180714Y2886905D01*
X80099761Y2967858D01*
X80018809Y3129762D01*
X79937857Y3453572D01*
X79937857Y3858334D01*
X80018809Y4182143D01*
X80099761Y4344048D01*
X80180714Y4425000D01*
X80342619Y4505953D01*
X81556904Y4344048D02*
X81637857Y4425000D01*
X81799761Y4505953D01*
X82204523Y4505953D01*
X82366428Y4425000D01*
X82447380Y4344048D01*
X82528333Y4182143D01*
X82528333Y4020239D01*
X82447380Y3777381D01*
X81475952Y2805953D01*
X82528333Y2805953D01*
X84147380Y2805953D02*
X83175952Y2805953D01*
X83661666Y2805953D02*
X83661666Y4505953D01*
X83499761Y4263096D01*
X83337857Y4101191D01*
X83175952Y4020239D01*
X9028809Y5089286D02*
X8624047Y5089286D01*
X8624047Y7517858D01*
X9028809Y7517858D01*
X9676428Y5655953D02*
X9676428Y7355953D01*
X10647857Y5655953D02*
X9919285Y6627381D01*
X10647857Y7355953D02*
X9676428Y6384524D01*
X12105000Y7355953D02*
X11781190Y7355953D01*
X11619285Y7275000D01*
X11538333Y7194048D01*
X11376428Y6951191D01*
X11295476Y6627381D01*
X11295476Y5979762D01*
X11376428Y5817858D01*
X11457380Y5736905D01*
X11619285Y5655953D01*
X11943095Y5655953D01*
X12105000Y5736905D01*
X12185952Y5817858D01*
X12266904Y5979762D01*
X12266904Y6384524D01*
X12185952Y6546429D01*
X12105000Y6627381D01*
X11943095Y6708334D01*
X11619285Y6708334D01*
X11457380Y6627381D01*
X11376428Y6546429D01*
X11295476Y6384524D01*
X13238333Y6627381D02*
X13076428Y6708334D01*
X12995476Y6789286D01*
X12914523Y6951191D01*
X12914523Y7032143D01*
X12995476Y7194048D01*
X13076428Y7275000D01*
X13238333Y7355953D01*
X13562142Y7355953D01*
X13724047Y7275000D01*
X13805000Y7194048D01*
X13885952Y7032143D01*
X13885952Y6951191D01*
X13805000Y6789286D01*
X13724047Y6708334D01*
X13562142Y6627381D01*
X13238333Y6627381D01*
X13076428Y6546429D01*
X12995476Y6465477D01*
X12914523Y6303572D01*
X12914523Y5979762D01*
X12995476Y5817858D01*
X13076428Y5736905D01*
X13238333Y5655953D01*
X13562142Y5655953D01*
X13724047Y5736905D01*
X13805000Y5817858D01*
X13885952Y5979762D01*
X13885952Y6303572D01*
X13805000Y6465477D01*
X13724047Y6546429D01*
X13562142Y6627381D01*
X14614523Y6303572D02*
X15909761Y6303572D01*
X16476428Y7355953D02*
X17043095Y5655953D01*
X17609761Y7355953D01*
X18176428Y5655953D02*
X18176428Y7355953D01*
X18581190Y7355953D01*
X18824047Y7275000D01*
X18985952Y7113096D01*
X19066904Y6951191D01*
X19147857Y6627381D01*
X19147857Y6384524D01*
X19066904Y6060715D01*
X18985952Y5898810D01*
X18824047Y5736905D01*
X18581190Y5655953D01*
X18176428Y5655953D01*
X20766904Y7275000D02*
X20605000Y7355953D01*
X20362142Y7355953D01*
X20119285Y7275000D01*
X19957380Y7113096D01*
X19876428Y6951191D01*
X19795476Y6627381D01*
X19795476Y6384524D01*
X19876428Y6060715D01*
X19957380Y5898810D01*
X20119285Y5736905D01*
X20362142Y5655953D01*
X20524047Y5655953D01*
X20766904Y5736905D01*
X20847857Y5817858D01*
X20847857Y6384524D01*
X20524047Y6384524D01*
X21414523Y5089286D02*
X21819285Y5089286D01*
X21819285Y7517858D01*
X21414523Y7517858D01*
X17366904Y2805953D02*
X16800238Y3615477D01*
X16395476Y2805953D02*
X16395476Y4505953D01*
X17043095Y4505953D01*
X17205000Y4425000D01*
X17285952Y4344048D01*
X17366904Y4182143D01*
X17366904Y3939286D01*
X17285952Y3777381D01*
X17205000Y3696429D01*
X17043095Y3615477D01*
X16395476Y3615477D01*
X18095476Y3696429D02*
X18662142Y3696429D01*
X18905000Y2805953D02*
X18095476Y2805953D01*
X18095476Y4505953D01*
X18905000Y4505953D01*
X19390714Y4505953D02*
X19957380Y2805953D01*
X20524047Y4505953D01*
X21981190Y2805953D02*
X21009761Y2805953D01*
X21495476Y2805953D02*
X21495476Y4505953D01*
X21333571Y4263096D01*
X21171666Y4101191D01*
X21009761Y4020239D01*
D12*
X1133333Y28652381D02*
X1180952Y28700000D01*
X1276190Y28747620D01*
X1514285Y28747620D01*
X1609523Y28700000D01*
X1657142Y28652381D01*
X1704761Y28557143D01*
X1704761Y28461905D01*
X1657142Y28319048D01*
X1085714Y27747620D01*
X1704761Y27747620D01*
X2085714Y27795239D02*
X2228571Y27747620D01*
X2466666Y27747620D01*
X2561904Y27795239D01*
X2609523Y27842858D01*
X2657142Y27938096D01*
X2657142Y28033334D01*
X2609523Y28128572D01*
X2561904Y28176191D01*
X2466666Y28223810D01*
X2276190Y28271429D01*
X2180952Y28319048D01*
X2133333Y28366667D01*
X2085714Y28461905D01*
X2085714Y28557143D01*
X2133333Y28652381D01*
X2180952Y28700000D01*
X2276190Y28747620D01*
X2514285Y28747620D01*
X2657142Y28700000D01*
X3657142Y27842858D02*
X3609523Y27795239D01*
X3466666Y27747620D01*
X3371428Y27747620D01*
X3228571Y27795239D01*
X3133333Y27890477D01*
X3085714Y27985715D01*
X3038095Y28176191D01*
X3038095Y28319048D01*
X3085714Y28509524D01*
X3133333Y28604762D01*
X3228571Y28700000D01*
X3371428Y28747620D01*
X3466666Y28747620D01*
X3609523Y28700000D01*
X3657142Y28652381D01*
X4609523Y27747620D02*
X4038095Y27747620D01*
X4323809Y27747620D02*
X4323809Y28747620D01*
X4228571Y28604762D01*
X4133333Y28509524D01*
X4038095Y28461905D01*
X5180952Y28319048D02*
X5085714Y28366667D01*
X5038095Y28414286D01*
X4990476Y28509524D01*
X4990476Y28557143D01*
X5038095Y28652381D01*
X5085714Y28700000D01*
X5180952Y28747620D01*
X5371428Y28747620D01*
X5466666Y28700000D01*
X5514285Y28652381D01*
X5561904Y28557143D01*
X5561904Y28509524D01*
X5514285Y28414286D01*
X5466666Y28366667D01*
X5371428Y28319048D01*
X5180952Y28319048D01*
X5085714Y28271429D01*
X5038095Y28223810D01*
X4990476Y28128572D01*
X4990476Y27938096D01*
X5038095Y27842858D01*
X5085714Y27795239D01*
X5180952Y27747620D01*
X5371428Y27747620D01*
X5466666Y27795239D01*
X5514285Y27842858D01*
X5561904Y27938096D01*
X5561904Y28128572D01*
X5514285Y28223810D01*
X5466666Y28271429D01*
X5371428Y28319048D01*
X6514285Y27747620D02*
X5942857Y27747620D01*
X6228571Y27747620D02*
X6228571Y28747620D01*
X6133333Y28604762D01*
X6038095Y28509524D01*
X5942857Y28461905D01*
X7419047Y28747620D02*
X6942857Y28747620D01*
X6895238Y28271429D01*
X6942857Y28319048D01*
X7038095Y28366667D01*
X7276190Y28366667D01*
X7371428Y28319048D01*
X7419047Y28271429D01*
X7466666Y28176191D01*
X7466666Y27938096D01*
X7419047Y27842858D01*
X7371428Y27795239D01*
X7276190Y27747620D01*
X7038095Y27747620D01*
X6942857Y27795239D01*
X6895238Y27842858D01*
X1104761Y34452381D02*
X1152380Y34500000D01*
X1247619Y34547620D01*
X1485714Y34547620D01*
X1580952Y34500000D01*
X1628571Y34452381D01*
X1676190Y34357143D01*
X1676190Y34261905D01*
X1628571Y34119048D01*
X1057142Y33547620D01*
X1676190Y33547620D01*
X2057142Y33595239D02*
X2200000Y33547620D01*
X2438095Y33547620D01*
X2533333Y33595239D01*
X2580952Y33642858D01*
X2628571Y33738096D01*
X2628571Y33833334D01*
X2580952Y33928572D01*
X2533333Y33976191D01*
X2438095Y34023810D01*
X2247619Y34071429D01*
X2152380Y34119048D01*
X2104761Y34166667D01*
X2057142Y34261905D01*
X2057142Y34357143D01*
X2104761Y34452381D01*
X2152380Y34500000D01*
X2247619Y34547620D01*
X2485714Y34547620D01*
X2628571Y34500000D01*
X3009523Y33833334D02*
X3485714Y33833334D01*
X2914285Y33547620D02*
X3247619Y34547620D01*
X3580952Y33547620D01*
X4438095Y33547620D02*
X3866666Y33547620D01*
X4152380Y33547620D02*
X4152380Y34547620D01*
X4057142Y34404762D01*
X3961904Y34309524D01*
X3866666Y34261905D01*
X5057142Y34547620D02*
X5152380Y34547620D01*
X5247619Y34500000D01*
X5295238Y34452381D01*
X5342857Y34357143D01*
X5390476Y34166667D01*
X5390476Y33928572D01*
X5342857Y33738096D01*
X5295238Y33642858D01*
X5247619Y33595239D01*
X5152380Y33547620D01*
X5057142Y33547620D01*
X4961904Y33595239D01*
X4914285Y33642858D01*
X4866666Y33738096D01*
X4819047Y33928572D01*
X4819047Y34166667D01*
X4866666Y34357143D01*
X4914285Y34452381D01*
X4961904Y34500000D01*
X5057142Y34547620D01*
X6342857Y33547620D02*
X5771428Y33547620D01*
X6057142Y33547620D02*
X6057142Y34547620D01*
X5961904Y34404762D01*
X5866666Y34309524D01*
X5771428Y34261905D01*
X7247619Y34547620D02*
X6771428Y34547620D01*
X6723809Y34071429D01*
X6771428Y34119048D01*
X6866666Y34166667D01*
X7104761Y34166667D01*
X7200000Y34119048D01*
X7247619Y34071429D01*
X7295238Y33976191D01*
X7295238Y33738096D01*
X7247619Y33642858D01*
X7200000Y33595239D01*
X7104761Y33547620D01*
X6866666Y33547620D01*
X6771428Y33595239D01*
X6723809Y33642858D01*
D10*
X49628571Y11657143D02*
X49400000Y11657143D01*
X49285714Y11600000D01*
X49228571Y11542858D01*
X49114285Y11371429D01*
X49057142Y11142858D01*
X49057142Y10685715D01*
X49114285Y10571429D01*
X49171428Y10514286D01*
X49285714Y10457143D01*
X49514285Y10457143D01*
X49628571Y10514286D01*
X49685714Y10571429D01*
X49742857Y10685715D01*
X49742857Y10971429D01*
X49685714Y11085715D01*
X49628571Y11142858D01*
X49514285Y11200000D01*
X49285714Y11200000D01*
X49171428Y11142858D01*
X49114285Y11085715D01*
X49057142Y10971429D01*
X50200000Y11542858D02*
X50257142Y11600000D01*
X50371428Y11657143D01*
X50657142Y11657143D01*
X50771428Y11600000D01*
X50828571Y11542858D01*
X50885714Y11428572D01*
X50885714Y11314286D01*
X50828571Y11142858D01*
X50142857Y10457143D01*
X50885714Y10457143D01*
X51342857Y11542858D02*
X51400000Y11600000D01*
X51514285Y11657143D01*
X51800000Y11657143D01*
X51914285Y11600000D01*
X51971428Y11542858D01*
X52028571Y11428572D01*
X52028571Y11314286D01*
X51971428Y11142858D01*
X51285714Y10457143D01*
X52028571Y10457143D01*
X53114285Y11657143D02*
X52542857Y11657143D01*
X52485714Y11085715D01*
X52542857Y11142858D01*
X52657142Y11200000D01*
X52942857Y11200000D01*
X53057142Y11142858D01*
X53114285Y11085715D01*
X53171428Y10971429D01*
X53171428Y10685715D01*
X53114285Y10571429D01*
X53057142Y10514286D01*
X52942857Y10457143D01*
X52657142Y10457143D01*
X52542857Y10514286D01*
X52485714Y10571429D01*
X54200000Y11657143D02*
X53971428Y11657143D01*
X53857142Y11600000D01*
X53800000Y11542858D01*
X53685714Y11371429D01*
X53628571Y11142858D01*
X53628571Y10685715D01*
X53685714Y10571429D01*
X53742857Y10514286D01*
X53857142Y10457143D01*
X54085714Y10457143D01*
X54200000Y10514286D01*
X54257142Y10571429D01*
X54314285Y10685715D01*
X54314285Y10971429D01*
X54257142Y11085715D01*
X54200000Y11142858D01*
X54085714Y11200000D01*
X53857142Y11200000D01*
X53742857Y11142858D01*
X53685714Y11085715D01*
X53628571Y10971429D01*
X56085714Y10000000D02*
X56028571Y10057143D01*
X55914285Y10228572D01*
X55857142Y10342858D01*
X55800000Y10514286D01*
X55742857Y10800000D01*
X55742857Y11028572D01*
X55800000Y11314286D01*
X55857142Y11485715D01*
X55914285Y11600000D01*
X56028571Y11771429D01*
X56085714Y11828572D01*
X56428571Y11657143D02*
X57171428Y11657143D01*
X56771428Y11200000D01*
X56942857Y11200000D01*
X57057142Y11142858D01*
X57114285Y11085715D01*
X57171428Y10971429D01*
X57171428Y10685715D01*
X57114285Y10571429D01*
X57057142Y10514286D01*
X56942857Y10457143D01*
X56600000Y10457143D01*
X56485714Y10514286D01*
X56428571Y10571429D01*
X57628571Y11542858D02*
X57685714Y11600000D01*
X57800000Y11657143D01*
X58085714Y11657143D01*
X58200000Y11600000D01*
X58257142Y11542858D01*
X58314285Y11428572D01*
X58314285Y11314286D01*
X58257142Y11142858D01*
X57571428Y10457143D01*
X58314285Y10457143D01*
X58828571Y10457143D02*
X58828571Y11657143D01*
X58942857Y10914286D02*
X59285714Y10457143D01*
X59285714Y11257143D02*
X58828571Y10800000D01*
X60200000Y11085715D02*
X60371428Y11028572D01*
X60428571Y10971429D01*
X60485714Y10857143D01*
X60485714Y10685715D01*
X60428571Y10571429D01*
X60371428Y10514286D01*
X60257142Y10457143D01*
X59800000Y10457143D01*
X59800000Y11657143D01*
X60200000Y11657143D01*
X60314285Y11600000D01*
X60371428Y11542858D01*
X60428571Y11428572D01*
X60428571Y11314286D01*
X60371428Y11200000D01*
X60314285Y11142858D01*
X60200000Y11085715D01*
X59800000Y11085715D01*
X61857142Y10514286D02*
X62028571Y10457143D01*
X62314285Y10457143D01*
X62428571Y10514286D01*
X62485714Y10571429D01*
X62542857Y10685715D01*
X62542857Y10800000D01*
X62485714Y10914286D01*
X62428571Y10971429D01*
X62314285Y11028572D01*
X62085714Y11085715D01*
X61971428Y11142858D01*
X61914285Y11200000D01*
X61857142Y11314286D01*
X61857142Y11428572D01*
X61914285Y11542858D01*
X61971428Y11600000D01*
X62085714Y11657143D01*
X62371428Y11657143D01*
X62542857Y11600000D01*
X63742857Y10457143D02*
X63342857Y11028572D01*
X63057142Y10457143D02*
X63057142Y11657143D01*
X63514285Y11657143D01*
X63628571Y11600000D01*
X63685714Y11542858D01*
X63742857Y11428572D01*
X63742857Y11257143D01*
X63685714Y11142858D01*
X63628571Y11085715D01*
X63514285Y11028572D01*
X63057142Y11028572D01*
X64200000Y10800000D02*
X64771428Y10800000D01*
X64085714Y10457143D02*
X64485714Y11657143D01*
X64885714Y10457143D01*
X65285714Y10457143D02*
X65285714Y11657143D01*
X65685714Y10800000D01*
X66085714Y11657143D01*
X66085714Y10457143D01*
X66542857Y10000000D02*
X66600000Y10057143D01*
X66714285Y10228572D01*
X66771428Y10342858D01*
X66828571Y10514286D01*
X66885714Y10800000D01*
X66885714Y11028572D01*
X66828571Y11314286D01*
X66771428Y11485715D01*
X66714285Y11600000D01*
X66600000Y11771429D01*
X66542857Y11828572D01*
X83057142Y26642858D02*
X83057142Y25842858D01*
X81857142Y26357143D01*
X82657142Y24871429D02*
X81857142Y24871429D01*
X83114285Y25157143D02*
X82257142Y25442858D01*
X82257142Y24700000D01*
X81857142Y23671429D02*
X81857142Y24242858D01*
X83057142Y24242858D01*
X81914285Y23328572D02*
X81857142Y23157143D01*
X81857142Y22871429D01*
X81914285Y22757143D01*
X81971428Y22700000D01*
X82085714Y22642858D01*
X82200000Y22642858D01*
X82314285Y22700000D01*
X82371428Y22757143D01*
X82428571Y22871429D01*
X82485714Y23100000D01*
X82542857Y23214286D01*
X82600000Y23271429D01*
X82714285Y23328572D01*
X82828571Y23328572D01*
X82942857Y23271429D01*
X83000000Y23214286D01*
X83057142Y23100000D01*
X83057142Y22814286D01*
X83000000Y22642858D01*
X82942857Y22185715D02*
X83000000Y22128572D01*
X83057142Y22014286D01*
X83057142Y21728572D01*
X83000000Y21614286D01*
X82942857Y21557143D01*
X82828571Y21500000D01*
X82714285Y21500000D01*
X82542857Y21557143D01*
X81857142Y22242858D01*
X81857142Y21500000D01*
X82657142Y20471429D02*
X81857142Y20471429D01*
X83114285Y20757143D02*
X82257142Y21042858D01*
X82257142Y20300000D01*
X83057142Y19271429D02*
X83057142Y19842858D01*
X82485714Y19900000D01*
X82542857Y19842858D01*
X82600000Y19728572D01*
X82600000Y19442858D01*
X82542857Y19328572D01*
X82485714Y19271429D01*
X82371428Y19214286D01*
X82085714Y19214286D01*
X81971428Y19271429D01*
X81914285Y19328572D01*
X81857142Y19442858D01*
X81857142Y19728572D01*
X81914285Y19842858D01*
X81971428Y19900000D01*
X88157142Y59742858D02*
X88157142Y58942858D01*
X86957142Y59457143D01*
X87757142Y57971429D02*
X86957142Y57971429D01*
X88214285Y58257143D02*
X87357142Y58542858D01*
X87357142Y57800000D01*
X86957142Y56771429D02*
X86957142Y57342858D01*
X88157142Y57342858D01*
X87014285Y56428572D02*
X86957142Y56257143D01*
X86957142Y55971429D01*
X87014285Y55857143D01*
X87071428Y55800000D01*
X87185714Y55742858D01*
X87300000Y55742858D01*
X87414285Y55800000D01*
X87471428Y55857143D01*
X87528571Y55971429D01*
X87585714Y56200000D01*
X87642857Y56314286D01*
X87700000Y56371429D01*
X87814285Y56428572D01*
X87928571Y56428572D01*
X88042857Y56371429D01*
X88100000Y56314286D01*
X88157142Y56200000D01*
X88157142Y55914286D01*
X88100000Y55742858D01*
X88157142Y54657143D02*
X88157142Y55228572D01*
X87585714Y55285715D01*
X87642857Y55228572D01*
X87700000Y55114286D01*
X87700000Y54828572D01*
X87642857Y54714286D01*
X87585714Y54657143D01*
X87471428Y54600000D01*
X87185714Y54600000D01*
X87071428Y54657143D01*
X87014285Y54714286D01*
X86957142Y54828572D01*
X86957142Y55114286D01*
X87014285Y55228572D01*
X87071428Y55285715D01*
X88157142Y54200000D02*
X88157142Y53400000D01*
X86957142Y53914286D01*
X88157142Y53057143D02*
X88157142Y52314286D01*
X87700000Y52714286D01*
X87700000Y52542858D01*
X87642857Y52428572D01*
X87585714Y52371429D01*
X87471428Y52314286D01*
X87185714Y52314286D01*
X87071428Y52371429D01*
X87014285Y52428572D01*
X86957142Y52542858D01*
X86957142Y52885715D01*
X87014285Y53000000D01*
X87071428Y53057143D01*
X31042857Y29457143D02*
X31042857Y30657143D01*
X31442857Y29800000D01*
X31842857Y30657143D01*
X31842857Y29457143D01*
X33100000Y29571429D02*
X33042857Y29514286D01*
X32871428Y29457143D01*
X32757142Y29457143D01*
X32585714Y29514286D01*
X32471428Y29628572D01*
X32414285Y29742858D01*
X32357142Y29971429D01*
X32357142Y30142858D01*
X32414285Y30371429D01*
X32471428Y30485715D01*
X32585714Y30600000D01*
X32757142Y30657143D01*
X32871428Y30657143D01*
X33042857Y30600000D01*
X33100000Y30542858D01*
X34128571Y30657143D02*
X33900000Y30657143D01*
X33785714Y30600000D01*
X33728571Y30542858D01*
X33614285Y30371429D01*
X33557142Y30142858D01*
X33557142Y29685715D01*
X33614285Y29571429D01*
X33671428Y29514286D01*
X33785714Y29457143D01*
X34014285Y29457143D01*
X34128571Y29514286D01*
X34185714Y29571429D01*
X34242857Y29685715D01*
X34242857Y29971429D01*
X34185714Y30085715D01*
X34128571Y30142858D01*
X34014285Y30200000D01*
X33785714Y30200000D01*
X33671428Y30142858D01*
X33614285Y30085715D01*
X33557142Y29971429D01*
X34928571Y30142858D02*
X34814285Y30200000D01*
X34757142Y30257143D01*
X34700000Y30371429D01*
X34700000Y30428572D01*
X34757142Y30542858D01*
X34814285Y30600000D01*
X34928571Y30657143D01*
X35157142Y30657143D01*
X35271428Y30600000D01*
X35328571Y30542858D01*
X35385714Y30428572D01*
X35385714Y30371429D01*
X35328571Y30257143D01*
X35271428Y30200000D01*
X35157142Y30142858D01*
X34928571Y30142858D01*
X34814285Y30085715D01*
X34757142Y30028572D01*
X34700000Y29914286D01*
X34700000Y29685715D01*
X34757142Y29571429D01*
X34814285Y29514286D01*
X34928571Y29457143D01*
X35157142Y29457143D01*
X35271428Y29514286D01*
X35328571Y29571429D01*
X35385714Y29685715D01*
X35385714Y29914286D01*
X35328571Y30028572D01*
X35271428Y30085715D01*
X35157142Y30142858D01*
X36414285Y30257143D02*
X36414285Y29457143D01*
X36128571Y30714286D02*
X35842857Y29857143D01*
X36585714Y29857143D01*
X36928571Y30657143D02*
X37728571Y30657143D01*
X37214285Y29457143D01*
X38928571Y30657143D02*
X39328571Y29457143D01*
X39728571Y30657143D01*
X40128571Y29457143D02*
X40128571Y30657143D01*
X40414285Y30657143D01*
X40585714Y30600000D01*
X40700000Y30485715D01*
X40757142Y30371429D01*
X40814285Y30142858D01*
X40814285Y29971429D01*
X40757142Y29742858D01*
X40700000Y29628572D01*
X40585714Y29514286D01*
X40414285Y29457143D01*
X40128571Y29457143D01*
X41957142Y30600000D02*
X41842857Y30657143D01*
X41671428Y30657143D01*
X41500000Y30600000D01*
X41385714Y30485715D01*
X41328571Y30371429D01*
X41271428Y30142858D01*
X41271428Y29971429D01*
X41328571Y29742858D01*
X41385714Y29628572D01*
X41500000Y29514286D01*
X41671428Y29457143D01*
X41785714Y29457143D01*
X41957142Y29514286D01*
X42014285Y29571429D01*
X42014285Y29971429D01*
X41785714Y29971429D01*
X64257142Y46157143D02*
X65057142Y46157143D01*
X64542857Y44957143D01*
X66028571Y45757143D02*
X66028571Y44957143D01*
X65742857Y46214286D02*
X65457142Y45357143D01*
X66200000Y45357143D01*
X67228571Y44957143D02*
X66657142Y44957143D01*
X66657142Y46157143D01*
X67571428Y45014286D02*
X67742857Y44957143D01*
X68028571Y44957143D01*
X68142857Y45014286D01*
X68200000Y45071429D01*
X68257142Y45185715D01*
X68257142Y45300000D01*
X68200000Y45414286D01*
X68142857Y45471429D01*
X68028571Y45528572D01*
X67800000Y45585715D01*
X67685714Y45642858D01*
X67628571Y45700000D01*
X67571428Y45814286D01*
X67571428Y45928572D01*
X67628571Y46042858D01*
X67685714Y46100000D01*
X67800000Y46157143D01*
X68085714Y46157143D01*
X68257142Y46100000D01*
X68714285Y46042858D02*
X68771428Y46100000D01*
X68885714Y46157143D01*
X69171428Y46157143D01*
X69285714Y46100000D01*
X69342857Y46042858D01*
X69400000Y45928572D01*
X69400000Y45814286D01*
X69342857Y45642858D01*
X68657142Y44957143D01*
X69400000Y44957143D01*
X70428571Y45757143D02*
X70428571Y44957143D01*
X70142857Y46214286D02*
X69857142Y45357143D01*
X70600000Y45357143D01*
X71571428Y45757143D02*
X71571428Y44957143D01*
X71285714Y46214286D02*
X71000000Y45357143D01*
X71742857Y45357143D01*
X34257142Y46157143D02*
X35057142Y46157143D01*
X34542857Y44957143D01*
X36028571Y45757143D02*
X36028571Y44957143D01*
X35742857Y46214286D02*
X35457142Y45357143D01*
X36200000Y45357143D01*
X37228571Y44957143D02*
X36657142Y44957143D01*
X36657142Y46157143D01*
X37571428Y45014286D02*
X37742857Y44957143D01*
X38028571Y44957143D01*
X38142857Y45014286D01*
X38200000Y45071429D01*
X38257142Y45185715D01*
X38257142Y45300000D01*
X38200000Y45414286D01*
X38142857Y45471429D01*
X38028571Y45528572D01*
X37800000Y45585715D01*
X37685714Y45642858D01*
X37628571Y45700000D01*
X37571428Y45814286D01*
X37571428Y45928572D01*
X37628571Y46042858D01*
X37685714Y46100000D01*
X37800000Y46157143D01*
X38085714Y46157143D01*
X38257142Y46100000D01*
X38714285Y46042858D02*
X38771428Y46100000D01*
X38885714Y46157143D01*
X39171428Y46157143D01*
X39285714Y46100000D01*
X39342857Y46042858D01*
X39400000Y45928572D01*
X39400000Y45814286D01*
X39342857Y45642858D01*
X38657142Y44957143D01*
X39400000Y44957143D01*
X40428571Y45757143D02*
X40428571Y44957143D01*
X40142857Y46214286D02*
X39857142Y45357143D01*
X40600000Y45357143D01*
X41571428Y45757143D02*
X41571428Y44957143D01*
X41285714Y46214286D02*
X41000000Y45357143D01*
X41742857Y45357143D01*
X64328571Y58657143D02*
X65128571Y58657143D01*
X64614285Y57457143D01*
X66100000Y58257143D02*
X66100000Y57457143D01*
X65814285Y58714286D02*
X65528571Y57857143D01*
X66271428Y57857143D01*
X67300000Y57457143D02*
X66728571Y57457143D01*
X66728571Y58657143D01*
X67642857Y57514286D02*
X67814285Y57457143D01*
X68100000Y57457143D01*
X68214285Y57514286D01*
X68271428Y57571429D01*
X68328571Y57685715D01*
X68328571Y57800000D01*
X68271428Y57914286D01*
X68214285Y57971429D01*
X68100000Y58028572D01*
X67871428Y58085715D01*
X67757142Y58142858D01*
X67700000Y58200000D01*
X67642857Y58314286D01*
X67642857Y58428572D01*
X67700000Y58542858D01*
X67757142Y58600000D01*
X67871428Y58657143D01*
X68157142Y58657143D01*
X68328571Y58600000D01*
X68728571Y58657143D02*
X69471428Y58657143D01*
X69071428Y58200000D01*
X69242857Y58200000D01*
X69357142Y58142858D01*
X69414285Y58085715D01*
X69471428Y57971429D01*
X69471428Y57685715D01*
X69414285Y57571429D01*
X69357142Y57514286D01*
X69242857Y57457143D01*
X68900000Y57457143D01*
X68785714Y57514286D01*
X68728571Y57571429D01*
X69928571Y58542858D02*
X69985714Y58600000D01*
X70100000Y58657143D01*
X70385714Y58657143D01*
X70500000Y58600000D01*
X70557142Y58542858D01*
X70614285Y58428572D01*
X70614285Y58314286D01*
X70557142Y58142858D01*
X69871428Y57457143D01*
X70614285Y57457143D01*
X43328571Y58157143D02*
X44128571Y58157143D01*
X43614285Y56957143D01*
X45100000Y57757143D02*
X45100000Y56957143D01*
X44814285Y58214286D02*
X44528571Y57357143D01*
X45271428Y57357143D01*
X46300000Y56957143D02*
X45728571Y56957143D01*
X45728571Y58157143D01*
X46642857Y57014286D02*
X46814285Y56957143D01*
X47100000Y56957143D01*
X47214285Y57014286D01*
X47271428Y57071429D01*
X47328571Y57185715D01*
X47328571Y57300000D01*
X47271428Y57414286D01*
X47214285Y57471429D01*
X47100000Y57528572D01*
X46871428Y57585715D01*
X46757142Y57642858D01*
X46700000Y57700000D01*
X46642857Y57814286D01*
X46642857Y57928572D01*
X46700000Y58042858D01*
X46757142Y58100000D01*
X46871428Y58157143D01*
X47157142Y58157143D01*
X47328571Y58100000D01*
X48071428Y58157143D02*
X48185714Y58157143D01*
X48300000Y58100000D01*
X48357142Y58042858D01*
X48414285Y57928572D01*
X48471428Y57700000D01*
X48471428Y57414286D01*
X48414285Y57185715D01*
X48357142Y57071429D01*
X48300000Y57014286D01*
X48185714Y56957143D01*
X48071428Y56957143D01*
X47957142Y57014286D01*
X47900000Y57071429D01*
X47842857Y57185715D01*
X47785714Y57414286D01*
X47785714Y57700000D01*
X47842857Y57928572D01*
X47900000Y58042858D01*
X47957142Y58100000D01*
X48071428Y58157143D01*
X48928571Y58042858D02*
X48985714Y58100000D01*
X49100000Y58157143D01*
X49385714Y58157143D01*
X49500000Y58100000D01*
X49557142Y58042858D01*
X49614285Y57928572D01*
X49614285Y57814286D01*
X49557142Y57642858D01*
X48871428Y56957143D01*
X49614285Y56957143D01*
X15957142Y60785715D02*
X17157142Y60785715D01*
X16300000Y60385715D01*
X17157142Y59985715D01*
X15957142Y59985715D01*
X16071428Y58728572D02*
X16014285Y58785715D01*
X15957142Y58957143D01*
X15957142Y59071429D01*
X16014285Y59242858D01*
X16128571Y59357143D01*
X16242857Y59414286D01*
X16471428Y59471429D01*
X16642857Y59471429D01*
X16871428Y59414286D01*
X16985714Y59357143D01*
X17100000Y59242858D01*
X17157142Y59071429D01*
X17157142Y58957143D01*
X17100000Y58785715D01*
X17042857Y58728572D01*
X15957142Y57585715D02*
X15957142Y58271429D01*
X15957142Y57928572D02*
X17157142Y57928572D01*
X16985714Y58042858D01*
X16871428Y58157143D01*
X16814285Y58271429D01*
X17157142Y57185715D02*
X17157142Y56442858D01*
X16700000Y56842858D01*
X16700000Y56671429D01*
X16642857Y56557143D01*
X16585714Y56500000D01*
X16471428Y56442858D01*
X16185714Y56442858D01*
X16071428Y56500000D01*
X16014285Y56557143D01*
X15957142Y56671429D01*
X15957142Y57014286D01*
X16014285Y57128572D01*
X16071428Y57185715D01*
X17157142Y56042858D02*
X17157142Y55242858D01*
X15957142Y55757143D01*
X17042857Y54842858D02*
X17100000Y54785715D01*
X17157142Y54671429D01*
X17157142Y54385715D01*
X17100000Y54271429D01*
X17042857Y54214286D01*
X16928571Y54157143D01*
X16814285Y54157143D01*
X16642857Y54214286D01*
X15957142Y54900000D01*
X15957142Y54157143D01*
D13*
X4870000Y64500000D02*
X7480000Y64500000D01*
X4870000Y64500000D02*
G75*
G03*
X4870000Y64500000I-1370000J0D01*
G01*
X98860000Y30390000D02*
X88360000Y30390000D01*
X98860000Y9830000D02*
X98860000Y30390000D01*
X88360000Y9830000D02*
X98860000Y9830000D01*
X88360000Y30390000D02*
X88360000Y9830000D01*
X95860000Y30330000D02*
X94610000Y30330000D01*
X95860000Y9890000D02*
X95860000Y30330000D01*
X91360000Y9890000D02*
X95860000Y9890000D01*
X91360000Y30330000D02*
X91360000Y9890000D01*
X92610000Y30330000D02*
X91360000Y30330000D01*
X94610000Y30330000D02*
G75*
G02*
X92610000Y30330000I-1000000J0D01*
G01*
X95521000Y31080000D02*
X96779000Y31080000D01*
X95521000Y32920000D02*
X96779000Y32920000D01*
X40170000Y9620000D02*
X40170000Y4560000D01*
X40170000Y4560000D02*
X75850000Y4560000D01*
X75850000Y4560000D02*
X75850000Y16680000D01*
X75850000Y16680000D02*
X40170000Y16680000D01*
X40170000Y16680000D02*
X40170000Y11620000D01*
X40110000Y1560000D02*
X75910000Y1560000D01*
X75910000Y1560000D02*
X75910000Y19680000D01*
X75910000Y19680000D02*
X40110000Y19680000D01*
X40110000Y19680000D02*
X40110000Y1560000D01*
X40170000Y11620000D02*
G75*
G02*
X40170000Y9620000I0J-1000000D01*
G01*
X975000Y52815000D02*
X975000Y59065000D01*
X6025000Y52815000D02*
X6025000Y59065000D01*
X6025000Y59065000D02*
G75*
G03*
X975000Y59065000I-2525000J0D01*
G01*
X6025000Y52815000D02*
G75*
G02*
X975000Y52815000I-2525000J0D01*
G01*
X53670000Y44810000D02*
X53670000Y43560000D01*
X53670000Y43560000D02*
X79190000Y43560000D01*
X79190000Y43560000D02*
X79190000Y48060000D01*
X79190000Y48060000D02*
X53670000Y48060000D01*
X53670000Y48060000D02*
X53670000Y46810000D01*
X53610000Y40560000D02*
X79250000Y40560000D01*
X79250000Y40560000D02*
X79250000Y51060000D01*
X79250000Y51060000D02*
X53610000Y51060000D01*
X53610000Y51060000D02*
X53610000Y40560000D01*
X53670000Y46810000D02*
G75*
G02*
X53670000Y44810000I0J-1000000D01*
G01*
X81210000Y33730000D02*
X79960000Y33730000D01*
X79960000Y33730000D02*
X79960000Y8210000D01*
X79960000Y8210000D02*
X84460000Y8210000D01*
X84460000Y8210000D02*
X84460000Y33730000D01*
X84460000Y33730000D02*
X83210000Y33730000D01*
X76960000Y33790000D02*
X76960000Y8150000D01*
X76960000Y8150000D02*
X87460000Y8150000D01*
X87460000Y8150000D02*
X87460000Y33790000D01*
X87460000Y33790000D02*
X76960000Y33790000D01*
X83210000Y33730000D02*
G75*
G02*
X81210000Y33730000I-1000000J0D01*
G01*
X24670000Y44810000D02*
X24670000Y43560000D01*
X24670000Y43560000D02*
X50190000Y43560000D01*
X50190000Y43560000D02*
X50190000Y48060000D01*
X50190000Y48060000D02*
X24670000Y48060000D01*
X24670000Y48060000D02*
X24670000Y46810000D01*
X24610000Y40560000D02*
X50250000Y40560000D01*
X50250000Y40560000D02*
X50250000Y51060000D01*
X50250000Y51060000D02*
X24610000Y51060000D01*
X24610000Y51060000D02*
X24610000Y40560000D01*
X24670000Y46810000D02*
G75*
G02*
X24670000Y44810000I0J-1000000D01*
G01*
X37170000Y56810000D02*
X37170000Y55560000D01*
X37170000Y55560000D02*
X55070000Y55560000D01*
X55070000Y55560000D02*
X55070000Y60060000D01*
X55070000Y60060000D02*
X37170000Y60060000D01*
X37170000Y60060000D02*
X37170000Y58810000D01*
X37110000Y52560000D02*
X55130000Y52560000D01*
X55130000Y52560000D02*
X55130000Y63060000D01*
X55130000Y63060000D02*
X37110000Y63060000D01*
X37110000Y63060000D02*
X37110000Y52560000D01*
X37170000Y58810000D02*
G75*
G02*
X37170000Y56810000I0J-1000000D01*
G01*
X85810000Y63330000D02*
X84560000Y63330000D01*
X84560000Y63330000D02*
X84560000Y37810000D01*
X84560000Y37810000D02*
X89060000Y37810000D01*
X89060000Y37810000D02*
X89060000Y63330000D01*
X89060000Y63330000D02*
X87810000Y63330000D01*
X81560000Y63390000D02*
X81560000Y37750000D01*
X81560000Y37750000D02*
X92060000Y37750000D01*
X92060000Y37750000D02*
X92060000Y63390000D01*
X92060000Y63390000D02*
X81560000Y63390000D01*
X87810000Y63330000D02*
G75*
G02*
X85810000Y63330000I-1000000J0D01*
G01*
X58170000Y56810000D02*
X58170000Y55560000D01*
X58170000Y55560000D02*
X76070000Y55560000D01*
X76070000Y55560000D02*
X76070000Y60060000D01*
X76070000Y60060000D02*
X58170000Y60060000D01*
X58170000Y60060000D02*
X58170000Y58810000D01*
X58110000Y52560000D02*
X76130000Y52560000D01*
X76130000Y52560000D02*
X76130000Y63060000D01*
X76130000Y63060000D02*
X58110000Y63060000D01*
X58110000Y63060000D02*
X58110000Y52560000D01*
X58170000Y58810000D02*
G75*
G02*
X58170000Y56810000I0J-1000000D01*
G01*
X15310000Y65830000D02*
X14060000Y65830000D01*
X14060000Y65830000D02*
X14060000Y47930000D01*
X14060000Y47930000D02*
X18560000Y47930000D01*
X18560000Y47930000D02*
X18560000Y65830000D01*
X18560000Y65830000D02*
X17310000Y65830000D01*
X11060000Y65890000D02*
X11060000Y47870000D01*
X11060000Y47870000D02*
X21560000Y47870000D01*
X21560000Y47870000D02*
X21560000Y65890000D01*
X21560000Y65890000D02*
X11060000Y65890000D01*
X17310000Y65830000D02*
G75*
G02*
X15310000Y65830000I-1000000J0D01*
G01*
X24670000Y29120000D02*
X24670000Y24060000D01*
X24670000Y24060000D02*
X75590000Y24060000D01*
X75590000Y24060000D02*
X75590000Y36180000D01*
X75590000Y36180000D02*
X24670000Y36180000D01*
X24670000Y36180000D02*
X24670000Y31120000D01*
X24610000Y21060000D02*
X75650000Y21060000D01*
X75650000Y21060000D02*
X75650000Y39180000D01*
X75650000Y39180000D02*
X24610000Y39180000D01*
X24610000Y39180000D02*
X24610000Y21060000D01*
X24670000Y31120000D02*
G75*
G02*
X24670000Y29120000I0J-1000000D01*
G01*
X600000Y49425000D02*
X10370000Y49425000D01*
X600000Y39655000D02*
X10370000Y39655000D01*
X600000Y49425000D02*
X600000Y39655000D01*
X10370000Y49425000D02*
X10370000Y39655000D01*
X30990000Y10730000D02*
X30990000Y13470000D01*
X30990000Y13470000D02*
X24450000Y13470000D01*
X24450000Y13470000D02*
X24450000Y10730000D01*
X24450000Y10730000D02*
X30990000Y10730000D01*
X31760000Y12100000D02*
X30990000Y12100000D01*
X23680000Y12100000D02*
X24450000Y12100000D01*
X30990000Y14730000D02*
X30990000Y17470000D01*
X30990000Y17470000D02*
X24450000Y17470000D01*
X24450000Y17470000D02*
X24450000Y14730000D01*
X24450000Y14730000D02*
X30990000Y14730000D01*
X31760000Y16100000D02*
X30990000Y16100000D01*
X23680000Y16100000D02*
X24450000Y16100000D01*
X3810000Y27370000D02*
X3810000Y24630000D01*
X3810000Y24630000D02*
X10350000Y24630000D01*
X10350000Y24630000D02*
X10350000Y27370000D01*
X10350000Y27370000D02*
X3810000Y27370000D01*
X3040000Y26000000D02*
X3810000Y26000000D01*
X11120000Y26000000D02*
X10350000Y26000000D01*
X11310000Y30870000D02*
X11310000Y28130000D01*
X11310000Y28130000D02*
X17850000Y28130000D01*
X17850000Y28130000D02*
X17850000Y30870000D01*
X17850000Y30870000D02*
X11310000Y30870000D01*
X10540000Y29500000D02*
X11310000Y29500000D01*
X18620000Y29500000D02*
X17850000Y29500000D01*
X10190000Y21130000D02*
X10190000Y23870000D01*
X10190000Y23870000D02*
X3650000Y23870000D01*
X3650000Y23870000D02*
X3650000Y21130000D01*
X3650000Y21130000D02*
X10190000Y21130000D01*
X10960000Y22500000D02*
X10190000Y22500000D01*
X2880000Y22500000D02*
X3650000Y22500000D01*
X11310000Y34870000D02*
X11310000Y32130000D01*
X11310000Y32130000D02*
X17850000Y32130000D01*
X17850000Y32130000D02*
X17850000Y34870000D01*
X17850000Y34870000D02*
X11310000Y34870000D01*
X10540000Y33500000D02*
X11310000Y33500000D01*
X18620000Y33500000D02*
X17850000Y33500000D01*
X11310000Y38370000D02*
X11310000Y35630000D01*
X11310000Y35630000D02*
X17850000Y35630000D01*
X17850000Y35630000D02*
X17850000Y38370000D01*
X17850000Y38370000D02*
X11310000Y38370000D01*
X10540000Y37000000D02*
X11310000Y37000000D01*
X18620000Y37000000D02*
X17850000Y37000000D01*
X24810000Y62870000D02*
X24810000Y60130000D01*
X24810000Y60130000D02*
X31350000Y60130000D01*
X31350000Y60130000D02*
X31350000Y62870000D01*
X31350000Y62870000D02*
X24810000Y62870000D01*
X24040000Y61500000D02*
X24810000Y61500000D01*
X32120000Y61500000D02*
X31350000Y61500000D01*
X2570000Y28950000D02*
X6170000Y28950000D01*
X6208478Y28961522D02*
G75*
G03*
X4370000Y33400000I-1838478J1838478D01*
G01*
X2531522Y28961522D02*
G75*
G02*
X4370000Y33400000I1838478J1838478D01*
G01*
X2470000Y34650000D02*
X6070000Y34650000D01*
X6108478Y34661522D02*
G75*
G03*
X4270000Y39100000I-1838478J1838478D01*
G01*
X2431522Y34661522D02*
G75*
G02*
X4270000Y39100000I1838478J1838478D01*
G01*
X24670000Y69480000D02*
X75590000Y69480000D01*
X75590000Y69480000D02*
X75590000Y72140000D01*
X75590000Y72140000D02*
X24670000Y72140000D01*
X24670000Y72140000D02*
X24670000Y69480000D01*
X25620000Y72140000D02*
X25620000Y78140000D01*
X25620000Y78140000D02*
X26380000Y78140000D01*
X26380000Y78140000D02*
X26380000Y72140000D01*
X25680000Y72140000D02*
X25680000Y78140000D01*
X25800000Y72140000D02*
X25800000Y78140000D01*
X25920000Y72140000D02*
X25920000Y78140000D01*
X26040000Y72140000D02*
X26040000Y78140000D01*
X26160000Y72140000D02*
X26160000Y78140000D01*
X26280000Y72140000D02*
X26280000Y78140000D01*
X25620000Y69082929D02*
X25620000Y69480000D01*
X26380000Y69082929D02*
X26380000Y69480000D01*
X25620000Y66610000D02*
X25620000Y66997071D01*
X26380000Y66610000D02*
X26380000Y66997071D01*
X27270000Y69480000D02*
X27270000Y72140000D01*
X28160000Y72140000D02*
X28160000Y78140000D01*
X28160000Y78140000D02*
X28920000Y78140000D01*
X28920000Y78140000D02*
X28920000Y72140000D01*
X28160000Y69082929D02*
X28160000Y69480000D01*
X28920000Y69082929D02*
X28920000Y69480000D01*
X28160000Y66542929D02*
X28160000Y66997071D01*
X28920000Y66542929D02*
X28920000Y66997071D01*
X29810000Y69480000D02*
X29810000Y72140000D01*
X30700000Y72140000D02*
X30700000Y78140000D01*
X30700000Y78140000D02*
X31460000Y78140000D01*
X31460000Y78140000D02*
X31460000Y72140000D01*
X30700000Y69082929D02*
X30700000Y69480000D01*
X31460000Y69082929D02*
X31460000Y69480000D01*
X30700000Y66542929D02*
X30700000Y66997071D01*
X31460000Y66542929D02*
X31460000Y66997071D01*
X32350000Y69480000D02*
X32350000Y72140000D01*
X33240000Y72140000D02*
X33240000Y78140000D01*
X33240000Y78140000D02*
X34000000Y78140000D01*
X34000000Y78140000D02*
X34000000Y72140000D01*
X33240000Y69082929D02*
X33240000Y69480000D01*
X34000000Y69082929D02*
X34000000Y69480000D01*
X33240000Y66542929D02*
X33240000Y66997071D01*
X34000000Y66542929D02*
X34000000Y66997071D01*
X34890000Y69480000D02*
X34890000Y72140000D01*
X35780000Y72140000D02*
X35780000Y78140000D01*
X35780000Y78140000D02*
X36540000Y78140000D01*
X36540000Y78140000D02*
X36540000Y72140000D01*
X35780000Y69082929D02*
X35780000Y69480000D01*
X36540000Y69082929D02*
X36540000Y69480000D01*
X35780000Y66542929D02*
X35780000Y66997071D01*
X36540000Y66542929D02*
X36540000Y66997071D01*
X37430000Y69480000D02*
X37430000Y72140000D01*
X38320000Y72140000D02*
X38320000Y78140000D01*
X38320000Y78140000D02*
X39080000Y78140000D01*
X39080000Y78140000D02*
X39080000Y72140000D01*
X38320000Y69082929D02*
X38320000Y69480000D01*
X39080000Y69082929D02*
X39080000Y69480000D01*
X38320000Y66542929D02*
X38320000Y66997071D01*
X39080000Y66542929D02*
X39080000Y66997071D01*
X39970000Y69480000D02*
X39970000Y72140000D01*
X40860000Y72140000D02*
X40860000Y78140000D01*
X40860000Y78140000D02*
X41620000Y78140000D01*
X41620000Y78140000D02*
X41620000Y72140000D01*
X40860000Y69082929D02*
X40860000Y69480000D01*
X41620000Y69082929D02*
X41620000Y69480000D01*
X40860000Y66542929D02*
X40860000Y66997071D01*
X41620000Y66542929D02*
X41620000Y66997071D01*
X42510000Y69480000D02*
X42510000Y72140000D01*
X43400000Y72140000D02*
X43400000Y78140000D01*
X43400000Y78140000D02*
X44160000Y78140000D01*
X44160000Y78140000D02*
X44160000Y72140000D01*
X43400000Y69082929D02*
X43400000Y69480000D01*
X44160000Y69082929D02*
X44160000Y69480000D01*
X43400000Y66542929D02*
X43400000Y66997071D01*
X44160000Y66542929D02*
X44160000Y66997071D01*
X45050000Y69480000D02*
X45050000Y72140000D01*
X45940000Y72140000D02*
X45940000Y78140000D01*
X45940000Y78140000D02*
X46700000Y78140000D01*
X46700000Y78140000D02*
X46700000Y72140000D01*
X45940000Y69082929D02*
X45940000Y69480000D01*
X46700000Y69082929D02*
X46700000Y69480000D01*
X45940000Y66542929D02*
X45940000Y66997071D01*
X46700000Y66542929D02*
X46700000Y66997071D01*
X47590000Y69480000D02*
X47590000Y72140000D01*
X48480000Y72140000D02*
X48480000Y78140000D01*
X48480000Y78140000D02*
X49240000Y78140000D01*
X49240000Y78140000D02*
X49240000Y72140000D01*
X48480000Y69082929D02*
X48480000Y69480000D01*
X49240000Y69082929D02*
X49240000Y69480000D01*
X48480000Y66542929D02*
X48480000Y66997071D01*
X49240000Y66542929D02*
X49240000Y66997071D01*
X50130000Y69480000D02*
X50130000Y72140000D01*
X51020000Y72140000D02*
X51020000Y78140000D01*
X51020000Y78140000D02*
X51780000Y78140000D01*
X51780000Y78140000D02*
X51780000Y72140000D01*
X51020000Y69082929D02*
X51020000Y69480000D01*
X51780000Y69082929D02*
X51780000Y69480000D01*
X51020000Y66542929D02*
X51020000Y66997071D01*
X51780000Y66542929D02*
X51780000Y66997071D01*
X52670000Y69480000D02*
X52670000Y72140000D01*
X53560000Y72140000D02*
X53560000Y78140000D01*
X53560000Y78140000D02*
X54320000Y78140000D01*
X54320000Y78140000D02*
X54320000Y72140000D01*
X53560000Y69082929D02*
X53560000Y69480000D01*
X54320000Y69082929D02*
X54320000Y69480000D01*
X53560000Y66542929D02*
X53560000Y66997071D01*
X54320000Y66542929D02*
X54320000Y66997071D01*
X55210000Y69480000D02*
X55210000Y72140000D01*
X56100000Y72140000D02*
X56100000Y78140000D01*
X56100000Y78140000D02*
X56860000Y78140000D01*
X56860000Y78140000D02*
X56860000Y72140000D01*
X56100000Y69082929D02*
X56100000Y69480000D01*
X56860000Y69082929D02*
X56860000Y69480000D01*
X56100000Y66542929D02*
X56100000Y66997071D01*
X56860000Y66542929D02*
X56860000Y66997071D01*
X57750000Y69480000D02*
X57750000Y72140000D01*
X58640000Y72140000D02*
X58640000Y78140000D01*
X58640000Y78140000D02*
X59400000Y78140000D01*
X59400000Y78140000D02*
X59400000Y72140000D01*
X58640000Y69082929D02*
X58640000Y69480000D01*
X59400000Y69082929D02*
X59400000Y69480000D01*
X58640000Y66542929D02*
X58640000Y66997071D01*
X59400000Y66542929D02*
X59400000Y66997071D01*
X60290000Y69480000D02*
X60290000Y72140000D01*
X61180000Y72140000D02*
X61180000Y78140000D01*
X61180000Y78140000D02*
X61940000Y78140000D01*
X61940000Y78140000D02*
X61940000Y72140000D01*
X61180000Y69082929D02*
X61180000Y69480000D01*
X61940000Y69082929D02*
X61940000Y69480000D01*
X61180000Y66542929D02*
X61180000Y66997071D01*
X61940000Y66542929D02*
X61940000Y66997071D01*
X62830000Y69480000D02*
X62830000Y72140000D01*
X63720000Y72140000D02*
X63720000Y78140000D01*
X63720000Y78140000D02*
X64480000Y78140000D01*
X64480000Y78140000D02*
X64480000Y72140000D01*
X63720000Y69082929D02*
X63720000Y69480000D01*
X64480000Y69082929D02*
X64480000Y69480000D01*
X63720000Y66542929D02*
X63720000Y66997071D01*
X64480000Y66542929D02*
X64480000Y66997071D01*
X65370000Y69480000D02*
X65370000Y72140000D01*
X66260000Y72140000D02*
X66260000Y78140000D01*
X66260000Y78140000D02*
X67020000Y78140000D01*
X67020000Y78140000D02*
X67020000Y72140000D01*
X66260000Y69082929D02*
X66260000Y69480000D01*
X67020000Y69082929D02*
X67020000Y69480000D01*
X66260000Y66542929D02*
X66260000Y66997071D01*
X67020000Y66542929D02*
X67020000Y66997071D01*
X67910000Y69480000D02*
X67910000Y72140000D01*
X68800000Y72140000D02*
X68800000Y78140000D01*
X68800000Y78140000D02*
X69560000Y78140000D01*
X69560000Y78140000D02*
X69560000Y72140000D01*
X68800000Y69082929D02*
X68800000Y69480000D01*
X69560000Y69082929D02*
X69560000Y69480000D01*
X68800000Y66542929D02*
X68800000Y66997071D01*
X69560000Y66542929D02*
X69560000Y66997071D01*
X70450000Y69480000D02*
X70450000Y72140000D01*
X71340000Y72140000D02*
X71340000Y78140000D01*
X71340000Y78140000D02*
X72100000Y78140000D01*
X72100000Y78140000D02*
X72100000Y72140000D01*
X71340000Y69082929D02*
X71340000Y69480000D01*
X72100000Y69082929D02*
X72100000Y69480000D01*
X71340000Y66542929D02*
X71340000Y66997071D01*
X72100000Y66542929D02*
X72100000Y66997071D01*
X72990000Y69480000D02*
X72990000Y72140000D01*
X73880000Y72140000D02*
X73880000Y78140000D01*
X73880000Y78140000D02*
X74640000Y78140000D01*
X74640000Y78140000D02*
X74640000Y72140000D01*
X73880000Y69082929D02*
X73880000Y69480000D01*
X74640000Y69082929D02*
X74640000Y69480000D01*
X73880000Y66542929D02*
X73880000Y66997071D01*
X74640000Y66542929D02*
X74640000Y66997071D01*
X26000000Y64230000D02*
X24730000Y64230000D01*
X24730000Y64230000D02*
X24730000Y65500000D01*
D12*
X-3000000Y10350000D02*
X-3000000Y18650000D01*
X-3000000Y18650000D02*
X6000000Y18650000D01*
X-3000000Y10350000D02*
X5950000Y10350000D01*
X6500000Y11500000D02*
X6500000Y17500000D01*
X8500000Y19500000D02*
X16500000Y19500000D01*
X8500000Y9500000D02*
X16500000Y9500000D01*
X16500000Y15500000D02*
X16500000Y19500000D01*
X16500000Y9500000D02*
X16500000Y13500000D01*
D13*
X23210000Y7436000D02*
X23210000Y7280000D01*
X23210000Y5120000D02*
X23210000Y4964000D01*
X25811130Y5120163D02*
G75*
G02*
X23729039Y5120000I-1041130J1079837D01*
G01*
X25811130Y7279837D02*
G75*
G03*
X23729039Y7280000I-1041130J-1079837D01*
G01*
X26442335Y5121392D02*
G75*
G02*
X23210000Y4964484I-1672335J1078608D01*
G01*
X26442335Y7278608D02*
G75*
G03*
X23210000Y7435516I-1672335J-1078608D01*
G01*
X29210000Y7436000D02*
X29210000Y7280000D01*
X29210000Y5120000D02*
X29210000Y4964000D01*
X31811130Y5120163D02*
G75*
G02*
X29729039Y5120000I-1041130J1079837D01*
G01*
X31811130Y7279837D02*
G75*
G03*
X29729039Y7280000I-1041130J-1079837D01*
G01*
X32442335Y5121392D02*
G75*
G02*
X29210000Y4964484I-1672335J1078608D01*
G01*
X32442335Y7278608D02*
G75*
G03*
X29210000Y7435516I-1672335J-1078608D01*
G01*
X25170000Y59420000D02*
X25170000Y57580000D01*
X25170000Y57580000D02*
X28450000Y57580000D01*
X28450000Y57580000D02*
X28450000Y59420000D01*
X28450000Y59420000D02*
X25170000Y59420000D01*
X23990000Y58500000D02*
X25170000Y58500000D01*
X29630000Y58500000D02*
X28450000Y58500000D01*
X25746000Y59420000D02*
X25746000Y57580000D01*
X25866000Y59420000D02*
X25866000Y57580000D01*
X25626000Y59420000D02*
X25626000Y57580000D01*
X36520000Y61479000D02*
X36520000Y60221000D01*
X34680000Y61479000D02*
X34680000Y60221000D01*
X57620000Y61479000D02*
X57620000Y60221000D01*
X55780000Y61479000D02*
X55780000Y60221000D01*
X52920000Y49379000D02*
X52920000Y48121000D01*
X51080000Y49379000D02*
X51080000Y48121000D01*
X38920000Y18379000D02*
X38920000Y17121000D01*
X37080000Y18379000D02*
X37080000Y17121000D01*
X84521000Y36320000D02*
X85779000Y36320000D01*
X84521000Y34480000D02*
X85779000Y34480000D01*
X26621000Y53920000D02*
X27879000Y53920000D01*
X26621000Y52080000D02*
X27879000Y52080000D01*
X12621000Y42920000D02*
X13879000Y42920000D01*
X12621000Y41080000D02*
X13879000Y41080000D01*
X89121000Y65920000D02*
X90379000Y65920000D01*
X89121000Y64080000D02*
X90379000Y64080000D01*
X23920000Y54879000D02*
X23920000Y53621000D01*
X22080000Y54879000D02*
X22080000Y53621000D01*
X7580000Y58121000D02*
X7580000Y59379000D01*
X9420000Y58121000D02*
X9420000Y59379000D01*
X9420000Y52879000D02*
X9420000Y51621000D01*
X7580000Y52879000D02*
X7580000Y51621000D01*
X65580000Y30121000D02*
X65580000Y31379000D01*
X67420000Y30121000D02*
X67420000Y31379000D01*
D12*
X5873333Y65047620D02*
X5540000Y65523810D01*
X5301904Y65047620D02*
X5301904Y66047620D01*
X5682857Y66047620D01*
X5778095Y66000000D01*
X5825714Y65952381D01*
X5873333Y65857143D01*
X5873333Y65714286D01*
X5825714Y65619048D01*
X5778095Y65571429D01*
X5682857Y65523810D01*
X5301904Y65523810D01*
X6825714Y65047620D02*
X6254285Y65047620D01*
X6540000Y65047620D02*
X6540000Y66047620D01*
X6444761Y65904762D01*
X6349523Y65809524D01*
X6254285Y65761905D01*
X88461904Y32147620D02*
X88461904Y31338096D01*
X88509523Y31242858D01*
X88557142Y31195239D01*
X88652380Y31147620D01*
X88842857Y31147620D01*
X88938095Y31195239D01*
X88985714Y31242858D01*
X89033333Y31338096D01*
X89033333Y32147620D01*
X90033333Y31147620D02*
X89461904Y31147620D01*
X89747619Y31147620D02*
X89747619Y32147620D01*
X89652380Y32004762D01*
X89557142Y31909524D01*
X89461904Y31861905D01*
X90652380Y32147620D02*
X90747619Y32147620D01*
X90842857Y32100000D01*
X90890476Y32052381D01*
X90938095Y31957143D01*
X90985714Y31766667D01*
X90985714Y31528572D01*
X90938095Y31338096D01*
X90890476Y31242858D01*
X90842857Y31195239D01*
X90747619Y31147620D01*
X90652380Y31147620D01*
X90557142Y31195239D01*
X90509523Y31242858D01*
X90461904Y31338096D01*
X90414285Y31528572D01*
X90414285Y31766667D01*
X90461904Y31957143D01*
X90509523Y32052381D01*
X90557142Y32100000D01*
X90652380Y32147620D01*
X95507142Y33692858D02*
X95459523Y33645239D01*
X95316666Y33597620D01*
X95221428Y33597620D01*
X95078571Y33645239D01*
X94983333Y33740477D01*
X94935714Y33835715D01*
X94888095Y34026191D01*
X94888095Y34169048D01*
X94935714Y34359524D01*
X94983333Y34454762D01*
X95078571Y34550000D01*
X95221428Y34597620D01*
X95316666Y34597620D01*
X95459523Y34550000D01*
X95507142Y34502381D01*
X96459523Y33597620D02*
X95888095Y33597620D01*
X96173809Y33597620D02*
X96173809Y34597620D01*
X96078571Y34454762D01*
X95983333Y34359524D01*
X95888095Y34311905D01*
X96792857Y34597620D02*
X97411904Y34597620D01*
X97078571Y34216667D01*
X97221428Y34216667D01*
X97316666Y34169048D01*
X97364285Y34121429D01*
X97411904Y34026191D01*
X97411904Y33788096D01*
X97364285Y33692858D01*
X97316666Y33645239D01*
X97221428Y33597620D01*
X96935714Y33597620D01*
X96840476Y33645239D01*
X96792857Y33692858D01*
X38552380Y7538096D02*
X39361904Y7538096D01*
X39457142Y7585715D01*
X39504761Y7633334D01*
X39552380Y7728572D01*
X39552380Y7919048D01*
X39504761Y8014286D01*
X39457142Y8061905D01*
X39361904Y8109524D01*
X38552380Y8109524D01*
X38980952Y8728572D02*
X38933333Y8633334D01*
X38885714Y8585715D01*
X38790476Y8538096D01*
X38742857Y8538096D01*
X38647619Y8585715D01*
X38600000Y8633334D01*
X38552380Y8728572D01*
X38552380Y8919048D01*
X38600000Y9014286D01*
X38647619Y9061905D01*
X38742857Y9109524D01*
X38790476Y9109524D01*
X38885714Y9061905D01*
X38933333Y9014286D01*
X38980952Y8919048D01*
X38980952Y8728572D01*
X39028571Y8633334D01*
X39076190Y8585715D01*
X39171428Y8538096D01*
X39361904Y8538096D01*
X39457142Y8585715D01*
X39504761Y8633334D01*
X39552380Y8728572D01*
X39552380Y8919048D01*
X39504761Y9014286D01*
X39457142Y9061905D01*
X39361904Y9109524D01*
X39171428Y9109524D01*
X39076190Y9061905D01*
X39028571Y9014286D01*
X38980952Y8919048D01*
X3476190Y55523810D02*
X3952380Y55523810D01*
X2952380Y55190477D02*
X3476190Y55523810D01*
X2952380Y55857143D01*
X3952380Y56714286D02*
X3952380Y56142858D01*
X3952380Y56428572D02*
X2952380Y56428572D01*
X3095238Y56333334D01*
X3190476Y56238096D01*
X3238095Y56142858D01*
X52122380Y40738096D02*
X52931904Y40738096D01*
X53027142Y40785715D01*
X53074761Y40833334D01*
X53122380Y40928572D01*
X53122380Y41119048D01*
X53074761Y41214286D01*
X53027142Y41261905D01*
X52931904Y41309524D01*
X52122380Y41309524D01*
X53122380Y41833334D02*
X53122380Y42023810D01*
X53074761Y42119048D01*
X53027142Y42166667D01*
X52884285Y42261905D01*
X52693809Y42309524D01*
X52312857Y42309524D01*
X52217619Y42261905D01*
X52170000Y42214286D01*
X52122380Y42119048D01*
X52122380Y41928572D01*
X52170000Y41833334D01*
X52217619Y41785715D01*
X52312857Y41738096D01*
X52550952Y41738096D01*
X52646190Y41785715D01*
X52693809Y41833334D01*
X52741428Y41928572D01*
X52741428Y42119048D01*
X52693809Y42214286D01*
X52646190Y42261905D01*
X52550952Y42309524D01*
X76638095Y35447620D02*
X76638095Y34638096D01*
X76685714Y34542858D01*
X76733333Y34495239D01*
X76828571Y34447620D01*
X77019047Y34447620D01*
X77114285Y34495239D01*
X77161904Y34542858D01*
X77209523Y34638096D01*
X77209523Y35447620D01*
X77590476Y35447620D02*
X78257142Y35447620D01*
X77828571Y34447620D01*
X23122380Y45048096D02*
X23931904Y45048096D01*
X24027142Y45095715D01*
X24074761Y45143334D01*
X24122380Y45238572D01*
X24122380Y45429048D01*
X24074761Y45524286D01*
X24027142Y45571905D01*
X23931904Y45619524D01*
X23122380Y45619524D01*
X23122380Y46524286D02*
X23122380Y46333810D01*
X23170000Y46238572D01*
X23217619Y46190953D01*
X23360476Y46095715D01*
X23550952Y46048096D01*
X23931904Y46048096D01*
X24027142Y46095715D01*
X24074761Y46143334D01*
X24122380Y46238572D01*
X24122380Y46429048D01*
X24074761Y46524286D01*
X24027142Y46571905D01*
X23931904Y46619524D01*
X23693809Y46619524D01*
X23598571Y46571905D01*
X23550952Y46524286D01*
X23503333Y46429048D01*
X23503333Y46238572D01*
X23550952Y46143334D01*
X23598571Y46095715D01*
X23693809Y46048096D01*
X35622380Y52238096D02*
X36431904Y52238096D01*
X36527142Y52285715D01*
X36574761Y52333334D01*
X36622380Y52428572D01*
X36622380Y52619048D01*
X36574761Y52714286D01*
X36527142Y52761905D01*
X36431904Y52809524D01*
X35622380Y52809524D01*
X35622380Y53761905D02*
X35622380Y53285715D01*
X36098571Y53238096D01*
X36050952Y53285715D01*
X36003333Y53380953D01*
X36003333Y53619048D01*
X36050952Y53714286D01*
X36098571Y53761905D01*
X36193809Y53809524D01*
X36431904Y53809524D01*
X36527142Y53761905D01*
X36574761Y53714286D01*
X36622380Y53619048D01*
X36622380Y53380953D01*
X36574761Y53285715D01*
X36527142Y53238096D01*
X81838095Y65247620D02*
X81838095Y64438096D01*
X81885714Y64342858D01*
X81933333Y64295239D01*
X82028571Y64247620D01*
X82219047Y64247620D01*
X82314285Y64295239D01*
X82361904Y64342858D01*
X82409523Y64438096D01*
X82409523Y65247620D01*
X83314285Y64914286D02*
X83314285Y64247620D01*
X83076190Y65295239D02*
X82838095Y64580953D01*
X83457142Y64580953D01*
X56622380Y52738096D02*
X57431904Y52738096D01*
X57527142Y52785715D01*
X57574761Y52833334D01*
X57622380Y52928572D01*
X57622380Y53119048D01*
X57574761Y53214286D01*
X57527142Y53261905D01*
X57431904Y53309524D01*
X56622380Y53309524D01*
X56622380Y53690477D02*
X56622380Y54309524D01*
X57003333Y53976191D01*
X57003333Y54119048D01*
X57050952Y54214286D01*
X57098571Y54261905D01*
X57193809Y54309524D01*
X57431904Y54309524D01*
X57527142Y54261905D01*
X57574761Y54214286D01*
X57622380Y54119048D01*
X57622380Y53833334D01*
X57574761Y53738096D01*
X57527142Y53690477D01*
X15738095Y64047620D02*
X15738095Y63238096D01*
X15785714Y63142858D01*
X15833333Y63095239D01*
X15928571Y63047620D01*
X16119047Y63047620D01*
X16214285Y63095239D01*
X16261904Y63142858D01*
X16309523Y63238096D01*
X16309523Y64047620D01*
X16738095Y63952381D02*
X16785714Y64000000D01*
X16880952Y64047620D01*
X17119047Y64047620D01*
X17214285Y64000000D01*
X17261904Y63952381D01*
X17309523Y63857143D01*
X17309523Y63761905D01*
X17261904Y63619048D01*
X16690476Y63047620D01*
X17309523Y63047620D01*
X23122380Y29358096D02*
X23931904Y29358096D01*
X24027142Y29405715D01*
X24074761Y29453334D01*
X24122380Y29548572D01*
X24122380Y29739048D01*
X24074761Y29834286D01*
X24027142Y29881905D01*
X23931904Y29929524D01*
X23122380Y29929524D01*
X24122380Y30929524D02*
X24122380Y30358096D01*
X24122380Y30643810D02*
X23122380Y30643810D01*
X23265238Y30548572D01*
X23360476Y30453334D01*
X23408095Y30358096D01*
X4304761Y44047620D02*
X3971428Y44523810D01*
X3733333Y44047620D02*
X3733333Y45047620D01*
X4114285Y45047620D01*
X4209523Y45000000D01*
X4257142Y44952381D01*
X4304761Y44857143D01*
X4304761Y44714286D01*
X4257142Y44619048D01*
X4209523Y44571429D01*
X4114285Y44523810D01*
X3733333Y44523810D01*
X4590476Y45047620D02*
X4923809Y44047620D01*
X5257142Y45047620D01*
X6114285Y44047620D02*
X5542857Y44047620D01*
X5828571Y44047620D02*
X5828571Y45047620D01*
X5733333Y44904762D01*
X5638095Y44809524D01*
X5542857Y44761905D01*
X27633333Y11647620D02*
X27300000Y12123810D01*
X27061904Y11647620D02*
X27061904Y12647620D01*
X27442857Y12647620D01*
X27538095Y12600000D01*
X27585714Y12552381D01*
X27633333Y12457143D01*
X27633333Y12314286D01*
X27585714Y12219048D01*
X27538095Y12171429D01*
X27442857Y12123810D01*
X27061904Y12123810D01*
X28109523Y11647620D02*
X28300000Y11647620D01*
X28395238Y11695239D01*
X28442857Y11742858D01*
X28538095Y11885715D01*
X28585714Y12076191D01*
X28585714Y12457143D01*
X28538095Y12552381D01*
X28490476Y12600000D01*
X28395238Y12647620D01*
X28204761Y12647620D01*
X28109523Y12600000D01*
X28061904Y12552381D01*
X28014285Y12457143D01*
X28014285Y12219048D01*
X28061904Y12123810D01*
X28109523Y12076191D01*
X28204761Y12028572D01*
X28395238Y12028572D01*
X28490476Y12076191D01*
X28538095Y12123810D01*
X28585714Y12219048D01*
X27633333Y15747620D02*
X27300000Y16223810D01*
X27061904Y15747620D02*
X27061904Y16747620D01*
X27442857Y16747620D01*
X27538095Y16700000D01*
X27585714Y16652381D01*
X27633333Y16557143D01*
X27633333Y16414286D01*
X27585714Y16319048D01*
X27538095Y16271429D01*
X27442857Y16223810D01*
X27061904Y16223810D01*
X28204761Y16319048D02*
X28109523Y16366667D01*
X28061904Y16414286D01*
X28014285Y16509524D01*
X28014285Y16557143D01*
X28061904Y16652381D01*
X28109523Y16700000D01*
X28204761Y16747620D01*
X28395238Y16747620D01*
X28490476Y16700000D01*
X28538095Y16652381D01*
X28585714Y16557143D01*
X28585714Y16509524D01*
X28538095Y16414286D01*
X28490476Y16366667D01*
X28395238Y16319048D01*
X28204761Y16319048D01*
X28109523Y16271429D01*
X28061904Y16223810D01*
X28014285Y16128572D01*
X28014285Y15938096D01*
X28061904Y15842858D01*
X28109523Y15795239D01*
X28204761Y15747620D01*
X28395238Y15747620D01*
X28490476Y15795239D01*
X28538095Y15842858D01*
X28585714Y15938096D01*
X28585714Y16128572D01*
X28538095Y16223810D01*
X28490476Y16271429D01*
X28395238Y16319048D01*
X6913333Y25547620D02*
X6580000Y26023810D01*
X6341904Y25547620D02*
X6341904Y26547620D01*
X6722857Y26547620D01*
X6818095Y26500000D01*
X6865714Y26452381D01*
X6913333Y26357143D01*
X6913333Y26214286D01*
X6865714Y26119048D01*
X6818095Y26071429D01*
X6722857Y26023810D01*
X6341904Y26023810D01*
X7246666Y26547620D02*
X7913333Y26547620D01*
X7484761Y25547620D01*
X14333333Y29047620D02*
X14000000Y29523810D01*
X13761904Y29047620D02*
X13761904Y30047620D01*
X14142857Y30047620D01*
X14238095Y30000000D01*
X14285714Y29952381D01*
X14333333Y29857143D01*
X14333333Y29714286D01*
X14285714Y29619048D01*
X14238095Y29571429D01*
X14142857Y29523810D01*
X13761904Y29523810D01*
X15190476Y30047620D02*
X15000000Y30047620D01*
X14904761Y30000000D01*
X14857142Y29952381D01*
X14761904Y29809524D01*
X14714285Y29619048D01*
X14714285Y29238096D01*
X14761904Y29142858D01*
X14809523Y29095239D01*
X14904761Y29047620D01*
X15095238Y29047620D01*
X15190476Y29095239D01*
X15238095Y29142858D01*
X15285714Y29238096D01*
X15285714Y29476191D01*
X15238095Y29571429D01*
X15190476Y29619048D01*
X15095238Y29666667D01*
X14904761Y29666667D01*
X14809523Y29619048D01*
X14761904Y29571429D01*
X14714285Y29476191D01*
X6833333Y22047620D02*
X6500000Y22523810D01*
X6261904Y22047620D02*
X6261904Y23047620D01*
X6642857Y23047620D01*
X6738095Y23000000D01*
X6785714Y22952381D01*
X6833333Y22857143D01*
X6833333Y22714286D01*
X6785714Y22619048D01*
X6738095Y22571429D01*
X6642857Y22523810D01*
X6261904Y22523810D01*
X7738095Y23047620D02*
X7261904Y23047620D01*
X7214285Y22571429D01*
X7261904Y22619048D01*
X7357142Y22666667D01*
X7595238Y22666667D01*
X7690476Y22619048D01*
X7738095Y22571429D01*
X7785714Y22476191D01*
X7785714Y22238096D01*
X7738095Y22142858D01*
X7690476Y22095239D01*
X7595238Y22047620D01*
X7357142Y22047620D01*
X7261904Y22095239D01*
X7214285Y22142858D01*
X14413333Y33047620D02*
X14080000Y33523810D01*
X13841904Y33047620D02*
X13841904Y34047620D01*
X14222857Y34047620D01*
X14318095Y34000000D01*
X14365714Y33952381D01*
X14413333Y33857143D01*
X14413333Y33714286D01*
X14365714Y33619048D01*
X14318095Y33571429D01*
X14222857Y33523810D01*
X13841904Y33523810D01*
X15270476Y33714286D02*
X15270476Y33047620D01*
X15032380Y34095239D02*
X14794285Y33380953D01*
X15413333Y33380953D01*
X14333333Y36547620D02*
X14000000Y37023810D01*
X13761904Y36547620D02*
X13761904Y37547620D01*
X14142857Y37547620D01*
X14238095Y37500000D01*
X14285714Y37452381D01*
X14333333Y37357143D01*
X14333333Y37214286D01*
X14285714Y37119048D01*
X14238095Y37071429D01*
X14142857Y37023810D01*
X13761904Y37023810D01*
X14666666Y37547620D02*
X15285714Y37547620D01*
X14952380Y37166667D01*
X15095238Y37166667D01*
X15190476Y37119048D01*
X15238095Y37071429D01*
X15285714Y36976191D01*
X15285714Y36738096D01*
X15238095Y36642858D01*
X15190476Y36595239D01*
X15095238Y36547620D01*
X14809523Y36547620D01*
X14714285Y36595239D01*
X14666666Y36642858D01*
X27913333Y61047620D02*
X27580000Y61523810D01*
X27341904Y61047620D02*
X27341904Y62047620D01*
X27722857Y62047620D01*
X27818095Y62000000D01*
X27865714Y61952381D01*
X27913333Y61857143D01*
X27913333Y61714286D01*
X27865714Y61619048D01*
X27818095Y61571429D01*
X27722857Y61523810D01*
X27341904Y61523810D01*
X28294285Y61952381D02*
X28341904Y62000000D01*
X28437142Y62047620D01*
X28675238Y62047620D01*
X28770476Y62000000D01*
X28818095Y61952381D01*
X28865714Y61857143D01*
X28865714Y61761905D01*
X28818095Y61619048D01*
X28246666Y61047620D01*
X28865714Y61047620D01*
X4504761Y32252381D02*
X4409523Y32300000D01*
X4314285Y32395239D01*
X4171428Y32538096D01*
X4076190Y32585715D01*
X3980952Y32585715D01*
X4028571Y32347620D02*
X3933333Y32395239D01*
X3838095Y32490477D01*
X3790476Y32680953D01*
X3790476Y33014286D01*
X3838095Y33204762D01*
X3933333Y33300000D01*
X4028571Y33347620D01*
X4219047Y33347620D01*
X4314285Y33300000D01*
X4409523Y33204762D01*
X4457142Y33014286D01*
X4457142Y32680953D01*
X4409523Y32490477D01*
X4314285Y32395239D01*
X4219047Y32347620D01*
X4028571Y32347620D01*
X4838095Y33252381D02*
X4885714Y33300000D01*
X4980952Y33347620D01*
X5219047Y33347620D01*
X5314285Y33300000D01*
X5361904Y33252381D01*
X5409523Y33157143D01*
X5409523Y33061905D01*
X5361904Y32919048D01*
X4790476Y32347620D01*
X5409523Y32347620D01*
X4404761Y37452381D02*
X4309523Y37500000D01*
X4214285Y37595239D01*
X4071428Y37738096D01*
X3976190Y37785715D01*
X3880952Y37785715D01*
X3928571Y37547620D02*
X3833333Y37595239D01*
X3738095Y37690477D01*
X3690476Y37880953D01*
X3690476Y38214286D01*
X3738095Y38404762D01*
X3833333Y38500000D01*
X3928571Y38547620D01*
X4119047Y38547620D01*
X4214285Y38500000D01*
X4309523Y38404762D01*
X4357142Y38214286D01*
X4357142Y37880953D01*
X4309523Y37690477D01*
X4214285Y37595239D01*
X4119047Y37547620D01*
X3928571Y37547620D01*
X5309523Y37547620D02*
X4738095Y37547620D01*
X5023809Y37547620D02*
X5023809Y38547620D01*
X4928571Y38404762D01*
X4833333Y38309524D01*
X4738095Y38261905D01*
X23182380Y70821667D02*
X23896666Y70821667D01*
X24039523Y70774048D01*
X24134761Y70678810D01*
X24182380Y70535953D01*
X24182380Y70440715D01*
X23277619Y71250239D02*
X23230000Y71297858D01*
X23182380Y71393096D01*
X23182380Y71631191D01*
X23230000Y71726429D01*
X23277619Y71774048D01*
X23372857Y71821667D01*
X23468095Y71821667D01*
X23610952Y71774048D01*
X24182380Y71202620D01*
X24182380Y71821667D01*
X17702380Y14266667D02*
X18416666Y14266667D01*
X18559523Y14219048D01*
X18654761Y14123810D01*
X18702380Y13980953D01*
X18702380Y13885715D01*
X18702380Y15266667D02*
X18702380Y14695239D01*
X18702380Y14980953D02*
X17702380Y14980953D01*
X17845238Y14885715D01*
X17940476Y14790477D01*
X17988095Y14695239D01*
X24031904Y8707620D02*
X24031904Y9707620D01*
X24270000Y9707620D01*
X24412857Y9660000D01*
X24508095Y9564762D01*
X24555714Y9469524D01*
X24603333Y9279048D01*
X24603333Y9136191D01*
X24555714Y8945715D01*
X24508095Y8850477D01*
X24412857Y8755239D01*
X24270000Y8707620D01*
X24031904Y8707620D01*
X24936666Y9707620D02*
X25555714Y9707620D01*
X25222380Y9326667D01*
X25365238Y9326667D01*
X25460476Y9279048D01*
X25508095Y9231429D01*
X25555714Y9136191D01*
X25555714Y8898096D01*
X25508095Y8802858D01*
X25460476Y8755239D01*
X25365238Y8707620D01*
X25079523Y8707620D01*
X24984285Y8755239D01*
X24936666Y8802858D01*
X30031904Y8707620D02*
X30031904Y9707620D01*
X30270000Y9707620D01*
X30412857Y9660000D01*
X30508095Y9564762D01*
X30555714Y9469524D01*
X30603333Y9279048D01*
X30603333Y9136191D01*
X30555714Y8945715D01*
X30508095Y8850477D01*
X30412857Y8755239D01*
X30270000Y8707620D01*
X30031904Y8707620D01*
X30984285Y9612381D02*
X31031904Y9660000D01*
X31127142Y9707620D01*
X31365238Y9707620D01*
X31460476Y9660000D01*
X31508095Y9612381D01*
X31555714Y9517143D01*
X31555714Y9421905D01*
X31508095Y9279048D01*
X30936666Y8707620D01*
X31555714Y8707620D01*
X26261904Y58047620D02*
X26261904Y59047620D01*
X26500000Y59047620D01*
X26642857Y59000000D01*
X26738095Y58904762D01*
X26785714Y58809524D01*
X26833333Y58619048D01*
X26833333Y58476191D01*
X26785714Y58285715D01*
X26738095Y58190477D01*
X26642857Y58095239D01*
X26500000Y58047620D01*
X26261904Y58047620D01*
X27785714Y58047620D02*
X27214285Y58047620D01*
X27500000Y58047620D02*
X27500000Y59047620D01*
X27404761Y58904762D01*
X27309523Y58809524D01*
X27214285Y58761905D01*
X24238095Y57047620D02*
X24238095Y58047620D01*
X24809523Y57047620D02*
X24380952Y57619048D01*
X24809523Y58047620D02*
X24238095Y57476191D01*
X36057142Y56457143D02*
X36104761Y56409524D01*
X36152380Y56266667D01*
X36152380Y56171429D01*
X36104761Y56028572D01*
X36009523Y55933334D01*
X35914285Y55885715D01*
X35723809Y55838096D01*
X35580952Y55838096D01*
X35390476Y55885715D01*
X35295238Y55933334D01*
X35200000Y56028572D01*
X35152380Y56171429D01*
X35152380Y56266667D01*
X35200000Y56409524D01*
X35247619Y56457143D01*
X36152380Y57409524D02*
X36152380Y56838096D01*
X36152380Y57123810D02*
X35152380Y57123810D01*
X35295238Y57028572D01*
X35390476Y56933334D01*
X35438095Y56838096D01*
X35247619Y57790477D02*
X35200000Y57838096D01*
X35152380Y57933334D01*
X35152380Y58171429D01*
X35200000Y58266667D01*
X35247619Y58314286D01*
X35342857Y58361905D01*
X35438095Y58361905D01*
X35580952Y58314286D01*
X36152380Y57742858D01*
X36152380Y58361905D01*
X57257142Y56557143D02*
X57304761Y56509524D01*
X57352380Y56366667D01*
X57352380Y56271429D01*
X57304761Y56128572D01*
X57209523Y56033334D01*
X57114285Y55985715D01*
X56923809Y55938096D01*
X56780952Y55938096D01*
X56590476Y55985715D01*
X56495238Y56033334D01*
X56400000Y56128572D01*
X56352380Y56271429D01*
X56352380Y56366667D01*
X56400000Y56509524D01*
X56447619Y56557143D01*
X57352380Y57509524D02*
X57352380Y56938096D01*
X57352380Y57223810D02*
X56352380Y57223810D01*
X56495238Y57128572D01*
X56590476Y57033334D01*
X56638095Y56938096D01*
X57352380Y58461905D02*
X57352380Y57890477D01*
X57352380Y58176191D02*
X56352380Y58176191D01*
X56495238Y58080953D01*
X56590476Y57985715D01*
X56638095Y57890477D01*
X52357142Y44357143D02*
X52404761Y44309524D01*
X52452380Y44166667D01*
X52452380Y44071429D01*
X52404761Y43928572D01*
X52309523Y43833334D01*
X52214285Y43785715D01*
X52023809Y43738096D01*
X51880952Y43738096D01*
X51690476Y43785715D01*
X51595238Y43833334D01*
X51500000Y43928572D01*
X51452380Y44071429D01*
X51452380Y44166667D01*
X51500000Y44309524D01*
X51547619Y44357143D01*
X52452380Y45309524D02*
X52452380Y44738096D01*
X52452380Y45023810D02*
X51452380Y45023810D01*
X51595238Y44928572D01*
X51690476Y44833334D01*
X51738095Y44738096D01*
X51452380Y45928572D02*
X51452380Y46023810D01*
X51500000Y46119048D01*
X51547619Y46166667D01*
X51642857Y46214286D01*
X51833333Y46261905D01*
X52071428Y46261905D01*
X52261904Y46214286D01*
X52357142Y46166667D01*
X52404761Y46119048D01*
X52452380Y46023810D01*
X52452380Y45928572D01*
X52404761Y45833334D01*
X52357142Y45785715D01*
X52261904Y45738096D01*
X52071428Y45690477D01*
X51833333Y45690477D01*
X51642857Y45738096D01*
X51547619Y45785715D01*
X51500000Y45833334D01*
X51452380Y45928572D01*
X38357142Y13833334D02*
X38404761Y13785715D01*
X38452380Y13642858D01*
X38452380Y13547620D01*
X38404761Y13404762D01*
X38309523Y13309524D01*
X38214285Y13261905D01*
X38023809Y13214286D01*
X37880952Y13214286D01*
X37690476Y13261905D01*
X37595238Y13309524D01*
X37500000Y13404762D01*
X37452380Y13547620D01*
X37452380Y13642858D01*
X37500000Y13785715D01*
X37547619Y13833334D01*
X38452380Y14309524D02*
X38452380Y14500000D01*
X38404761Y14595239D01*
X38357142Y14642858D01*
X38214285Y14738096D01*
X38023809Y14785715D01*
X37642857Y14785715D01*
X37547619Y14738096D01*
X37500000Y14690477D01*
X37452380Y14595239D01*
X37452380Y14404762D01*
X37500000Y14309524D01*
X37547619Y14261905D01*
X37642857Y14214286D01*
X37880952Y14214286D01*
X37976190Y14261905D01*
X38023809Y14309524D01*
X38071428Y14404762D01*
X38071428Y14595239D01*
X38023809Y14690477D01*
X37976190Y14738096D01*
X37880952Y14785715D01*
X88533333Y35042858D02*
X88485714Y34995239D01*
X88342857Y34947620D01*
X88247619Y34947620D01*
X88104761Y34995239D01*
X88009523Y35090477D01*
X87961904Y35185715D01*
X87914285Y35376191D01*
X87914285Y35519048D01*
X87961904Y35709524D01*
X88009523Y35804762D01*
X88104761Y35900000D01*
X88247619Y35947620D01*
X88342857Y35947620D01*
X88485714Y35900000D01*
X88533333Y35852381D01*
X89104761Y35519048D02*
X89009523Y35566667D01*
X88961904Y35614286D01*
X88914285Y35709524D01*
X88914285Y35757143D01*
X88961904Y35852381D01*
X89009523Y35900000D01*
X89104761Y35947620D01*
X89295238Y35947620D01*
X89390476Y35900000D01*
X89438095Y35852381D01*
X89485714Y35757143D01*
X89485714Y35709524D01*
X89438095Y35614286D01*
X89390476Y35566667D01*
X89295238Y35519048D01*
X89104761Y35519048D01*
X89009523Y35471429D01*
X88961904Y35423810D01*
X88914285Y35328572D01*
X88914285Y35138096D01*
X88961904Y35042858D01*
X89009523Y34995239D01*
X89104761Y34947620D01*
X89295238Y34947620D01*
X89390476Y34995239D01*
X89438095Y35042858D01*
X89485714Y35138096D01*
X89485714Y35328572D01*
X89438095Y35423810D01*
X89390476Y35471429D01*
X89295238Y35519048D01*
X27083333Y54692858D02*
X27035714Y54645239D01*
X26892857Y54597620D01*
X26797619Y54597620D01*
X26654761Y54645239D01*
X26559523Y54740477D01*
X26511904Y54835715D01*
X26464285Y55026191D01*
X26464285Y55169048D01*
X26511904Y55359524D01*
X26559523Y55454762D01*
X26654761Y55550000D01*
X26797619Y55597620D01*
X26892857Y55597620D01*
X27035714Y55550000D01*
X27083333Y55502381D01*
X27416666Y55597620D02*
X28083333Y55597620D01*
X27654761Y54597620D01*
X13083333Y43692858D02*
X13035714Y43645239D01*
X12892857Y43597620D01*
X12797619Y43597620D01*
X12654761Y43645239D01*
X12559523Y43740477D01*
X12511904Y43835715D01*
X12464285Y44026191D01*
X12464285Y44169048D01*
X12511904Y44359524D01*
X12559523Y44454762D01*
X12654761Y44550000D01*
X12797619Y44597620D01*
X12892857Y44597620D01*
X13035714Y44550000D01*
X13083333Y44502381D01*
X13940476Y44597620D02*
X13750000Y44597620D01*
X13654761Y44550000D01*
X13607142Y44502381D01*
X13511904Y44359524D01*
X13464285Y44169048D01*
X13464285Y43788096D01*
X13511904Y43692858D01*
X13559523Y43645239D01*
X13654761Y43597620D01*
X13845238Y43597620D01*
X13940476Y43645239D01*
X13988095Y43692858D01*
X14035714Y43788096D01*
X14035714Y44026191D01*
X13988095Y44121429D01*
X13940476Y44169048D01*
X13845238Y44216667D01*
X13654761Y44216667D01*
X13559523Y44169048D01*
X13511904Y44121429D01*
X13464285Y44026191D01*
X89583333Y66692858D02*
X89535714Y66645239D01*
X89392857Y66597620D01*
X89297619Y66597620D01*
X89154761Y66645239D01*
X89059523Y66740477D01*
X89011904Y66835715D01*
X88964285Y67026191D01*
X88964285Y67169048D01*
X89011904Y67359524D01*
X89059523Y67454762D01*
X89154761Y67550000D01*
X89297619Y67597620D01*
X89392857Y67597620D01*
X89535714Y67550000D01*
X89583333Y67502381D01*
X90488095Y67597620D02*
X90011904Y67597620D01*
X89964285Y67121429D01*
X90011904Y67169048D01*
X90107142Y67216667D01*
X90345238Y67216667D01*
X90440476Y67169048D01*
X90488095Y67121429D01*
X90535714Y67026191D01*
X90535714Y66788096D01*
X90488095Y66692858D01*
X90440476Y66645239D01*
X90345238Y66597620D01*
X90107142Y66597620D01*
X90011904Y66645239D01*
X89964285Y66692858D01*
X23357142Y50833334D02*
X23404761Y50785715D01*
X23452380Y50642858D01*
X23452380Y50547620D01*
X23404761Y50404762D01*
X23309523Y50309524D01*
X23214285Y50261905D01*
X23023809Y50214286D01*
X22880952Y50214286D01*
X22690476Y50261905D01*
X22595238Y50309524D01*
X22500000Y50404762D01*
X22452380Y50547620D01*
X22452380Y50642858D01*
X22500000Y50785715D01*
X22547619Y50833334D01*
X22785714Y51690477D02*
X23452380Y51690477D01*
X22404761Y51452381D02*
X23119047Y51214286D01*
X23119047Y51833334D01*
X7557142Y61433334D02*
X7604761Y61385715D01*
X7652380Y61242858D01*
X7652380Y61147620D01*
X7604761Y61004762D01*
X7509523Y60909524D01*
X7414285Y60861905D01*
X7223809Y60814286D01*
X7080952Y60814286D01*
X6890476Y60861905D01*
X6795238Y60909524D01*
X6700000Y61004762D01*
X6652380Y61147620D01*
X6652380Y61242858D01*
X6700000Y61385715D01*
X6747619Y61433334D01*
X6652380Y61766667D02*
X6652380Y62385715D01*
X7033333Y62052381D01*
X7033333Y62195239D01*
X7080952Y62290477D01*
X7128571Y62338096D01*
X7223809Y62385715D01*
X7461904Y62385715D01*
X7557142Y62338096D01*
X7604761Y62290477D01*
X7652380Y62195239D01*
X7652380Y61909524D01*
X7604761Y61814286D01*
X7557142Y61766667D01*
X7457142Y54633334D02*
X7504761Y54585715D01*
X7552380Y54442858D01*
X7552380Y54347620D01*
X7504761Y54204762D01*
X7409523Y54109524D01*
X7314285Y54061905D01*
X7123809Y54014286D01*
X6980952Y54014286D01*
X6790476Y54061905D01*
X6695238Y54109524D01*
X6600000Y54204762D01*
X6552380Y54347620D01*
X6552380Y54442858D01*
X6600000Y54585715D01*
X6647619Y54633334D01*
X6647619Y55014286D02*
X6600000Y55061905D01*
X6552380Y55157143D01*
X6552380Y55395239D01*
X6600000Y55490477D01*
X6647619Y55538096D01*
X6742857Y55585715D01*
X6838095Y55585715D01*
X6980952Y55538096D01*
X7552380Y54966667D01*
X7552380Y55585715D01*
X64807142Y30583334D02*
X64854761Y30535715D01*
X64902380Y30392858D01*
X64902380Y30297620D01*
X64854761Y30154762D01*
X64759523Y30059524D01*
X64664285Y30011905D01*
X64473809Y29964286D01*
X64330952Y29964286D01*
X64140476Y30011905D01*
X64045238Y30059524D01*
X63950000Y30154762D01*
X63902380Y30297620D01*
X63902380Y30392858D01*
X63950000Y30535715D01*
X63997619Y30583334D01*
X64902380Y31535715D02*
X64902380Y30964286D01*
X64902380Y31250000D02*
X63902380Y31250000D01*
X64045238Y31154762D01*
X64140476Y31059524D01*
X64188095Y30964286D01*
M02*
